<?xml version="1.0" standalone="no"?>
<!DOCTYPE svg PUBLIC "-//W3C//DTD SVG 1.1//EN" "http://www.w3.org/Graphics/SVG/1.1/DTD/svg11.dtd" >
<svg xmlns="http://www.w3.org/2000/svg" xmlns:xlink="http://www.w3.org/1999/xlink" version="1.1">
<metadata>
Created by FontForge 20150102 at Fri Jan 23 09:01:43 2015
 By uniteet7
Copyright(C) 2009 by Oylan, GongLiu, China. All Rights Reserved
</metadata>
<defs>
<font id="KazNet" horiz-adv-x="884" >
  <font-face 
    font-family="KazNet"
    font-weight="400"
    font-stretch="normal"
    units-per-em="1024"
    panose-1="2 0 0 0 0 0 0 0 0 0"
    ascent="819"
    descent="-205"
    x-height="559"
    cap-height="745"
    bbox="-113 -516 4518 977"
    underline-thickness="60"
    underline-position="-370"
    unicode-range="U+0020-FEFC"
  />
<missing-glyph horiz-adv-x="320" 
 />
    <glyph glyph-name="uniFEFB" unicode="&#xfedf;&#xfe8e;" horiz-adv-x="560" arabic-form="isolated" 
d="M6 792q268 -172 387 -410q28 74 34.5 186t-2.5 260q79 -58 136 -115q-16 -32 -32 -52q6 -194 -98 -361q44 -74 18.5 -151t-156.5 -81q-90 2 -126 26t-12 59q72 108 181 166q-108 208 -331 338q-5 63 1 135zM338 170q38 3 41.5 31.5t-12.5 48.5q-36 -36 -87 -90q2 4 -7 10
h65z" />
    <glyph glyph-name="uniFEFC" unicode="&#xfee0;&#xfe8e;" horiz-adv-x="630" arabic-form="final" 
d="M355 243q25 33 70 145q15 163 -28 398q47 33 119 84q-10 -304 -15 -557q0 -51 27.5 -89.5t69.5 -39.5h49v-102h-58q-72 3 -111.5 67.5t-39.5 67.5q-17 -66 -102 -175q-44 -59 -154 -59h-116q156 92 227 186q-13 327 -293 519q23 54 60 113q296 -238 295 -558z" />
    <glyph glyph-name="uniFB56" unicode="&#x67e;" horiz-adv-x="782" arabic-form="isolated" 
d="M31 228q-8 88 34 168q22 24 42 -6q-11 -58 -14 -109q26 -99 127 -97h248q49 -1 108 17.5t82 60.5q8 45 -53 98l85 79q66 -82 58 -169q-22 -88 -101 -137.5t-171 -50.5h-275q-142 4 -170 146zM370 -72l-61 -89l-63 89l62 77zM455 5l60 -77l-60 -88l-66 88zM445 -179
l-61 -82l-66 82l66 87z" />
    <glyph glyph-name="uniFB57" unicode="&#x67e;" horiz-adv-x="886" arabic-form="final" 
d="M289 -191l-63 83l63 89l60 -89zM371 -108l63 89l60 -89l-60 -83zM299 -208l64 83l62 -83l-62 -82zM684 268q20 18 40 -4q12 -69 77 -80h104v-102h-106q-96 11 -113 73q-50 -46 -135 -82.5t-161 -36.5h-90q-203 1 -260 113q-40 108 34 204q28 22 42 -11q-22 -58 -16 -114
q2 -47 59.5 -69t133.5 -20h113q149 -8 278 129z" />
    <glyph glyph-name="uniFB58" unicode="&#x67e;" horiz-adv-x="384" arabic-form="initial" 
d="M195 -85l64 79l61 -79l-61 -86zM172 -85l-58 -86l-65 86l65 79zM123 -192l62 88l62 -88l-62 -83zM248 425q67 -108 56 -212q-9 -120 -141 -131h-163v102h180q50 4 50 50t-67 90q41 51 85 101z" />
    <glyph glyph-name="uniFB59" unicode="&#x67e;" horiz-adv-x="393" arabic-form="medial" 
d="M192 -74l-63 -88l-64 88l64 77zM209 -74l64 76l64 -76l-64 -88zM139 -181l62 86l64 -86l-64 -82zM171 336q24 25 44 -1q9 -56 37.5 -102t73.5 -49h84v-102h-99q-93 11 -108 59q-12 -48 -118 -59h-85v102h68q42 3 69 48t34 104z" />
    <glyph glyph-name="uniFB7A" unicode="&#x686;" horiz-adv-x="630" arabic-form="isolated" 
d="M456 204q-112 -26 -227 -117.5t-121 -206.5q8 -108 88.5 -186t190.5 -94q95 -8 197 59q56 9 32 -37q-105 -111 -253 -111q-154 9 -241.5 113.5t-88.5 234.5q6 159 107 259t191 135q-43 18 -142 16q-67 -38 -96 -107q-28 -17 -45 16q14 65 37 118.5t85 74.5
q62 -4 137 -23.5t146 -21.5h169l-19 -102q-76 -7 -147 -20zM430 -149l-61 -84l-64 84l64 79zM357 -50l-62 -82l-64 82l64 87zM444 37l58 -87l-58 -83l-65 83z" />
    <glyph glyph-name="uniFB7B" unicode="&#x686;" horiz-adv-x="676" arabic-form="final" 
d="M356 -50l-59 -83l-65 83l65 87zM442 37l63 -87l-63 -82l-63 82zM430 -149l-61 -84l-63 84l63 79zM584 240q-65 -15 -114 -25q-2 -27 48 -31h177v-102h-179q-111 10 -112 105q-96 -53 -201 -132q-111 -84 -94 -219q10 -96 75.5 -152t155.5 -68q149 -15 268 86
q58 22 35 -34q-104 -121 -259 -151q-194 -25 -303 151q-53 86 -51 188.5t51 188.5q50 81 128 130.5t134 75.5q-27 10 -94 18q-68 13 -100 -37q-30 -44 -64 -92q-35 -11 -39 29q27 79 60 151q35 65 126 55q136 -34 269 -47q45 5 102 18q-3 -59 -19 -106z" />
    <glyph glyph-name="uniFB7C" unicode="&#x686;" horiz-adv-x="686" arabic-form="initial" 
d="M276 -74l-64 -86l-61 86l61 77zM360 3l64 -77l-64 -86l-61 86zM349 -178l-65 -86l-58 86l58 83zM354 125q-50 -24 -110 -35t-99 -8h-145v102h212q90 -2 153 36q-73 16 -181 66q-36 8 -77 -43q-37 -7 -42 30q38 56 78 95q26 31 63 18q67 -44 144 -72.5t141 -29.5h134
q-15 -60 -38 -101h-61q-81 -10 -172 -58z" />
    <glyph glyph-name="uniFB7D" unicode="&#x686;" horiz-adv-x="624" arabic-form="medial" 
d="M263 -74l-64 -86l-64 86l64 76zM343 2l65 -76l-65 -86l-63 86zM337 -178l-64 -86l-64 86l64 82zM288 257q-39 13 -123 44q-33 11 -55 -9q-21 -23 -47 -62q-37 -11 -39 31q24 70 64 123q56 54 133 3q125 -50 226 -57h133q-6 -46 -20 -85q-67 -9 -111 -15v2q1 -47 47 -48
h146v-102h-162q-87 -5 -90 110v16q-84 -34 -182 -83q-86 -46 -148 -43h-60v102h84q59 3 121 33.5t83 39.5z" />
    <glyph glyph-name="uniFB8A" unicode="&#x698;" horiz-adv-x="434" arabic-form="isolated" 
d="M330 629l-63 -87l-60 87l60 81zM406 511l-66 -83l-59 83l59 82zM194 428l-61 83l61 82l63 -82zM371 19q-16 -123 -97.5 -219t-192.5 -102h-81q115 97 186.5 166.5t110.5 157.5q8 25 -25.5 60t-83.5 80l100 78q40 -50 65 -101t18 -120z" />
    <glyph glyph-name="uniFB8B" unicode="&#x698;" horiz-adv-x="451" arabic-form="final" 
d="M249 -25q69 104 -69 174l66 118q53 -50 81 -83h143v-102h-121q-12 -181 -137 -313q-44 -50 -125 -50h-143q200 120 305 256zM295 629l-62 -87l-60 87l60 81zM371 511l-66 -83l-59 83l59 82zM158 428l-60 83l60 82l66 -82z" />
    <glyph glyph-name="uniFB92" unicode="&#x6af;" horiz-adv-x="803" arabic-form="isolated" 
d="M613 244q-2 38 -77 92t-156 99v108l408 185v-88l-317 -138q64 -36 135 -103.5t80 -145.5q-4 -79 -67.5 -125t-136.5 -46h-290q-65 0 -126 34t-66 99q0 77 49 154q30 21 39 -16q-14 -57 -13 -101q2 -40 49.5 -54.5t96.5 -13.5h244q48 -1 95 14.5t53 45.5zM803 860v-91
l-380 -173v91z" />
    <glyph glyph-name="uniFB93" unicode="&#x6af;" horiz-adv-x="963" arabic-form="final" 
d="M632 253q-62 82 -156 153l19 121l420 219v-91l-341 -188q99 -116 194 -247q18 -32 57 -36h154v-102h-161q-47 1 -80 38.5t-39 47.5q-26 -83 -148 -86h-375q-63 0 -113.5 40t-29.5 110q12 35 39 90q23 23 45 -5q-14 -60 -7 -97t54 -38h386q38 1 66.5 24.5t15.5 46.5z
M930 861v-91l-409 -204v93z" />
    <glyph glyph-name="uniFB94" unicode="&#x6af;" horiz-adv-x="564" arabic-form="initial" 
d="M566 860v-91l-380 -173v91zM451 313q43 -99 -25 -164.5t-185 -66.5h-241v102h273q59 0 92.5 27t11.5 64q-78 92 -219 160v120l408 173v-88l-322 -139q47 -36 113 -86.5t94 -101.5z" />
    <glyph glyph-name="uniFB95" unicode="&#x6af;" horiz-adv-x="555" arabic-form="medial" 
d="M509 861v-91l-409 -204v93zM293 177q-32 -93 -156 -95h-137v102h139q53 1 76.5 28.5t6.5 59.5q-59 92 -155 149l18 106l424 219v-91l-343 -188q96 -107 193 -247q22 -32 60 -36h155v-102h-148q-50 1 -87 40t-46 55z" />
    <glyph glyph-name="uniFBAA" unicode="&#x6be;" horiz-adv-x="582" arabic-form="isolated" 
d="M510 322q59 -82 -1 -162.5t-141 -51.5q-41 19 -79 40q-46 -63 -135 -66h-154v102h192q8 3 9 1q-14 10 -43 30q-81 81 2 155q48 36 107 44q-10 -8 -1 -14q-20 6 -41 33l56 74q147 -90 229 -185zM220 327q-24 -17 -13.5 -36.5t45.5 -43.5q44 -24 64 42q8 21 -9 41
q-23 26 -57 14q-8 -3 -30 -17zM394 190q50 -14 65 24.5t-20 74.5q-52 40 -47 38q21 -43 -38 -110l-6 -7q26 -12 46 -20z" />
    <glyph glyph-name="uniFBAB" unicode="&#x6be;" horiz-adv-x="388" arabic-form="final" 
d="M335 -31q-2 -68 -62.5 -83t-109.5 24q-85 73 -80 172h-83v102h84q-2 123 108 212q52 35 93.5 6.5t30.5 -86.5q-20 -91 -55 -132h149v-102h-98q21 -50 23 -113zM176 184q23 47 56 107q6 13 1 20.5t-10 3.5q-68 -57 -66 -131h19zM195 6q31 -24 49 -19.5t14 34.5
q-6 34 -34 61h-66q2 -44 37 -76z" />
    <glyph glyph-name="uniFBAC" unicode="&#x6be;" horiz-adv-x="588" arabic-form="initial" 
d="M510 322q59 -82 -1 -162.5t-141 -51.5q-41 19 -79 40q-46 -63 -135 -66h-154v102h192q8 3 9 1q-14 10 -43 30q-81 81 2 155q48 36 107 44q-10 -8 -1 -14q-20 6 -41 33l56 74q147 -90 229 -185zM220 327q-24 -17 -13.5 -36.5t45.5 -43.5q44 -24 64 42q8 21 -9 41
q-23 26 -57 14q-8 -3 -30 -17zM394 190q50 -14 65 24.5t-20 74.5q-52 40 -47 38q21 -43 -38 -110l-6 -7q26 -12 46 -20z" />
    <glyph glyph-name="uniFBAD" unicode="&#x6be;" horiz-adv-x="388" arabic-form="medial" 
d="M335 -31q-2 -68 -62.5 -83t-109.5 24q-85 73 -80 172h-83v102h84q-2 123 108 212q52 35 93.5 6.5t30.5 -86.5q-20 -91 -55 -132h149v-102h-98q21 -50 23 -113zM176 184q23 47 56 107q6 13 1 20.5t-10 3.5q-68 -57 -66 -131h19zM195 6q31 -24 49 -19.5t14 34.5
q-6 34 -34 61h-66q2 -44 37 -76z" />
    <glyph glyph-name="uniFBD3" unicode="&#x6ad;" horiz-adv-x="692" arabic-form="isolated" 
d="M397 779l-63 -83l-64 83l64 83zM472 679l-63 -85l-65 85l65 82zM308 679l-61 -86l-63 86l63 83zM289 82q-64 0 -133.5 40t-111.5 115q-19 58 37 32q82 -85 198 -85h142q138 -9 145 122v300q3 93 -30 190l61 81l96 -99l-39 -35v-419q-2 -112 -78.5 -176.5t-193.5 -65.5
h-93zM315 463q-10 -3 -9.5 -10.5t2.5 -8.5q49 -3 100.5 -13.5t59.5 -62.5q-7 -107 -160 -114h-124q-41 5 -41.5 38t37.5 36h112q37 2 48.5 14t1.5 15q-42 5 -96 23.5t-58 79.5q25 70 109 86t172 14q31 -12 28 -43.5t-40 -31.5q-69 -2 -142 -22z" />
    <glyph glyph-name="uniFBD4" unicode="&#x6ad;" horiz-adv-x="911" arabic-form="final" 
d="M199 82q-91 1 -145 50.5t-47 122.5q11 71 50 141q32 13 38 -19q-13 -56 -12 -108q0 -50 40.5 -69t101.5 -18h235q94 -1 153.5 34.5t62.5 121.5v75q-3 131 -14 264q2 55 -51 124l139 59v-564q0 -46 22.5 -78.5t68.5 -33.5h90v-102h-97q-53 1 -92.5 38.5t-44.5 52.5
q-67 -91 -230 -91h-268zM408 339q15 13 4 18q-62 8 -120 29q-47 28 -48 74.5t49 70.5q87 31 180 29h59q30 -6 30 -36.5t-30 -34.5h-59q-64 0 -107 -30q-14 -12 -6 -15q56 -6 116 -16q57 -14 64 -63.5t-42 -79.5q-95 -48 -199 -47h-76q-31 7 -31 38.5t31 36.5h76q64 0 109 26
zM379 677l63 84l68 -84l-68 -82zM309 779l64 83l62 -83l-62 -83zM362 677l-63 -82l-64 82l64 85z" />
    <glyph glyph-name="uniFBD5" unicode="&#x6ad;" horiz-adv-x="532" arabic-form="initial" 
d="M337 779l-64 -82l-64 82l64 82zM276 664l-64 -86l-60 86l60 82zM424 705l-64 -79l-61 79l61 84zM378 243q-96 98 -252 160l14 112l393 215v-106l-296 -163q125 -66 203 -149q58 -84 18.5 -155.5t-148.5 -74.5h-310v102h338q35 1 44.5 21t-4.5 38z" />
    <glyph glyph-name="uniFBD6" unicode="&#x6ad;" horiz-adv-x="555" arabic-form="medial" 
d="M292 779l-64 -83l-62 83l62 83zM232 664l-59 -86l-63 86l63 82zM378 705l-57 -79l-67 79l67 84zM261 274q-57 66 -147 131v121l64 32l135 74l180 98v-106l-295 -157q113 -107 205 -247q22 -30 60 -36h111v-102h-139q-86 15 -99 58q-13 -55 -135 -58h-201v102h189
q47 1 71.5 30.5t0.5 59.5z" />
    <glyph glyph-name="uniFBD7" unicode="&#x6c7;" horiz-adv-x="442" arabic-form="isolated" 
d="M394 83q-5 -132 -99.5 -236.5t-233.5 -142.5h-114q159 100 252 187t118 191h-141q-58 1 -77 44.5t-9 90.5q32 135 151 143q72 -6 111 -73.5t42 -119.5v-84zM227 273q-46 -17 -63 -65q-10 -20 13 -24h128q-6 23 -32.5 58t-45.5 31zM220 545q-54 17 -45 94q10 56 65 69
q46 0 72.5 -33t12.5 -74q-44 -104 -151 -164q-30 5 -15 40q46 41 61 68z" />
    <glyph glyph-name="uniFBD8" unicode="&#x6c7;" horiz-adv-x="461" arabic-form="final" 
d="M479 184v-102h-69q-11 -122 -101 -234.5t-222 -143.5h-107q138 102 232.5 184.5t120.5 193.5h-139q-53 1 -76 43.5t-9 90.5q41 136 138 144q66 -1 110.5 -57.5t51.5 -118.5h70zM251 273q-58 -18 -66 -66q-11 -20 15 -23h133q-5 -3 -33 42.5t-49 46.5zM244 545
q-55 17 -46 94q12 56 66 69q45 0 72 -33t13 -74q-44 -104 -150 -164q-33 5 -15 40q44 40 60 68z" />
    <glyph glyph-name="uniFBD9" unicode="&#x6c6;" horiz-adv-x="465" arabic-form="isolated" 
d="M91 694l61 67l102 -141l97 154l67 -67l-163 -247zM385 83q-3 -132 -83 -236.5t-214 -140.5h-136q159 100 251 186t107 190h-129q-58 1 -77 44.5t-9 90.5q32 135 151 143q71 -3 104.5 -71.5t34.5 -121.5v-84zM251 273q-59 -18 -67 -66q-10 -20 14 -23h114
q-7 22 -27.5 56.5t-33.5 32.5z" />
    <glyph glyph-name="uniFBDA" unicode="&#x6c6;" horiz-adv-x="429" arabic-form="final" 
d="M60 694l63 66l102 -140l99 154l68 -67l-165 -246zM137 83q-38 3 -61 46t-8 89q41 136 138 146q68 -3 110 -60t44 -120h88v-102h-90q0 -120 -85 -234t-225 -142h-109q138 103 230.5 185t111.5 191h-144v1zM221 273q-59 -18 -67 -66q-11 -20 15 -23h122q-4 -3 -30.5 42.5
t-39.5 46.5z" />
    <glyph glyph-name="uniFBDB" unicode="&#x6c8;" horiz-adv-x="447" arabic-form="isolated" 
d="M293 460h-88v272l88 63v-335zM395 89q-5 -131 -95.5 -239t-223.5 -146h-127q158 102 252 188.5t119 189.5h-143q-58 2 -76.5 43.5t-4.5 82.5q48 144 151 152q67 -3 106 -70t42 -123v-78zM247 273q-59 -18 -67 -66q-10 -20 14 -23h124q-8 21 -32 56t-39 33z" />
    <glyph glyph-name="uniFBDC" unicode="&#x6c8;" horiz-adv-x="435" arabic-form="final" 
d="M263 460h-87v272l87 64v-336zM163 83q-38 1 -61.5 45t-5.5 91q52 135 135 145q67 -3 109.5 -59.5t52.5 -120.5h56v-102h-57q-6 -124 -106.5 -246.5t-257.5 -131.5h-62q136 106 231 188t122 190h-156v1zM216 273q-58 -18 -67 -66q-10 -20 16 -23h134q-6 -3 -36.5 42.5
t-46.5 46.5z" />
    <glyph glyph-name="uniFBDE" unicode="&#x6cb;" horiz-adv-x="464" arabic-form="isolated" 
d="M253 533l56 82l68 -82l-68 -83zM164 450l-60 83l60 82l66 -82zM179 650l61 80l62 -80l-62 -86zM400 85q-5 -130 -88 -238.5t-203 -142.5h-169q181 89 273 180.5t113 197.5h-111q-126 13 -107 119q32 152 144 156q67 -5 106 -71t42 -122v-79zM252 269q-59 -16 -67 -65
q-9 -18 14 -20h124q-7 20 -31.5 54t-39.5 31z" />
    <glyph glyph-name="uniFBDF" unicode="&#x6cb;" horiz-adv-x="438" arabic-form="final" 
d="M230 545l60 87l63 -87l-63 -83zM141 462l-58 83l58 87l66 -87zM155 650l62 79l63 -79l-63 -86zM166 84q-92 10 -84 130q11 70 51.5 106.5t87.5 39.5q64 -1 105.5 -57.5t51.5 -118.5h78v-102h-79q-5 -127 -106 -254.5t-255 -125.5h-74q156 96 246 181.5t116 198.5h-138v2z
M228 269q-58 -16 -66 -62q-11 -20 16 -23h134q-6 -4 -36.5 40.5t-47.5 44.5z" />
    <glyph glyph-name="uniFBE0" unicode="&#x6c5;" horiz-adv-x="405" arabic-form="isolated" 
d="M267 -269q-56 -59 -163 -56q-62 3 -76.5 47t-11.5 92q0 49 38.5 101.5t105.5 55.5q105 -12 141 -28q34 56 47 134h-116q-72 3 -91.5 52.5t-3.5 101.5q26 136 146 140q76 -15 107 -88.5t31 -142.5q2 -218 -154 -415v6zM131 -208q76 34 115 77q-34 17 -103 24
q-42 2 -42 -48q-2 -62 30 -52v-1zM252 273q-31 -10 -43 -64q-6 -21 19 -23h120q-4 24 -30 60.5t-66 29.5v-3z" />
    <glyph glyph-name="uniFBE1" unicode="&#x6c5;" horiz-adv-x="448" arabic-form="final" 
d="M121 -205q66 29 105 72q-34 17 -103 24q-42 2 -42 -48q-2 -62 40 -48zM298 244.5q-26 36.5 -47 32.5q-50 -16 -62 -70q-6 -21 19 -23h120q-4 24 -30 60.5zM406 82q-8 -177 -126 -325q-82 -87 -189 -84q-62 3 -76.5 47t-11.5 92q0 49 38.5 101.5t105.5 55.5
q105 -12 141 -28q34 56 47 134h-116q-72 3 -91.5 52.5t-3.5 101.5q26 136 146 140q76 -15 108 -90q24 -55 27 -95h61v-102h-60z" />
    <glyph glyph-name="uniFBE2" unicode="&#x6c9;" horiz-adv-x="465" arabic-form="isolated" 
d="M265 777l163 -247l-67 -67l-97 154l-102 -141l-61 67zM395 83q-3 -132 -83 -236.5t-214 -140.5h-136q159 100 251 186t107 190h-129q-58 1 -77 44.5t-9 90.5q32 135 151 143q71 -3 104.5 -71.5t34.5 -121.5v-84zM261 273q-59 -18 -67 -66q-10 -20 14 -23h114
q-7 22 -27.5 56.5t-33.5 32.5z" />
    <glyph glyph-name="uniFBE3" unicode="&#x6c9;" horiz-adv-x="429" arabic-form="final" 
d="M227 776l165 -246l-68 -67l-99 154l-102 -140l-63 66zM137 83q-38 3 -61 46t-8 89q41 136 138 146q68 -3 110 -60t44 -120h88v-102h-90q0 -120 -85 -234t-225 -142h-109q138 103 230.5 185t111.5 191h-144v1zM221 273q-59 -18 -67 -66q-11 -20 15 -23h122
q-4 -3 -30.5 42.5t-39.5 46.5z" />
    <glyph glyph-name="uniFBE4" unicode="&#x6d0;" horiz-adv-x="727" arabic-form="isolated" 
d="M327 -504l-62 80l62 81l65 -81zM266 -251l61 81l64 -81l-64 -86zM665 42q-35 -102 -126 -154.5t-207 -52.5h-68q-93 -2 -167.5 41.5t-90.5 145.5q-6 152 111 248q59 21 36 -38q-67 -79 -59 -179q23 -109 134 -113h117q138 0 221 82q16 17 10.5 37t-33.5 23h-59
q-83 1 -108.5 47t-17.5 106q49 175 221 193q73 0 117 -46.5t-21 -54.5h-103q-95 -2 -142 -101q-3 -10 8 -25.5t35 -16.5h89q45 -2 81.5 -44t21.5 -98z" />
    <glyph glyph-name="uniFBE5" unicode="&#x6d0;" horiz-adv-x="675" arabic-form="final" 
d="M30 -95q-4 129 47 245q35 26 41 -15q-15 -92 -14 -189q7 -103 118 -99h117q112 2 163 68q12 16 13 32.5t-8 16.5h-70q-66 3 -75 49t20 92q52 76 144 79h166v-102h-209q-6 -2 -6 -8.5t5 -7.5h42q48 -4 64 -40t12 -77q-15 -99 -97.5 -151t-181.5 -52h-121q-72 0 -120 43.5
t-50 115.5zM273 -312l61 84l64 -84l-64 -80zM399 -440l-65 -76l-61 76l61 80z" />
    <glyph glyph-name="uniFBE6" unicode="&#x6d0;" horiz-adv-x="382" arabic-form="initial" 
d="M139 -74l62 77l64 -77l-64 -86zM139 -239l62 86l64 -86l-64 -80zM232 254q-18 33 -68 76l85 103q41 -79 55 -140q16 -90 -14 -150t-122 -61h-168v102h182q67 5 50 70z" />
    <glyph glyph-name="uniFBE7" unicode="&#x6d0;" horiz-adv-x="393" arabic-form="medial" 
d="M171 334q24 25 44 -1q7 -56 34.5 -101.5t68.5 -47.5h92v-102h-110q-84 10 -98 58q-12 -48 -110 -58h-92v102h77q41 2 63 46.5t31 103.5zM139 -74l62 77l64 -77l-64 -86zM139 -239l62 86l64 -86l-64 -80z" />
    <glyph glyph-name="uniFBE8" unicode="&#x649;" horiz-adv-x="382" arabic-form="initial" 
d="M230 254q-18 33 -68 76l85 103q41 -79 55 -140q16 -90 -14 -150t-122 -61h-168v102h182q67 5 50 70z" />
    <glyph glyph-name="uniFBE9" unicode="&#x649;" horiz-adv-x="384" arabic-form="medial" 
d="M201 145q-15 -52 -109 -63h-92v102h84q42 2 63 47t23 104q25 26 46 0q5 -58 32 -103.5t66 -47.5h77v-102h-74q-101 11 -116 63z" />
    <glyph glyph-name="uniFBEA" unicode="&#xfbea;" horiz-adv-x="718" arabic-form="isolated" 
d="M299 82q-142 9 -144 163v403q0 53 -35 120l150 120q-45 -182 -42 -329v-294q-2 -78 66 -81h227q51 3 48.5 44.5t-66.5 87.5l82 100q59 -97 55 -193q-9 -140 -134 -141h-207zM617 621q38 20 51.5 -13t-19.5 -55q-117 -70 -237 -132q-51 -20 -32 34q12 38 51 68q31 6 17 2
q-28 14 -26 82q6 79 67 96t134 -23q16 -25 -5 -43h-92q-24 -3 -31 -38q-1 -14 14 -24.5t28 -8.5q44 31 80 55z" />
    <glyph glyph-name="uniFBEB" unicode="&#xfbeb;" horiz-adv-x="651" arabic-form="final" 
d="M238 82q-142 9 -144 163v403q0 53 -35 120l150 120q-45 -182 -42 -329v-294q-2 -78 66 -81h130q35 1 59.5 36t20.5 89q26 26 43 -2q-4 -115 99 -123h83v-102h-55q-124 -3 -156 80q11 -7 17 4q-28 -81 -131 -84h-105zM561 621q33 13 45.5 -12t-10.5 -47
q-119 -79 -240 -141q-53 -22 -33 32q14 38 48 66q35 15 9 13q28 -14 1 6q-25 40 -13.5 94t80.5 78q63 9 106 -21q56 -49 -21 -49q-5 3 -62 -3q-17 -2 -28 -18t-3 -31q4 -7 19.5 -14t20.5 -5q36 18 81 52z" />
    <glyph glyph-name="uniFBEC" unicode="&#xfbec;" horiz-adv-x="759" arabic-form="isolated" 
d="M200 211q42 0 72 23q-7 52 -10 84q-35 -16 -81 -59q-32 -39 19 -48zM389 82q-51 1 -71.5 29.5t-26.5 49.5q-49 -24 -125 -41q-67 -6 -93.5 55.5t13.5 107.5q83 74 168 110q-4 23 -12 74l95 42q19 -158 36 -294q3 -29 30 -31h193q51 3 48 44.5t-66 87.5l81 100
q60 -97 55 -193q-7 -140 -133 -141h-192zM692 621q38 20 51.5 -13t-20.5 -55q-116 -70 -235 -132q-55 -19 -34 34q14 38 52 68q31 6 18 2q-29 14 -26 82q3 79 65 96t134 -22q18 -26 -5 -44h-91q-23 -3 -31 -38q-1 -14 14.5 -24.5t27.5 -8.5q43 31 80 55z" />
    <glyph glyph-name="uniFBED" unicode="&#xfbed;" horiz-adv-x="806" arabic-form="final" 
d="M200 211q42 0 72 23q-7 52 -10 84q-35 -16 -81 -59q-32 -39 19 -48zM389 82q-51 1 -71.5 29.5t-26.5 49.5q-49 -24 -125 -41q-67 -6 -93.5 55.5t13.5 107.5q83 74 168 110q-4 23 -12 74l95 42q19 -158 36 -294q3 -29 30 -31h117q36 1 60 36t20 88q25 28 43 -1
q-4 -115 98 -123h84v-102h-55q-125 -3 -157 80q16 -10 20 6q-30 -83 -133 -86h-111zM718 621q34 13 46.5 -12t-10.5 -47q-121 -79 -239 -141q-54 -22 -34 32q15 38 47 66q35 15 7 13q30 -14 3 6q-25 40 -13 94t79 78q63 9 108 -21q53 -49 -21 -49q-5 3 -64 -3
q-17 -2 -28 -18t-1 -31q3 -7 18.5 -14t20.5 -5q36 18 81 52z" />
    <glyph glyph-name="uniFBEE" unicode="&#xfbee;" horiz-adv-x="834" arabic-form="isolated" 
d="M273 273q-58 -18 -66 -66q-11 -20 15 -23h133q-5 -3 -33 42.5t-49 46.5zM432 82q-11 -122 -101 -234.5t-222 -143.5h-107q138 102 232.5 184.5t120.5 193.5h-139q-53 1 -76 43.5t-9 90.5q41 136 138 144q66 -1 110.5 -57.5t51.5 -118.5h189q51 3 48 44.5t-66 87.5l80 100
q60 -97 56 -193q-8 -140 -133 -141h-173zM715 621q38 20 51.5 -13t-19.5 -55q-116 -70 -236 -132q-54 -20 -32 34q11 38 51 68q32 6 18 2q-30 14 -27 82q4 79 66.5 96t132.5 -23q19 -25 -5 -43h-90q-23 -3 -31 -38q-2 -14 14 -24.5t28 -8.5q43 31 79 55z" />
    <glyph glyph-name="uniFBEF" unicode="&#xfbef;" horiz-adv-x="833" arabic-form="final" 
d="M271 273q-58 -18 -66 -66q-11 -20 15 -23h133q-5 -3 -33 42.5t-49 46.5zM430 82q-11 -122 -101 -234.5t-222 -143.5h-107q138 102 232.5 184.5t120.5 193.5h-139q-53 1 -76 43.5t-9 90.5q41 136 138 144q66 -1 110.5 -57.5t51.5 -118.5h114q37 1 60 36t19 89q26 26 44 -2
q-5 -115 98 -123h84v-102h-55q-124 -3 -156 80q11 -7 17 4q-28 -81 -131 -84h-93zM740 621q34 13 46.5 -12t-10.5 -47q-120 -79 -239 -141q-56 -22 -33 33q14 37 47 65q35 15 8 13q29 -14 3 6q-26 40 -14 94t79 78q63 9 107 -21q55 -49 -21 -49q-5 3 -63 -3q-17 -2 -28 -18
t-2 -31q4 -7 19.5 -14t20.5 -5q36 18 80 52z" />
    <glyph glyph-name="uniFBF0" unicode="&#xfbf0;" horiz-adv-x="826" arabic-form="isolated" 
d="M271 273q-58 -18 -66 -66q-11 -20 15 -23h133q-5 -3 -33 42.5t-49 46.5zM430 82q-11 -122 -101 -234.5t-222 -143.5h-107q138 102 232.5 184.5t120.5 193.5h-139q-53 1 -76 43.5t-9 90.5q41 136 138 144q66 -1 110.5 -57.5t51.5 -118.5h189q51 3 48 44.5t-66 87.5l80 100
q60 -97 56 -193q-8 -140 -133 -141h-173zM264 545q-55 17 -46 94q12 56 66 69q45 0 72 -33t13 -74q-44 -104 -150 -164q-33 5 -15 40q44 40 60 68zM713 621q38 20 51.5 -13t-19.5 -55q-116 -70 -236 -132q-54 -20 -32 34q11 38 51 68q32 6 18 2q-30 14 -27 82q4 79 66.5 96
t132.5 -23q19 -25 -5 -43h-90q-23 -3 -31 -38q-2 -14 14 -24.5t28 -8.5q43 31 79 55z" />
    <glyph glyph-name="uniFBF1" unicode="&#xfbf1;" horiz-adv-x="816" arabic-form="final" 
d="M271 273q-58 -18 -66 -66q-11 -20 15 -23h133q-5 -3 -33 42.5t-49 46.5zM264 545q-55 17 -46 94q12 56 66 69q45 0 72 -33t13 -74q-44 -104 -150 -164q-33 5 -15 40q44 40 60 68zM730 621q35 13 46.5 -12t-10.5 -47q-122 -79 -240 -141q-56 -22 -33 33q14 37 47 65
q34 15 6 13q30 -14 4 6q-26 40 -14 94t79 78q64 9 108 -21q53 -49 -21 -49q-5 3 -64 -3q-17 -2 -27.5 -18t-1.5 -31q4 -7 19 -14t20 -5q36 18 82 52zM430 82q-11 -122 -101 -234.5t-222 -143.5h-107q138 102 232.5 184.5t120.5 193.5h-139q-53 1 -76 43.5t-9 90.5
q41 136 138 144q66 -1 110.5 -57.5t51.5 -118.5h103q36 1 59.5 36t19.5 88q24 27 44 0q-5 -116 97 -124h84v-102h-55q-124 -3 -157 80q16 -10 20 6q-30 -83 -133 -86h-81z" />
    <glyph glyph-name="uniFBF2" unicode="&#xfbf2;" horiz-adv-x="798" arabic-form="isolated" 
d="M221 273q-59 -18 -67 -66q-11 -20 15 -23h122q-4 -3 -30.5 42.5t-39.5 46.5zM60 694l63 66l102 -140l99 154l68 -67l-165 -246zM676 621q36 20 50.5 -13t-19.5 -55q-115 -70 -237 -132q-52 -19 -33 34q14 38 52 68q31 6 18 2q-29 14 -27 82q5 79 67 96t134 -23
q16 -25 -5 -43h-91q-24 -3 -31 -38q-2 -15 13.5 -25t27.5 -8q44 31 81 55zM358 82q0 -120 -85 -234t-225 -142h-109q138 103 230.5 185t111.5 191h-129q-53 4 -76 47t-8 89q41 136 138 146q68 -3 110 -60t44 -120h220q50 3 48 45t-65 103l81 82q57 -95 54 -191
q-9 -140 -134 -141h-206z" />
    <glyph glyph-name="uniFBF3" unicode="&#xfbf3;" horiz-adv-x="756" arabic-form="final" 
d="M221 273q-59 -18 -67 -66q-11 -20 15 -23h122q-4 -3 -30.5 42.5t-39.5 46.5zM60 694l63 66l102 -140l99 154l68 -67l-165 -246zM669 621q35 13 46.5 -12t-9.5 -47q-122 -79 -240 -141q-54 -22 -35 32q16 38 48 66q35 15 6 13q30 -14 5 6q-26 40 -14 94t80 78
q63 9 107 -21q53 -49 -22 -49q-4 3 -63 -3q-16 -2 -27.5 -18t-2.5 -31q4 -6 20 -13.5t20 -5.5q36 18 81 52zM358 82q0 -120 -85 -234t-225 -142h-109q138 103 230.5 185t111.5 191h-129q-53 4 -76 47t-8 89q41 136 138 146q68 -3 110 -60t44 -120h112q35 1 59 36t21 88
q22 30 41 -1q-3 -115 100 -123h82v-102h-53q-125 -3 -158 80q16 -10 20 6q-30 -83 -133 -86h-93z" />
    <glyph glyph-name="uniFBF4" unicode="&#xfbf4;" horiz-adv-x="784" arabic-form="isolated" 
d="M246 273q-58 -18 -67 -66q-10 -20 16 -23h134q-6 -3 -36.5 42.5t-46.5 46.5zM293 460h-87v272l87 64v-336zM711 621q39 20 52 -13t-19 -55q-117 -70 -237 -132q-53 -20 -32 34q13 38 50 68q33 6 19 2q-29 14 -27 82q5 79 67 96t133 -22q19 -26 -5 -44h-91q-23 -3 -31 -38
q-1 -14 14.5 -24.5t27.5 -8.5q43 31 79 55zM422 82q-6 -124 -106.5 -246.5t-257.5 -131.5h-62q136 106 231 188t122 190h-141q-53 2 -76.5 46t-5.5 91q52 135 135 145q67 -3 109.5 -59.5t52.5 -120.5h193q51 3 48 44.5t-66 87.5l80 100q61 -97 56 -193q-8 -140 -133 -141
h-179z" />
    <glyph glyph-name="uniFBF5" unicode="&#xfbf5;" horiz-adv-x="788" arabic-form="final" 
d="M246 273q-58 -18 -67 -66q-10 -20 16 -23h134q-6 -3 -36.5 42.5t-46.5 46.5zM293 460h-87v272l87 64v-336zM706 621q33 13 45.5 -12t-10.5 -47q-121 -79 -240 -141q-55 -23 -32 32q13 38 46 66q36 15 9 13q29 -14 2 6q-25 40 -13.5 94t79.5 78q64 9 107 -21
q56 -49 -21 -49q-5 3 -63 -3q-17 -2 -27.5 -18t-2.5 -31q3 -7 18.5 -14t20.5 -5q37 18 82 52zM422 82q-6 -124 -106.5 -246.5t-257.5 -131.5h-62q136 106 231 188t122 190h-141q-53 2 -76.5 46t-5.5 91q52 135 135 145q67 -3 109.5 -59.5t52.5 -120.5h84q36 1 60 36t20 89
q27 26 44 -2q-5 -115 98 -123h84v-102h-55q-124 -3 -157 80q12 -8 18 4q-29 -81 -131 -84h-66z" />
    <glyph glyph-name="uniFBF6" unicode="&#xfbf6;" horiz-adv-x="990" arabic-form="isolated" 
d="M273 -312l61 84l64 -84l-64 -80zM915 621q38 20 51.5 -13t-19.5 -55q-116 -70 -237 -132q-52 -19 -33 34q13 38 53 68q31 6 17 2q-29 14 -26 82q4 79 65.5 96t132.5 -22q19 -26 -5 -44h-89q-24 -3 -31 -38q-2 -15 13.5 -25t27.5 -8q44 31 80 55zM483 82q-6 -2 -6 -8.5
t5 -7.5h42q48 -4 64 -40t12 -77q-15 -99 -97.5 -151t-181.5 -52h-121q-72 0 -120 43.5t-50 115.5q-4 129 47 245q35 26 41 -15q-15 -92 -14 -189q7 -103 118 -99h117q112 2 163 68q12 16 13 32.5t-8 16.5h-70q-66 3 -75 49t20 92q52 76 144 79h294q50 3 48 44.5t-65 87.5
l79 100q59 -97 56 -193q-9 -140 -135 -141h-320zM399 -440l-65 -76l-61 76l61 80z" />
    <glyph glyph-name="uniFBF7" unicode="&#xfbf7;" horiz-adv-x="1011" arabic-form="final" 
d="M273 -312l61 84l64 -84l-64 -80zM920 621q35 13 47.5 -12t-11.5 -47q-120 -79 -239 -141q-54 -22 -34 32q14 38 47 66q34 15 5 13q31 -14 6 6q-26 40 -14 94t80 78q63 9 108 -21q50 -49 -23 -49q-4 3 -62 -3q-18 -2 -29 -18t-2 -31q4 -6 19.5 -13.5t19.5 -5.5
q36 18 82 52zM483 82q-6 -2 -6 -8.5t5 -7.5h42q48 -4 64 -40t12 -77q-15 -99 -97.5 -151t-181.5 -52h-121q-72 0 -120 43.5t-50 115.5q-4 129 47 245q35 26 41 -15q-15 -92 -14 -189q7 -103 118 -99h117q112 2 163 68q12 16 13 32.5t-8 16.5h-70q-66 3 -75 49t20 92
q52 76 144 79h196q36 1 60.5 36t19.5 88q23 27 43 0q-3 -116 99 -124h82v-102h-54q-124 -3 -156 80q12 -8 18 4q-29 -81 -132 -84h-219zM399 -440l-65 -76l-61 76l61 80z" />
    <glyph glyph-name="uniFBF8" unicode="&#xfbf8;" horiz-adv-x="726" arabic-form="initial" 
d="M139 -74l62 77l64 -77l-64 -86zM639 621q38 20 50.5 -13t-20.5 -55q-116 -70 -237 -132q-51 -20 -32 34q13 38 53 68q31 6 16 2q-30 14 -25 82q3 79 65.5 96t132.5 -23q19 -25 -5 -43h-90q-24 -3 -31 -39q-2 -14 14 -24t27 -8q44 31 82 55zM300 82q-84 10 -98 58
q-12 -48 -110 -58h-92v102h77q41 2 63 46.5t31 103.5q24 25 44 -1q7 -56 34.5 -101.5t68.5 -47.5h225q50 3 47 44.5t-66 87.5l81 100q59 -97 56 -193q-9 -140 -135 -141h-226zM139 -239l62 86l64 -86l-64 -80z" />
    <glyph glyph-name="uniFBF9" unicode="&#xfbf9;" horiz-adv-x="990" arabic-form="isolated" 
d="M483 82q-6 -2 -6 -8.5t5 -7.5h42q48 -4 64 -40t12 -77q-15 -99 -97.5 -151t-181.5 -52h-121q-72 0 -120 43.5t-50 115.5q-4 129 47 245q35 26 41 -15q-15 -92 -14 -189q7 -103 118 -99h117q112 2 163 68q12 16 13 32.5t-8 16.5h-70q-66 3 -75 49t20 92q52 76 144 79h294
q50 3 48 44.5t-65 87.5l79 100q59 -97 56 -193q-9 -140 -135 -141h-320zM915 621q38 20 51.5 -13t-19.5 -55q-116 -70 -237 -132q-52 -19 -33 34q13 38 53 68q31 6 17 2q-29 14 -26 82q4 79 65.5 96t132.5 -22q19 -26 -5 -44h-89q-24 -3 -31 -38q-2 -15 13.5 -25t27.5 -8
q44 31 80 55z" />
    <glyph glyph-name="uniFBFB" unicode="&#xfbfb;" horiz-adv-x="734" arabic-form="initial" 
d="M300 82q-84 10 -98 58q-12 -48 -110 -58h-92v102h77q41 2 63 46.5t31 103.5q24 25 44 -1q7 -56 34.5 -101.5t68.5 -47.5h225q50 3 47 44.5t-66 87.5l81 100q59 -97 56 -193q-9 -140 -135 -141h-226zM639 621q38 20 50.5 -13t-20.5 -55q-116 -70 -237 -132q-51 -20 -32 34
q13 38 53 68q31 6 16 2q-30 14 -25 82q3 79 65.5 96t132.5 -23q19 -25 -5 -43h-90q-24 -3 -31 -39q-2 -14 14 -24t27 -8q44 31 82 55z" />
    <glyph glyph-name="uniFDF0" unicode="&#xfdf0;" horiz-adv-x="5020" arabic-form="isolated" 
d="M231 764q47 0 87.5 -23.5t62.5 -64t22 -86.5q0 -45 -23.5 -85.5t-63.5 -62.5t-85 -22q-46 0 -86 23t-62.5 63.5t-22.5 83.5q0 48 24 88.5t64 63t83 22.5zM231 735q-83 0 -123 -73q-19 -34 -19 -72q0 -82 72 -123q34 -19 70 -19q39 0 73 19.5t52.5 53t18.5 69.5
q0 40 -20 74t-54.5 52.5t-69.5 18.5zM157 496v185h63q79 0 79 -51q0 -21 -15.5 -35t-38.5 -17q20 -6 44 -46l22 -36h-35l-17 29q-14 26 -22 34q-15 15 -34 15h-17v-78h-29zM186 600h36q44 0 44 28q0 17 -15 25q-10 3 -31 3h-34v-56zM4056 703v-683l203 -18l185 55l-185 56
l37 184l111 37l56 -55l55 -185l-92 -165l-203 -37l-204 55l-55 184v240l-37 221zM3392 666l55 -406l-18 -313l-56 -37v313l-55 351zM1490 519l74 -93l-55 -55l-56 37zM2930 500l74 -92l-37 -56l-74 93zM3078 500l74 -92l-37 -56l-74 93zM4278 500l74 -92l-37 -56l-74 93z
M4426 500l73 -92l-36 -56l-74 93zM3687 426l74 -92l-55 -74l-74 111zM696 334l74 -92l-55 -74l-74 92zM844 334l74 -92l-55 -74l-74 92zM1472 334l147 -148l19 -129l-55 -92l-222 -73l-240 37l-425 -74l-221 74l-37 202l74 -111l221 -55l259 37l147 55l222 -55l185 55
q-107 6 -185 111zM3004 334q138 -89 166 -258q-73 -133 -240 -184h-351l-258 37q-145 -44 -222 -185l-221 -203l-148 -18l148 110l185 222q-144 46 -222 184l111 147l129 -55l55 -129l167 55l129 -55l37 55l129 -55l55 74l277 -74l166 55l-147 19l-37 184zM1490 242l-37 -74
h93q-11 39 -56 74zM3023 242l-37 -74h92q-11 39 -55 74zM4370 242l-37 -74h93q-11 39 -56 74zM1970 94l-55 -92h111q-16 50 -56 92zM3687 76l111 -147l18 -148l-166 -203l-184 -55l277 313l-111 129z" />
    <glyph glyph-name="uniFDF2" unicode="&#xfdf2;" horiz-adv-x="1440" arabic-form="isolated" 
d="M829 682q-13 30 -25.5 46t-28.5 29q-10 12 -56 42q11 48 51 48q35 0 54 -30q11 -18 16.5 -28t9.5 -13q12 -31 21 -79zM989 633.5q-5 -21.5 -14 -39t-24.5 -28.5t-34.5 -11q-21 0 -34.5 4t-18.5 6q-4 -7 -24 -25q-29 -21 -56 -21q-35 0 -54 21t-19 53q0 13 2.5 27.5
t5.5 28.5l50 18q0 -44 6 -50.5t22 -6.5q1 0 7.5 5t12.5 15t11 21t7 31l43 10q4 -26 6.5 -31l2.5 -5q8 -6 28 -6q9 0 18 16q3 7 7 17t9 30l43 7q3 -23 3 -29v-13q0 -23 -5 -44.5zM1199.5 147.5q-0.5 -11.5 -1.5 -19.5q-5 -33 -22 -60l-12 -23q-95 0 -155 24
q-21 10 -41.5 23.5t-25.5 18.5q-22 -30 -65 -49q-34 -17 -83 -17q-52 0 -98 25.5t-56 43.5q-13 -16 -55.5 -42.5t-85.5 -26.5q-81 0 -134 12.5t-53 40.5q0 58 86 126q42 34 92.5 61t95.5 46q2 -5 -3.5 12.5t-5.5 27.5q0 28 22 55q6 9 15 21t40 44q13 -52 16.5 -77t10.5 -49
q16 -74 32 -138q6 -28 24.5 -39t53.5 -11q31 0 45 7q13 5 37 33l-41 157q-3 12 -4 19t-2 11q-4 13 -5.5 23t-1.5 17q0 25 20 53q15 24 52 65q13 -40 17 -56.5t8.5 -36t10 -45.5t11.5 -61l28 -102q11 -41 30 -61q23 -22 64 -22q12 0 21 9t11 25l-40 163q-2 13 -2.5 17.5
t-3.5 6.5q-5 32 -5 45q0 21 18 53q18 25 58 72q5 -41 11.5 -64.5t16.5 -64.5q12 -50 22 -87.5t16 -63.5q11 -44 14 -73.5t3 -44.5q0 -12 -0.5 -23.5zM605 233q-48 -15 -74 -31q-37 -22 -47 -35q-5 2 13.5 0t51.5 -2q37 0 65 26zM1315 748q69 -397 4 -681q-19 -26 -43 1
q24 244 -59 578q43 45 98 102z" />
    <glyph glyph-name="uniFE80" unicode="&#x621;" horiz-adv-x="495" arabic-form="isolated" 
d="M381 621q37 20 50.5 -13t-18.5 -55q-117 -70 -237 -132q-56 -20 -32 34q12 38 51 68q31 6 17 2q-29 14 -25 82q2 78 64.5 95.5t134.5 -22.5q16 -25 -5 -43h-91q-24 -3 -31 -38q-2 -14 13.5 -24.5t29.5 -8.5q42 31 79 55z" />
    <glyph glyph-name="uniFE89" unicode="&#x626;" horiz-adv-x="726" arabic-form="isolated" 
d="M665 44q-35 -100 -126 -152.5t-207 -52.5h-67q-93 -3 -168 40.5t-91 144.5q-6 152 111 248q59 21 36 -37q-67 -80 -59 -179q23 -109 134 -114h117q138 0 221 82q16 18 10.5 36.5t-33.5 21.5h-59q-83 1 -108.5 49t-17.5 106q49 175 220 195q74 0 116.5 -46t-18.5 -59h-104
q-95 7 -142 -94q-11 -41 43 -49h89q45 -2 81.5 -42t21.5 -98zM612 621q37 20 50.5 -13t-19.5 -55q-116 -70 -237 -132q-55 -20 -32 34q12 38 52 68q30 6 17 2q-29 14 -26 82q3 78 65 95.5t135 -22.5q16 -25 -5 -43h-92q-23 -3 -31 -38q-1 -14 14.5 -24.5t28.5 -8.5
q43 31 80 55z" />
    <glyph glyph-name="uniFE8A" unicode="&#x626;" horiz-adv-x="677" arabic-form="final" 
d="M33 -95q-4 129 47 245q35 26 41 -15q-15 -92 -14 -189q7 -103 118 -99h117q112 2 163 68q12 16 13 32.5t-8 16.5h-70q-66 3 -75 49t20 92q52 76 144 79h166v-102h-209q-6 -2 -6 -10t5 -9h36q52 -2 69 -37.5t13 -76.5q-15 -99 -97.5 -151t-181.5 -52h-121q-72 0 -120 43.5
t-50 115.5zM591 431q38 20 51.5 -13t-19.5 -55q-117 -70 -237 -132q-56 -20 -32 34q12 38 52 68q30 6 16 2q-28 14 -25 82q2 78 64.5 95.5t135.5 -22.5q16 -25 -5 -43h-92q-23 -3 -31 -38q-1 -14 14 -24.5t29 -8.5q43 31 79 55z" />
    <glyph glyph-name="uniFE8B" unicode="&#x626;" horiz-adv-x="342" arabic-form="initial" 
d="M248 416q60 -97 56 -193q-9 -140 -134 -141h-170v102h185q51 3 48 44.5t-66 87.5zM281 621q38 20 51 -13t-19 -55q-117 -70 -237 -132q-56 -20 -32 34q12 38 52 68q30 6 16 2q-29 14 -25 82q2 78 64.5 95.5t135.5 -22.5q16 -25 -5 -43h-92q-24 -3 -31 -38
q-1 -14 14 -24.5t29 -8.5q43 31 79 55z" />
    <glyph glyph-name="uniFE8C" unicode="&#x626;" horiz-adv-x="386" arabic-form="medial" 
d="M180 162q11 -7 17 4q-28 -81 -131 -84h-66v102h86q35 1 59.5 36t20.5 87q20 28 43 1q-4 -116 99 -124h83v-102h-55q-124 -3 -156 80zM284 621q33 13 45.5 -12t-10.5 -47q-119 -79 -240 -141q-53 -22 -33 32q14 38 48 66q33 15 8 13q29 -14 2 6q-25 40 -13.5 94t78.5 78
q64 9 108 -21q56 -49 -22 -49q-4 3 -61 -3q-17 -2 -28 -18t-3 -31q4 -7 19.5 -14t20.5 -5q35 18 81 52z" />
    <glyph glyph-name="uniFE8D" unicode="&#x627;" horiz-adv-x="227" arabic-form="isolated" 
d="M143 856q70 -398 5 -780q-22 -25 -43 2q22 342 -59 677q43 43 97 101z" />
    <glyph glyph-name="uniFE8E" unicode="&#x627;" horiz-adv-x="294" arabic-form="final" 
d="M167 265q-2 -78 66 -81h84v-102h-79q-142 9 -144 163v403q0 53 -35 120l150 120q-45 -182 -42 -329v-294z" />
    <glyph glyph-name="uniFE8F" unicode="&#x628;" horiz-adv-x="748" arabic-form="isolated" 
d="M92 290q7 -112 109 -106h269q43 -1 105 16.5t81 53.5q6 18 -9 47t-41 58l85 76q53 -72 57 -151q-6 -83 -89 -141.5t-175 -60.5h-293q-135 3 -160 143q-8 89 34 171q22 24 42 -6q-15 -69 -15 -100zM290 -74l61 77l66 -77l-66 -88z" />
    <glyph glyph-name="uniFE90" unicode="&#x628;" horiz-adv-x="886" arabic-form="final" 
d="M684 268q20 18 40 -4q12 -69 77 -80h104v-102h-106q-96 11 -113 73q-50 -46 -135 -82.5t-161 -36.5h-90q-203 1 -260 113q-40 108 34 204q28 22 42 -11q-22 -58 -16 -114q2 -47 59.5 -69t133.5 -20h113q149 -8 278 129zM284 -103l61 82l64 -82l-64 -88z" />
    <glyph glyph-name="uniFE91" unicode="&#x628;" horiz-adv-x="380" arabic-form="initial" 
d="M248 425q67 -108 56 -212q-9 -120 -141 -131h-163v102h180q50 4 50 50t-67 90q41 51 85 101zM185 -4l62 -79l-62 -84l-62 84z" />
    <glyph glyph-name="uniFE92" unicode="&#x628;" horiz-adv-x="393" arabic-form="medial" 
d="M171 334q24 25 44 -1q9 -56 37.5 -101t73.5 -48h84v-102h-99q-93 10 -108 58q-12 -48 -118 -58h-85v102h68q42 3 69 47t34 103zM201 3l64 -77l-64 -88l-62 88z" />
    <glyph glyph-name="uniFE95" unicode="&#x62a;" horiz-adv-x="751" arabic-form="isolated" 
d="M369 434l-59 -88l-64 88l64 77zM514 434l-59 -88l-65 88l65 77zM30 250q-2 56 34 144q34 22 42 -10q-15 -60 -15 -103q4 -47 42.5 -72t93.5 -25h242q52 -1 114 19t74 53q3 51 -52 102l84 77q66 -84 58 -169q-23 -81 -98.5 -132t-167.5 -52h-283q-159 8 -168 168z" />
    <glyph glyph-name="uniFE96" unicode="&#x62a;" horiz-adv-x="886" arabic-form="final" 
d="M238 433l64 78l62 -78l-62 -84zM387 433l65 78l59 -78l-59 -84zM684 268q20 18 40 -4q12 -69 77 -80h104v-102h-106q-96 11 -113 73q-50 -46 -135 -82.5t-161 -36.5h-90q-203 1 -260 113q-40 108 34 204q28 22 42 -11q-22 -58 -16 -114q2 -47 59.5 -69t133.5 -20h113
q149 -8 278 129z" />
    <glyph glyph-name="uniFE97" unicode="&#x62a;" horiz-adv-x="384" arabic-form="initial" 
d="M362 597l-63 -86l-60 86l60 83zM218 597l-65 -86l-58 86l58 83zM248 425q67 -108 56 -212q-9 -120 -141 -131h-163v102h180q50 4 50 50t-67 90q41 51 85 101z" />
    <glyph glyph-name="uniFE98" unicode="&#x62a;" horiz-adv-x="385" arabic-form="medial" 
d="M192 548l-63 -86l-64 86l64 83zM337 548l-64 -86l-64 86l64 82zM171 336q24 25 44 -1q9 -56 37.5 -102t73.5 -49h71v-102h-86q-93 11 -108 59q-12 -48 -118 -59h-85v102h68q42 3 69 48t34 104z" />
    <glyph glyph-name="uniFE9D" unicode="&#x62c;" horiz-adv-x="678" arabic-form="isolated" 
d="M462 209q-135 -42 -243.5 -129t-110.5 -200q8 -108 88.5 -186t190.5 -94q95 -8 197 59q56 9 32 -37q-105 -111 -253 -111q-154 9 -241.5 113.5t-88.5 234.5q6 159 107 259t191 135q-43 18 -142 16q-67 -38 -96 -107q-28 -17 -45 16q14 65 37 118.5t85 74.5
q62 -4 137 -23.5t146 -21.5h169l-19 -102q-77 -9 -141 -15zM435 -49l-64 -87l-64 87l64 81z" />
    <glyph glyph-name="uniFE9E" unicode="&#x62c;" horiz-adv-x="676" arabic-form="final" 
d="M584 240q-65 -15 -114 -25q-2 -27 48 -31h177v-102h-179q-111 10 -112 105q-96 -53 -201 -132q-111 -84 -94 -219q10 -96 75.5 -152t155.5 -68q149 -15 268 86q58 22 35 -34q-104 -121 -259 -151q-194 -25 -303 151q-53 86 -51 188.5t51 188.5q50 81 128 130.5t134 75.5
q-27 10 -94 18q-68 13 -100 -37q-30 -44 -64 -92q-35 -11 -39 29q27 79 60 151q35 65 126 55q136 -34 269 -47q45 5 102 18q-3 -59 -19 -106zM430 -95l-61 -79l-63 79l63 88z" />
    <glyph glyph-name="uniFE9F" unicode="&#x62c;" horiz-adv-x="682" arabic-form="initial" 
d="M349 -74l-65 -86l-58 86l58 80zM354 125q-50 -24 -110 -35t-99 -8h-145v102h212q90 -2 153 36q-73 16 -181 66q-36 8 -77 -43q-37 -7 -42 30q38 56 78 95q26 31 63 18q67 -44 144 -72.5t141 -29.5h134q-15 -60 -38 -101h-61q-81 -10 -172 -58z" />
    <glyph glyph-name="uniFEA0" unicode="&#x62c;" horiz-adv-x="624" arabic-form="medial" 
d="M318 -74l-61 -86l-64 86l64 77zM286 256q-37 12 -121 43q-33 11 -55 -10q-21 -23 -47 -62q-37 -11 -39 32q24 70 64 123q56 51 133 3q125 -51 225 -57h134q-6 -48 -20 -84q-67 -11 -111 -17v3q1 -44 47 -46h146v-102h-162q-87 -5 -90 108v15q-72 -28 -179 -79
q-86 -40 -163 -44h-48v102h83q60 7 122 35.5t81 36.5z" />
    <glyph glyph-name="uniFEA1" unicode="&#x62d;" horiz-adv-x="678" arabic-form="isolated" 
d="M462 209q-135 -42 -243.5 -129t-110.5 -200q8 -108 88.5 -186t190.5 -94q95 -8 197 59q56 9 32 -37q-105 -111 -253 -111q-154 9 -241.5 113.5t-88.5 234.5q6 159 107 259t191 135q-43 18 -142 16q-67 -38 -96 -107q-28 -17 -45 16q14 65 37 118.5t85 74.5
q62 -4 137 -23.5t146 -21.5h169l-19 -102q-77 -9 -141 -15z" />
    <glyph glyph-name="uniFEA2" unicode="&#x62d;" horiz-adv-x="676" arabic-form="final" 
d="M584 240q-65 -15 -114 -25q-2 -27 48 -31h177v-102h-179q-111 10 -112 105q-96 -53 -201 -132q-111 -84 -94 -219q10 -96 75.5 -152t155.5 -68q149 -15 268 86q58 22 35 -34q-104 -121 -259 -151q-194 -25 -303 151q-53 86 -51 188.5t51 188.5q50 81 128 130.5t134 75.5
q-27 10 -94 18q-68 13 -100 -37q-30 -44 -64 -92q-35 -11 -39 29q27 79 60 151q35 65 126 55q136 -34 269 -47q45 5 102 18q-3 -59 -19 -106z" />
    <glyph glyph-name="uniFEA3" unicode="&#x62d;" horiz-adv-x="634" arabic-form="initial" 
d="M354 125q-50 -24 -110 -35t-99 -8h-145v102h212q90 -2 153 36q-73 16 -181 66q-36 8 -77 -43q-37 -7 -42 30q38 56 78 95q26 31 63 18q67 -44 144 -72.5t141 -29.5h134q-15 -60 -38 -101h-61q-81 -10 -172 -58z" />
    <glyph glyph-name="uniFEA4" unicode="&#x62d;" horiz-adv-x="624" arabic-form="medial" 
d="M286 256q-37 12 -121 43q-33 11 -55 -10q-21 -23 -47 -62q-37 -11 -39 32q24 70 64 123q56 51 133 3q125 -51 225 -57h134q-6 -48 -20 -84q-67 -11 -111 -17v3q1 -44 47 -46h146v-102h-162q-87 -5 -90 108v15q-72 -28 -179 -79q-86 -40 -163 -44h-48v102h83
q60 7 122 35.5t81 36.5z" />
    <glyph glyph-name="uniFEA5" unicode="&#x62e;" horiz-adv-x="675" arabic-form="isolated" 
d="M457 201q-143 -42 -252 -142t-101 -198q47 -224 272 -266q35 -5 95 12t110 45q56 17 32 -38q-102 -109 -263 -109q-142 5 -227 105t-94 246q-1 136 102.5 244.5t192.5 143.5q-40 14 -137 17q-71 -34 -89 -110q-22 -21 -40 15q3 93 41 148t88 50q153 -38 264 -46h167
l-18 -100q-74 -5 -143 -17zM342 521l-63 -82l-62 82l62 86z" />
    <glyph glyph-name="uniFEA6" unicode="&#x62e;" horiz-adv-x="680" arabic-form="final" 
d="M391 545l-63 -83l-64 83l64 86zM587 240q-65 -15 -114 -25q-2 -27 48 -31h177v-102h-179q-111 10 -112 105q-96 -53 -201 -132q-111 -84 -94 -219q10 -96 75.5 -152t155.5 -68q149 -15 268 86q58 22 35 -34q-104 -121 -259 -151q-194 -25 -303 151q-53 86 -51 188.5
t51 188.5q50 81 128 130.5t134 75.5q-27 10 -94 18q-68 13 -100 -37q-30 -44 -64 -92q-35 -11 -39 29q27 79 60 151q35 65 126 55q136 -34 269 -47q45 5 102 18q-3 -59 -19 -106z" />
    <glyph glyph-name="uniFEA7" unicode="&#x62e;" horiz-adv-x="684" arabic-form="initial" 
d="M247 595l-62 -86l-62 86l62 82zM354 125q-50 -24 -110 -35t-99 -8h-145v102h212q90 -2 153 36q-73 16 -181 66q-36 8 -77 -43q-37 -7 -42 30q38 56 78 95q26 31 63 18q67 -44 144 -72.5t141 -29.5h134q-15 -60 -38 -101h-61q-81 -9 -172 -58z" />
    <glyph glyph-name="uniFEA8" unicode="&#x62e;" horiz-adv-x="624" arabic-form="medial" 
d="M292 548l-64 -87l-62 87l62 83zM288 255q-39 13 -123 44q-33 11 -55 -10q-21 -23 -47 -62q-37 -11 -39 32q24 70 64 123q56 51 133 3q125 -51 225 -57h134q-6 -48 -20 -84q-67 -11 -111 -17v-5q1 -35 47 -38h146v-102h-162q-86 0 -90 100v23q-72 -28 -178 -78
q-72 -41 -142 -45h-70v102h84q54 3 118 32.5t86 38.5z" />
    <glyph glyph-name="uniFEA9" unicode="&#x62f;" horiz-adv-x="534" arabic-form="isolated" 
d="M473 223q-15 -139 -179 -141h-167l-41 102h196q60 0 92.5 22.5t8.5 52.5q-71 78 -182 149l85 98q72 -69 131 -129t56 -154z" />
    <glyph glyph-name="uniFEAA" unicode="&#x62f;" horiz-adv-x="599" arabic-form="final" 
d="M482 206q15 -22 42 -22h95v-102h-121q-44 1 -78 41.5t-41 59.5q-18 -26 -62 -70q-47 -45 -112 -45q-39 2 -83.5 46t-62.5 111q-2 59 41 28q24 -44 57 -72q38 -28 87 1q75 35 100 81q-56 72 -128 153l79 120q88 -179 187 -330z" />
    <glyph glyph-name="uniFEAD" unicode="&#x631;" horiz-adv-x="400" arabic-form="isolated" 
d="M351 41q-5 -125 -84 -224t-175 -105h-151q155 87 241 175t94 155q0 29 -24.5 51.5t-66.5 48.5l60 116q106 -93 106 -217z" />
    <glyph glyph-name="uniFEAE" unicode="&#x631;" horiz-adv-x="448" arabic-form="final" 
d="M249 -25q69 104 -69 174l66 118q53 -50 81 -83h143v-102h-121q-12 -181 -137 -313q-44 -50 -125 -50h-143q200 120 305 256z" />
    <glyph glyph-name="uniFEAF" unicode="&#x632;" horiz-adv-x="391" arabic-form="isolated" 
d="M209 442l-61 87l61 84l62 -84zM330 48q-2 -132 -98.5 -238t-190.5 -108h-100q219 151 310 321q5 15 -26 56.5t-79 82.5l72 99q105 -99 112 -213z" />
    <glyph glyph-name="uniFEB0" unicode="&#x632;" horiz-adv-x="419" arabic-form="final" 
d="M188 462l-62 86l62 83l64 -83zM221 -6q62 85 -81 186l79 84q51 -47 80 -80h143v-102h-119q-6 -187 -138 -301q-53 -51 -141 -62h-101q170 124 278 275z" />
    <glyph glyph-name="uniFEB1" unicode="&#x633;" horiz-adv-x="1085" arabic-form="isolated" 
d="M111 -34q0 -51 34.5 -88t76.5 -38h72q111 3 191 62.5t78 112.5q-8 68 -96 142l65 82q69 -71 145 -65q79 7 89 92q24 22 44 0q23 -105 114 -96q39 4 43.5 50.5t-64.5 90.5l81 105q64 -97 59 -187q-2 -97 -47.5 -129t-119.5 -30q-72 8 -78 24q-5 -19 -97 -24q-95 4 -96 67
q31 -65 30 -138q-20 -127 -132.5 -195.5t-200.5 -68.5h-92q-68 4 -128 57t-61 120q4 113 65 213q27 9 40 -19q-13 -81 -15 -140z" />
    <glyph glyph-name="uniFEB2" unicode="&#x633;" horiz-adv-x="1079" arabic-form="final" 
d="M99 -83q20 -33 81.5 -50.5t125.5 -17.5q153 10 223 101q47 53 10 112q-30 41 -81 91l61 98q70 -69 138 -67q65 12 69 92q23 20 46 0q3 -89 69 -92q55 15 58 93q28 18 47 -1q13 -80 69 -92h81v-102h-84q-67 5 -79 33q-14 -36 -89 -33q-81 8 -89 31q-10 -23 -69 -31
q-52 -11 -72 3q46 -121 -29.5 -212.5t-249.5 -121.5q-109 -18 -211 26q-124 58 -111 191q12 82 61 165q37 44 40 -23q-17 -54 -26.5 -102.5t11.5 -90.5z" />
    <glyph glyph-name="uniFEB3" unicode="&#x633;" horiz-adv-x="680" arabic-form="initial" 
d="M171 275q16 22 40 3q15 -34 30.5 -64.5t40.5 -31.5q55 12 63 92q14 24 42 4q15 -49 41 -85q28 -16 64.5 -11.5t41.5 32.5q2 64 -64 109q36 51 81 102q63 -106 55 -207q-15 -133 -130 -136q-97 9 -103 66q-8 -64 -76 -66q-105 1 -103 61q5 -56 -69 -61h-125v102h90
q71 13 81 91z" />
    <glyph glyph-name="uniFEB4" unicode="&#x633;" horiz-adv-x="630" arabic-form="medial" 
d="M219 187q56 10 66 92q22 21 47 1q10 -83 71 -93q51 20 58 89q14 27 44 5q7 -41 26 -68.5t55 -28.5h56v-102h-76q-73 8 -78 47q-11 -51 -91 -45q-70 -1 -81 52q-13 -53 -85 -54q-60 -9 -85 56q-7 -48 -83 -56h-63v102h41q26 1 45.5 28.5t24.5 65.5q17 23 44 3
q10 -42 24.5 -69.5t39.5 -24.5z" />
    <glyph glyph-name="uniFEB5" unicode="&#x634;" horiz-adv-x="1104" arabic-form="isolated" 
d="M799 556l-61 -83l-63 83l63 78zM883 634l61 -78l-61 -83l-64 83zM746 655l63 87l62 -87l-62 -83zM111 -44q0 -52 34.5 -89t76.5 -39h72q111 4 191 63t78 114q-8 67 -96 140l65 83q69 -70 145 -66q79 7 89 93q24 25 44 0q23 -104 114 -95q39 3 43.5 50.5t-64.5 91.5
l81 104q64 -98 59 -188q-2 -96 -47.5 -128.5t-119.5 -29.5q-72 9 -78 24q-5 -22 -97 -24q-95 3 -96 66q31 -65 30 -138q-20 -126 -132.5 -194.5t-200.5 -68.5h-92q-68 4 -128 57.5t-61 118.5q4 115 65 212q27 12 39 -18q-12 -79 -14 -139z" />
    <glyph glyph-name="uniFEB6" unicode="&#x634;" horiz-adv-x="1088" arabic-form="final" 
d="M870 650l-61 -82l-63 82l63 79zM795 548l-58 -87l-65 87l65 83zM940 548l-60 -87l-63 87l63 83zM107 -83q20 -33 81.5 -50.5t125.5 -17.5q153 10 223 101q47 53 10 112q-30 41 -81 91l61 98q70 -69 138 -67q65 12 69 92q23 20 46 0q3 -89 69 -92q55 15 58 93q28 18 47 -1
q13 -80 69 -92h81v-102h-84q-67 5 -79 33q-14 -36 -89 -33q-81 8 -89 31q-10 -23 -69 -31q-52 -11 -72 3q46 -121 -29.5 -212.5t-249.5 -121.5q-109 -18 -211 26q-124 58 -111 191q12 82 61 165q37 44 40 -23q-17 -54 -26.5 -102.5t11.5 -90.5z" />
    <glyph glyph-name="uniFEB7" unicode="&#x634;" horiz-adv-x="682" arabic-form="initial" 
d="M374 594l-63 83l63 85l63 -85zM367 577l-69 -82l-60 82l60 80zM445 658l65 -81l-65 -83l-58 83zM171 275q16 22 40 3q15 -34 30.5 -64.5t40.5 -31.5q55 12 63 92q14 24 42 4q15 -49 41 -85q28 -16 64.5 -11.5t41.5 32.5q2 64 -64 109q36 51 81 102q63 -106 55 -207
q-15 -133 -130 -136q-97 9 -103 66q-8 -64 -76 -66q-105 1 -103 61q5 -56 -69 -61h-125v102h90q71 13 81 91z" />
    <glyph glyph-name="uniFEB8" unicode="&#x634;" horiz-adv-x="630" arabic-form="medial" 
d="M318 556l-64 84l64 79l61 -79zM303 537l-58 -86l-65 86l65 83zM449 537l-59 -85l-66 85l66 83zM219 187q56 10 66 92q22 21 47 1q10 -83 71 -93q51 20 58 89q14 27 44 5q7 -41 26 -68.5t55 -28.5h56v-102h-76q-73 8 -78 47q-11 -51 -91 -45q-70 -1 -81 52
q-13 -53 -85 -54q-60 -9 -85 56q-7 -48 -83 -56h-63v102h41q26 1 45.5 28.5t24.5 65.5q17 23 44 3q10 -42 24.5 -69.5t39.5 -24.5z" />
    <glyph glyph-name="uniFEC9" unicode="&#x639;" horiz-adv-x="530" arabic-form="isolated" 
d="M463 338q15 -24 -8 -40q-92 8 -180 29q-20 3 -49.5 -11.5t-34.5 -34.5q12 -33 54.5 -64.5t84.5 -32.5h159l-41 -102h-110q-93 -3 -170.5 -69t-79.5 -170q8 -93 85.5 -164.5t144.5 -75.5q85 0 180 50q40 10 27 -28q-94 -101 -233 -107q-269 46 -292 300q25 255 200 311
q-12 8 -49 39.5t-33 102.5q12 73 65 117t111 44q106 -12 169 -94z" />
    <glyph glyph-name="uniFECA" unicode="&#x639;" horiz-adv-x="577" arabic-form="final" 
d="M324 134q-83 -47 -147 -123t-67 -176q3 -72 73.5 -134.5t174.5 -82.5q76 -7 164 37q33 -11 20 -46q-103 -88 -222 -91q-72 0 -135.5 44t-101.5 106q-83 140 -34 288q74 155 209 242q-36 34 -120 60v80q84 26 155 35h63q61 -6 147 -35v-95q-58 -22 -82 -47q11 -11 43 -12
h131v-102h-158q-69 4 -113 52zM342 259q27 20 33 26h-71q7 -5 38 -26z" />
    <glyph glyph-name="uniFECB" unicode="&#x639;" horiz-adv-x="393" arabic-form="initial" 
d="M60 261q-17 70 22.5 117t102.5 50q115 -3 190 -95q2 -30 -23 -35q-119 19 -183 29q-31 0 -37 -21t8 -39q61 -66 134 -85q48 5 119 19q-6 -61 -22 -107q-62 -8 -120.5 -10t-84.5 -2h-166v102h94q-21 23 -34 77z" />
    <glyph glyph-name="uniFECC" unicode="&#x639;" horiz-adv-x="481" arabic-form="medial" 
d="M258 137q-75 -46 -163 -55h-95v102h110q43 0 60 13q-34 21 -115 49v77q70 32 130 34h108q78 2 127 -36v-74q-57 -24 -78 -46q24 -13 69 -17h82v-102h-81q-80 3 -154 55zM312 321q-15 -29 -10.5 -12.5t-43.5 18.5h-77q-23 -28 -25 -2q47 -47 87 -89q36 32 69 85zM61 326
l38 26l48 24l37 15l22 8l25 3l27 -1l23 -7l22 -12l25 -12l64 -33l7 -12l9 2z" />
    <glyph glyph-name="uniFECD" unicode="&#x63a;" horiz-adv-x="530" arabic-form="isolated" 
d="M371 593l-65 -86l-58 86l59 82zM463 338q15 -24 -8 -40q-92 8 -180 29q-20 3 -49.5 -11.5t-34.5 -34.5q12 -33 54.5 -64.5t84.5 -32.5h159l-41 -102h-110q-93 -3 -170.5 -69t-79.5 -170q8 -93 85.5 -164.5t144.5 -75.5q85 0 180 50q40 10 27 -28q-94 -101 -233 -107
q-269 46 -292 300q25 255 200 311q-12 8 -49 39.5t-33 102.5q12 73 65 117t111 44q106 -12 169 -94z" />
    <glyph glyph-name="uniFECE" unicode="&#x63a;" horiz-adv-x="577" arabic-form="final" 
d="M324 134q-83 -47 -147 -123t-67 -176q3 -72 73.5 -134.5t174.5 -82.5q76 -7 164 37q33 -11 20 -46q-103 -88 -222 -91q-72 0 -135.5 44t-101.5 106q-83 140 -34 288q74 155 209 242q-36 34 -120 60v80q84 26 155 35h63q61 -6 147 -35v-95q-58 -22 -82 -47q11 -11 43 -12
h131v-102h-158q-69 4 -113 52zM342 259q27 20 33 26h-71q7 -5 38 -26zM390 545l-62 -83l-64 83l64 86z" />
    <glyph glyph-name="uniFECF" unicode="&#x63a;" horiz-adv-x="429" arabic-form="initial" 
d="M278 606l-65 -87l-58 87l58 83zM60 261q-17 70 22.5 117t102.5 50q115 -3 190 -95q2 -30 -23 -35q-119 19 -183 29q-31 0 -37 -21t8 -39q61 -66 134 -85q48 5 119 19q-6 -61 -22 -107q-62 -8 -120.5 -10t-84.5 -2h-166v102h94q-21 23 -34 77z" />
    <glyph glyph-name="uniFED0" unicode="&#x63a;" horiz-adv-x="481" arabic-form="medial" 
d="M292 548l-64 -87l-62 87l62 83zM258 137q-75 -46 -163 -55h-95v102h110q43 0 60 13q-34 21 -115 49v77q70 32 130 34h108q77 -2 127 -36v-74q-57 -24 -78 -46q24 -13 69 -17h82v-102h-81q-80 3 -154 55zM307 279q-10 -12 -17.5 -10t-17.5 4h-50q-22 -3 -23 6
q32 -18 60 -35q25 13 48 35z" />
    <glyph glyph-name="uniFED1" unicode="&#x641;" horiz-adv-x="655" arabic-form="isolated" 
d="M33 37q2 103 48 199q23 20 41 -5q-12 -79 -14 -138q5 -63 66 -109t105 -48h88q168 6 204 146h-100q-74 2 -85 80q-4 64 36.5 132t99.5 63q73 -18 104 -93.5t21 -167.5q-3 -115 -79 -187t-192 -74h-106q-89 5 -161 64t-76 138zM576 178q-13 59 -58 79q-13 1 -33 -20.5
t-28 -43.5q-3 -8 15 -9h108q-6 -2 -4 -6zM515 462l-63 83l63 84l62 -84z" />
    <glyph glyph-name="uniFED2" unicode="&#x641;" horiz-adv-x="699" arabic-form="final" 
d="M480 462l-63 83l63 84l60 -84zM0 37q2 103 48 199q23 20 41 -5q-12 -79 -14 -138q5 -63 66 -109t105 -48h88q168 6 204 146h-100q-74 2 -85 80q-4 64 36.5 132t99.5 63q72 -18 103.5 -82.5t29.5 -90.5h96v-102h-98q-7 -101 -84 -173t-193 -74h-106q-89 5 -161 64t-76 138
zM543 181q-13 58 -58 76q-13 1 -33 -20t-28 -42q-4 -9 15 -11h108q-5 -2 -4 -3z" />
    <glyph glyph-name="uniFED3" unicode="&#x641;" horiz-adv-x="427" arabic-form="initial" 
d="M278 608l-67 -86l-56 86l56 83zM192 242q-78 0 -95.5 42t-12.5 85q14 114 113 136q78 5 113 -61.5t35 -132.5v-44q-3 -82 -57.5 -133t-121.5 -52h-166v102h177q90 8 91 58h-76zM214 420q-42 -11 -56 -51q-8 -20 17 -25h89q10 2 -12 39t-38 37z" />
    <glyph glyph-name="uniFED4" unicode="&#x641;" horiz-adv-x="360" arabic-form="medial" 
d="M185 130q-39 -47 -117 -48h-68v102h81q29 1 39 11q-43 39 -54 103q-4 69 32.5 122.5t95.5 55.5q60 -5 88 -45t32 -88q5 -92 -52 -150q4 -7 30 -9h87v-102h-88q-68 2 -106 48zM242 336q-4 48 -56.5 36.5t-46.5 -46.5q24 -62 58 -81q41 38 45 91zM199 659l64 -82l-64 -82
l-64 82z" />
    <glyph glyph-name="uniFED5" unicode="&#x642;" horiz-adv-x="713" arabic-form="isolated" 
d="M511 545l60 84l63 -84l-63 -83zM428 462l-62 83l62 84l62 -84zM33 37q2 103 48 199q23 20 41 -5q-12 -79 -14 -138q5 -63 66 -109t105 -48h88q168 6 204 146h-100q-74 2 -85 80q-4 64 36.5 132t99.5 63q73 -18 104 -93.5t21 -167.5q-3 -115 -79 -187t-192 -74h-106
q-89 5 -161 64t-76 138zM575 178q-12 59 -57 79q-13 1 -33 -20.5t-28 -44.5q-3 -6 15 -8h110q-8 0 -7 -6z" />
    <glyph glyph-name="uniFED6" unicode="&#x642;" horiz-adv-x="699" arabic-form="final" 
d="M407 462l-64 83l64 84l60 -84zM490 545l63 84l62 -84l-62 -83zM0 37q2 103 48 199q23 20 41 -5q-12 -79 -14 -138q5 -63 66 -109t105 -48h88q168 6 204 146h-100q-74 2 -85 80q-4 64 36.5 132t99.5 63q72 -18 103.5 -82.5t29.5 -90.5h96v-102h-98q-7 -101 -84 -173
t-193 -74h-106q-89 5 -161 64t-76 138zM543 181q-13 58 -58 76q-13 1 -33 -20t-28 -42q-4 -9 15 -11h108q-5 -2 -4 -3z" />
    <glyph glyph-name="uniFED7" unicode="&#x642;" horiz-adv-x="431" arabic-form="initial" 
d="M192 608l-68 -85l-62 85l62 82zM337 608l-64 -85l-64 85l64 82zM214 420q-42 -11 -56 -51q-8 -20 17 -25h89q10 2 -12 39t-38 37zM192 242q-78 0 -95.5 42t-12.5 85q14 114 113 136q78 5 113 -61.5t35 -132.5v-44q-3 -82 -57.5 -133t-121.5 -52h-166v102h177q90 8 91 58
h-76z" />
    <glyph glyph-name="uniFED8" unicode="&#x642;" horiz-adv-x="360" arabic-form="medial" 
d="M125 494l-63 83l63 83l64 -83zM273 659l64 -82l-64 -82l-64 82zM185 130q-39 -47 -117 -48h-68v102h81q29 1 39 11q-43 39 -54 103q-4 69 32.5 122.5t95.5 55.5q60 -5 88 -45t32 -88q5 -92 -52 -150q4 -7 30 -9h87v-102h-88q-68 2 -106 48zM242 336q-4 48 -56.5 36.5
t-46.5 -46.5q24 -62 58 -81q41 38 45 91z" />
    <glyph glyph-name="uniFED9" unicode="&#x643;" horiz-adv-x="692" arabic-form="isolated" 
d="M290 62q-64 0 -133.5 40t-111.5 115q-20 60 37 31q82 -84 198 -84h141q139 -9 146 122v300q3 93 -30 190l60 81l96 -99l-38 -35v-419q-2 -112 -79 -176.5t-193 -65.5h-93zM316 517q-10 -4 -9.5 -11t1.5 -7q50 -5 101.5 -15t59.5 -62q-7 -106 -160 -114h-124
q-41 3 -42 35.5t37 38.5h112q38 3 48.5 14.5t1.5 13.5q-42 6 -96 24t-57 81q25 68 108.5 84t172.5 15q31 -12 27.5 -43.5t-39.5 -31.5q-69 -2 -142 -22z" />
    <glyph glyph-name="uniFEDA" unicode="&#x643;" horiz-adv-x="927" arabic-form="final" 
d="M712 177q-63 -98 -238 -95h-260q-193 3 -192 180q8 62 49 133q18 10 43 -4q-18 -65 -17 -122q1 -50 41 -69t103 -18h233q93 -1 153.5 35.5t62.5 118.5q2 155 -12 341q2 59 -52 124l139 59v-570q0 -45 25.5 -75t62.5 -31h93v-102h-97q-119 12 -137 95zM423 412q14 13 4 18
q-62 13 -117 27q-52 20 -52.5 73.5t52.5 73.5q115 28 236 30q32 -4 32 -36t-32 -36q-88 4 -166 -30q-13 -10 -4 -13q55 -9 114 -17q49 -10 57.5 -56t-33.5 -86q-79 -45 -200 -48h-74q-34 3 -34 35t33 40h62q81 0 122 25z" />
    <glyph glyph-name="uniFEDB" unicode="&#x643;" horiz-adv-x="532" arabic-form="initial" 
d="M433 287q11 -75 -31 -139t-136 -66h-266v102h289q49 3 65.5 35t-7.5 71q-91 132 -238 219l19 119l405 235v-93l-337 -195q69 -57 145 -136t92 -152z" />
    <glyph glyph-name="uniFEDC" unicode="&#x643;" horiz-adv-x="555" arabic-form="medial" 
d="M260 306q-72 127 -206 203l16 119l423 234v-92l-338 -195q145 -120 219 -317q19 -65 85 -74h115v-102h-136q-53 1 -84.5 35t-34.5 41q-33 -74 -161 -76h-158v102h152q64 1 99.5 36t8.5 86z" />
    <glyph glyph-name="uniFEDD" unicode="&#x644;" horiz-adv-x="623" arabic-form="isolated" 
d="M293 -209q-127 3 -186 57.5t-69 144.5q-13 97 47 213q35 17 41 -16q-18 -82 -15 -159q34 -149 186 -139q176 6 177 130v536q-1 109 -30 224l79 79l75 -121l-51 -17v-717q-4 -96 -83.5 -155.5t-170.5 -59.5z" />
    <glyph glyph-name="uniFEDE" unicode="&#x644;" horiz-adv-x="716" arabic-form="final" 
d="M571 -21q-4 -129 -78 -207.5t-200 -81.5h-56q-110 5 -166 81t-40 186q11 73 49 137q31 17 41 -19q-20 -69 -15 -149q5 -126 132 -132h70q184 13 190 223v223q-6 238 -31 463q-5 44 -31 99l121 59v-561q-1 -46 16.5 -80.5t55.5 -35.5h106v-102h-103q-63 2 -61 -2v-101z
" />
    <glyph glyph-name="uniFEDF" unicode="&#x644;" horiz-adv-x="295" arabic-form="initial" 
d="M0 82v102h68q59 -1 71 68v338q0 105 -27 211l77 58l60 -101l-35 -17v-503q-1 -62 -40.5 -108.5t-113.5 -47.5h-60z" />
    <glyph glyph-name="uniFEE0" unicode="&#x644;" horiz-adv-x="380" arabic-form="medial" 
d="M229 272q-2 -77 90 -88h78v-102h-99q-88 9 -101 48q-15 -44 -113 -48h-84v102h98q56 9 60 70v250q-2 58 -11.5 130.5t-20.5 138.5l118 80q-3 -81 -9 -149t-6 -127v-305z" />
    <glyph glyph-name="uniFEE1" unicode="&#x645;" horiz-adv-x="498" arabic-form="isolated" 
d="M9 64q-9 41 2 79t66 41h38q18 45 54.5 102t84.5 58q89 -16 134 -111q20 -46 13 -97t-64 -54h-211q-31 -2 -30 -30q14 -259 30 -526q-24 -26 -46 -1q-34 275 -71 539zM245 229q-38 -25 -44 -45h72q22 2 7.5 25.5t-35.5 19.5z" />
    <glyph glyph-name="uniFEE2" unicode="&#x645;" horiz-adv-x="493" arabic-form="final" 
d="M371 29q-27 -39 -69.5 -52t-73.5 24q-33 32 -47 81h-14q-47 -8 -42 -58q12 -251 17 -510q-24 -24 -46 0q-34 283 -58 551q-17 102 71 119h62q10 44 61.5 68.5t94.5 -15.5q40 -52 88 -53h96v-102h-114q-4 -18 -26 -53zM285 82q34 5 43 34q-33 18 -65 53q-3 1 -6 -5
q-18 -74 28 -82z" />
    <glyph glyph-name="uniFEE3" unicode="&#x645;" horiz-adv-x="369" arabic-form="initial" 
d="M358 231q15 -69 -27.5 -115.5t-106.5 -32.5q-44 17 -67 44q-23 -40 -86 -45h-71v102h31q53 3 88 60t52 120q21 39 63 22q97 -53 124 -155zM271 208q-17 37 -48 62q-9 2 -19 -34q-12 -48 41 -52q34 -1 26 24z" />
    <glyph glyph-name="uniFEE4" unicode="&#x645;" horiz-adv-x="465" arabic-form="medial" 
d="M483 184v-102h-76q-40 1 -65 11q-16 -42 -57 -80q-55 -38 -110 0q-51 50 -66 96q-16 -19 -64 -27h-45v102h44q17 1 46.5 27t56.5 56q51 49 110 1q64 -79 140 -84h86zM190 184q1 -1 -10 -19t-2 -32q25 -31 48 -25t37 24l3 -4q-38 20 -76 56z" />
    <glyph glyph-name="uniFEE5" unicode="&#x646;" horiz-adv-x="746" arabic-form="isolated" 
d="M459 374l-63 -84l-65 84l65 84zM716 -4q-24 -139 -117 -208t-224 -69h-101q-81 0 -155.5 49.5t-88.5 141.5q-2 99 79 199q47 25 37 -31q-35 -66 -41 -131q1 -46 48 -84.5t110 -39.5h115q86 0 166 49t99 128q5 68 -93 122l59 116q123 -106 107 -242z" />
    <glyph glyph-name="uniFEE6" unicode="&#x646;" horiz-adv-x="727" arabic-form="final" 
d="M380 327l-66 -83l-59 83l59 86zM270 -254q-107 3 -188.5 69t-72.5 166q10 94 79 170q49 36 37 -33q-50 -75 -29 -159q17 -55 66.5 -82.5t104.5 -27.5h62q56 0 118.5 33.5t103.5 92.5q36 53 2 97q-38 31 -101 62l62 102q63 -46 110 -52h121v-102h-81q-47 0 25 -47
q-10 12 -55 -75q-49 -99 -141.5 -156.5t-171.5 -57.5h-51z" />
    <glyph glyph-name="uniFEE7" unicode="&#x646;" horiz-adv-x="401" arabic-form="initial" 
d="M232 247q-18 35 -68 78l85 102q41 -80 55 -140q16 -84 -14 -144t-122 -61h-168v102h182q67 5 50 63zM308 607l-62 -88l-63 87l57 83z" />
    <glyph glyph-name="uniFEE8" unicode="&#x646;" horiz-adv-x="386" arabic-form="medial" 
d="M170 335q25 26 45 0q8 -58 32 -103.5t67 -47.5h90v-102h-98q-95 9 -104 49q-9 -38 -120 -49h-82v102h70q45 3 71.5 47.5t28.5 103.5zM265 548l-64 -87l-62 87l62 83z" />
    <glyph glyph-name="uniFEE9" unicode="&#x647;" horiz-adv-x="407" arabic-form="isolated" 
d="M338 211q0 -62 -38 -103q-42 -38 -110 -38q-42 0 -89 17q-65 32 -65 93q0 45 31 86q6 7 25.5 26.5l42.5 42.5q4 -4 -1 2.5t-22 23.5l76 75q29 -19 52 -43q24 -26 42 -45t29 -33q27 -50 27 -104zM247 216q0 8 -6 19t-17 24q-21 25 -37 25q-12 0 -28 -34q-19 -32 -19 -39
q0 -15 12 -26q11 -9 28 -9h24q13 0 30 11q6 7 9.5 14t3.5 15z" />
    <glyph glyph-name="uniFEEA" unicode="&#x647;" horiz-adv-x="478" arabic-form="final" 
d="M411 215q3 -29 30 -31h77v-102h-91q-51 1 -71.5 29.5t-26.5 49.5q-49 -24 -125 -41q-67 -6 -93.5 55.5t13.5 107.5q83 74 168 110q-4 23 -12 74l95 42q19 -158 36 -294zM238 211q42 0 72 23q-7 52 -10 84q-35 -16 -81 -59q-32 -39 19 -48z" />
    <glyph glyph-name="uniFEED" unicode="&#x648;" horiz-adv-x="442" arabic-form="isolated" 
d="M394 83q-5 -132 -99.5 -236.5t-233.5 -142.5h-114q159 100 252 187t118 191h-141q-58 1 -77 44.5t-9 90.5q32 135 151 143q72 -6 111 -73.5t42 -119.5v-84zM227 273q-46 -17 -63 -65q-10 -20 13 -24h128q-6 23 -32.5 58t-45.5 31z" />
    <glyph glyph-name="uniFEEE" unicode="&#x648;" horiz-adv-x="479" arabic-form="final" 
d="M499 184v-102h-69q-11 -122 -101 -234.5t-222 -143.5h-107q138 102 232.5 184.5t120.5 193.5h-139q-53 1 -76 43.5t-9 90.5q41 136 138 144q66 -1 110.5 -57.5t51.5 -118.5h70zM271 273q-58 -18 -66 -66q-11 -20 15 -23h133q-5 -3 -33 42.5t-49 46.5z" />
    <glyph glyph-name="uniFEEF" unicode="&#x649;" horiz-adv-x="726" arabic-form="isolated" 
d="M665 44q-35 -100 -126 -152.5t-207 -52.5h-67q-93 -3 -168 40.5t-91 144.5q-6 152 111 248q59 21 36 -37q-67 -80 -59 -179q23 -109 134 -114h117q138 0 221 82q16 18 10.5 36.5t-33.5 21.5h-59q-83 1 -108.5 49t-17.5 106q49 175 220 195q74 0 116.5 -46t-18.5 -59h-104
q-95 7 -142 -94q-11 -41 43 -49h89q45 -2 81.5 -42t21.5 -98z" />
    <glyph glyph-name="uniFEF0" unicode="&#x649;" horiz-adv-x="677" arabic-form="final" 
d="M33 -95q-4 129 47 245q35 26 41 -15q-15 -92 -14 -189q7 -103 118 -99h117q112 2 163 68q12 16 13 32.5t-8 16.5h-70q-66 3 -75 49t20 92q52 76 144 79h166v-102h-209q-6 -2 -6 -10t5 -9h36q52 -2 69 -37.5t13 -76.5q-15 -99 -97.5 -151t-181.5 -52h-121q-72 0 -120 43.5
t-50 115.5z" />
    <glyph glyph-name="uniFEF1" unicode="&#x64a;" horiz-adv-x="752" arabic-form="isolated" 
d="M233 -338l65 83l59 -83l-59 -86zM441 -255l62 -83l-62 -86l-62 86zM690 42q-35 -102 -126 -154.5t-207 -52.5h-68q-93 -2 -167.5 41.5t-90.5 145.5q-6 152 111 248q59 21 36 -38q-67 -79 -59 -179q23 -109 134 -113h117q138 0 221 82q16 17 10.5 37t-33.5 23h-59
q-83 1 -108.5 47t-17.5 106q49 175 221 193q73 0 117 -46.5t-21 -54.5h-103q-38 0 -79 -21.5t-63 -76.5q-11 -38 43 -45h89q45 -2 81.5 -44t21.5 -98z" />
    <glyph glyph-name="uniFEF2" unicode="&#x64a;" horiz-adv-x="676" arabic-form="final" 
d="M217 -338l61 83l63 -83l-63 -86zM422 -255l64 -83l-64 -86l-60 86zM31 -95q-4 129 47 245q35 26 41 -15q-15 -93 -14 -184q4 -54 39 -78t79 -24h117q104 1 164 66q11 16 12 32.5t-8 16.5h-70q-66 3 -75 49t20 92q52 76 144 79h166v-102h-209q-6 -2 -6 -9t4 -7h39
q96 -21 80 -118q-16 -94 -101 -148t-182 -54h-117q-72 0 -120 43.5t-50 115.5z" />
    <glyph glyph-name="uniFEF3" unicode="&#x64a;" horiz-adv-x="380" arabic-form="initial" 
d="M35 -74l64 77l62 -77l-62 -86zM246 3l62 -77l-62 -86l-64 86zM232 256q-15 38 -69 78l86 98q41 -76 55 -136q16 -84 -17.5 -148t-134.5 -66h-152v102h178q28 1 45 24t9 48z" />
    <glyph glyph-name="uniFEF4" unicode="&#x64a;" horiz-adv-x="386" arabic-form="medial" 
d="M65 -74l64 77l63 -77l-63 -88zM273 2l64 -76l-64 -88l-64 88zM297 84q-82 10 -96 61q-15 -51 -109 -63h-92v102h66q50 3 76 47.5t28 103.5q25 26 46 0q5 -58 34.5 -103t75.5 -48h78v-102h-107v2z" />
    <glyph glyph-name=".notdef" horiz-adv-x="320" 
 />
    <glyph glyph-name=".null" horiz-adv-x="526" 
 />
    <glyph glyph-name="nonmarkingreturn" horiz-adv-x="526" 
 />
    <glyph glyph-name="space" unicode=" " horiz-adv-x="320" 
 />
    <glyph glyph-name="exclam" unicode="!" horiz-adv-x="340" 
d="M226 745l-14 -540h-83l-15 540h112zM221 0h-102v106h102v-106z" />
    <glyph glyph-name="quotedbl" unicode="&#x22;" horiz-adv-x="411" 
d="M354 778l-21 -289h-66l-22 289h109zM166 778l-21 -289h-66l-22 289h109z" />
    <glyph glyph-name="numbersign" unicode="#" horiz-adv-x="745" 
d="M674 466h-146l-46 -188h134v-67h-152l-52 -211h-65l53 211h-135l-53 -211h-64l52 211h-129v67h147l46 188h-134v68h151l53 211h64l-52 -211h135l52 211h65l-53 -211h129v-68zM465 467h-137l-47 -190h137z" />
    <glyph glyph-name="dollar" unicode="$" horiz-adv-x="559" 
d="M512 190q0 -73 -56 -126t-142 -63v-181h-57v178q-54 1 -108.5 13t-95.5 32v101h8q39 -30 88.5 -48.5t107.5 -23.5v216l-30 7.5t-31 8.5q-75 20 -107 61.5t-32 102.5q0 71 55.5 123.5t144.5 60.5v136h57v-135q46 -1 94.5 -12.5t79.5 -24.5v-99h-7q-35 24 -77 42t-90 22
v-215q17 -4 31 -7.5t25 -6.5q68 -16 105 -55.5t37 -106.5zM257 373v207q-45 -4 -75.5 -29t-30.5 -70t22.5 -69t83.5 -39zM418 177q0 47 -24 69.5t-80 34.5v-208q51 6 77.5 31t26.5 73z" />
    <glyph glyph-name="percent" unicode="%" horiz-adv-x="1000" 
d="M404 538q0 -112 -45.5 -166.5t-130.5 -54.5q-87 0 -132 55t-45 166q0 112 45.5 166.5t131.5 54.5q87 0 131.5 -55t44.5 -166zM737 745l-390 -745h-83l390 745h83zM949 207q0 -113 -45.5 -167t-130.5 -54q-87 0 -132 55t-45 165q0 112 45.5 166.5t131.5 54.5
q87 0 131.5 -55t44.5 -165zM315 538q0 76 -18 115t-69 39q-52 0 -70 -39.5t-18 -114.5t17 -114.5t71 -39.5q51 0 69 39.5t18 114.5zM860 207q0 76 -18 115t-69 39q-52 0 -70 -39.5t-18 -115.5q0 -75 17 -114.5t71 -39.5q51 0 69 39.5t18 115.5z" />
    <glyph glyph-name="ampersand" unicode="&#x26;" horiz-adv-x="690" 
d="M722 0h-128l-102 107q-51 -65 -104.5 -93.5t-121.5 -28.5q-101 0 -167 60.5t-66 159.5q0 43 12 76.5t32 60.5q20 26 45.5 45.5t48.5 34.5q-50 34 -75 71.5t-25 94.5q0 35 14 65.5t37 53.5q24 23 62.5 38t83.5 15q83 0 135.5 -43.5t52.5 -110.5q0 -25 -6 -51t-23 -51
q-16 -24 -43 -45.5t-71 -37.5l176 -181q7 41 8.5 89t1.5 126h97v-48q0 -48 -12 -108.5t-40 -114.5zM449 151l-230 235q-13 -8 -25.5 -19t-27.5 -33q-12 -17 -21 -45.5t-9 -59.5q0 -71 42 -117t114 -46q48 0 86.5 20.5t70.5 64.5zM266 456q28 10 46 26t28 35q9 17 13.5 36.5
t4.5 42.5q0 48 -28 74.5t-66 26.5q-44 0 -69.5 -30t-25.5 -75q0 -20 3.5 -34t15.5 -33q11 -16 29.5 -33.5t48.5 -35.5z" />
    <glyph glyph-name="quotesingle" unicode="'" horiz-adv-x="216" 
d="M163 778l-21 -289h-68l-22 289h111z" />
    <glyph glyph-name="parenleft" unicode="(" horiz-adv-x="392" 
d="M355 -206h-114q-87 104 -137 219.5t-50 272.5q0 154 49.5 271.5t137.5 220.5h114v-5q-40 -36 -77 -84t-68 -111q-30 -62 -49 -136t-19 -156q0 -85 18.5 -156t49.5 -135q30 -62 68.5 -111.5t76.5 -84.5v-5z" />
    <glyph glyph-name="parenright" unicode=")" horiz-adv-x="392" 
d="M338 286q0 -154 -49.5 -271t-136.5 -221h-115v5q39 35 78 85t68 111q31 64 49 136t18 155t-18.5 156.5t-48.5 135.5q-31 62 -69.5 111.5t-76.5 83.5v5h115q87 -103 136.5 -219.5t49.5 -272.5z" />
    <glyph glyph-name="asterisk" unicode="*" horiz-adv-x="559" 
d="M504 444l-33 -55l-163 108l3 -182h-62l3 182l-163 -109l-33 55l177 104l-177 103l33 55l163 -109l-3 182h62l-4 -182l164 109l33 -55l-177 -103z" />
    <glyph glyph-name="plus" unicode="+" horiz-adv-x="745" 
d="M666 286h-252v-252h-83v252h-253v80h253v253h83v-253h252v-80z" />
    <glyph glyph-name="comma" unicode="," horiz-adv-x="310" 
d="M250 143l-140 -328h-73l88 328h125z" />
    <glyph glyph-name="hyphen" unicode="-" horiz-adv-x="457" 
d="M368 281h-282v90h282v-90z" />
    <glyph glyph-name="period" unicode="." horiz-adv-x="310" 
d="M215 0h-120v143h120v-143z" />
    <glyph glyph-name="slash" unicode="/" horiz-adv-x="391" 
d="M364 778l-291 -940h-85l290 940h86z" />
    <glyph glyph-name="zero" unicode="0" horiz-adv-x="559" 
d="M517 373q0 -201 -58 -294.5t-180 -93.5q-123 0 -180.5 95.5t-57.5 291.5q0 201 58.5 294.5t179.5 93.5q123 0 180.5 -96.5t57.5 -290.5zM389 146q15 37 21 93.5t6 133.5q0 76 -6 132.5t-21 94.5t-41.5 57.5t-68.5 19.5q-41 0 -68 -19.5t-42 -58.5q-15 -38 -20.5 -96
t-5.5 -131q0 -78 4.5 -130.5t20.5 -94.5q15 -38 41.5 -59t69.5 -21q42 0 68.5 20t41.5 59z" />
    <glyph glyph-name="one" unicode="1" horiz-adv-x="559" 
d="M476 0h-363v76h135v499h-135v68q77 0 113 22t41 82h77v-671h132v-76z" />
    <glyph glyph-name="two" unicode="2" horiz-adv-x="559" 
d="M514 0h-460v105q50 47 94 90t86 89q85 94 116 150t31 116q0 31 -10 54.5t-27 39.5q-17 15 -40 22.5t-51 7.5q-26 0 -53.5 -7t-52.5 -17q-21 -8 -40.5 -20t-31.5 -21h-5v106q31 16 86 30.5t105 14.5q104 0 163 -55t59 -150q0 -43 -10.5 -80t-28.5 -69t-44 -64t-55 -63
q-47 -51 -105 -106t-92 -87h366v-86z" />
    <glyph glyph-name="three" unicode="3" horiz-adv-x="559" 
d="M255 674q-27 0 -54 -6.5t-53 -17.5q-24 -10 -41.5 -21t-31.5 -20h-6v105q32 18 88 32t106 14q51 0 88.5 -10t68.5 -32q33 -24 49.5 -58t16.5 -79q0 -62 -40.5 -108.5t-96.5 -58.5v-7q23 -5 50 -16t50 -32q23 -22 37.5 -55.5t14.5 -82.5q0 -50 -17.5 -92.5t-48.5 -74.5
q-33 -34 -79 -51.5t-104 -17.5q-56 0 -111 13.5t-93 32.5v105h7q32 -23 85 -44t106 -21q30 0 61 10t51 32t30.5 48.5t10.5 66.5q0 41 -11.5 67t-32.5 41t-50 20.5t-62 5.5h-43v83h33q68 0 110 32t42 93q0 28 -11 48.5t-28 32.5q-19 13 -42 18t-49 5z" />
    <glyph glyph-name="four" unicode="4" horiz-adv-x="559" 
d="M534 256h-89v-256h-96v256h-329v105l333 384h92v-409h89v-80zM349 336v291l-251 -291h251z" />
    <glyph glyph-name="five" unicode="5" horiz-adv-x="559" 
d="M506 237q0 -54 -17.5 -100t-48.5 -79q-31 -34 -78 -53.5t-105 -19.5q-53 0 -105 11.5t-90 30.5v106h7q12 -9 33.5 -19.5t47.5 -20.5q29 -10 53.5 -16t55.5 -6q30 0 58.5 11t48.5 35q19 22 28.5 51.5t9.5 69.5q0 39 -10.5 64.5t-31.5 42.5q-21 19 -52.5 26.5t-69.5 7.5
q-41 0 -82 -6t-65 -12v384h408v-88h-312v-198q18 2 35.5 3t32.5 1q57 0 96.5 -9.5t75.5 -36.5q37 -28 57 -70t20 -110z" />
    <glyph glyph-name="six" unicode="6" horiz-adv-x="559" 
d="M525 242q0 -58 -19 -106.5t-51 -80.5q-33 -35 -74.5 -52.5t-91.5 -17.5q-51 0 -92 17t-73 50q-38 41 -60 108.5t-22 166.5q0 97 20 175.5t62 136.5q40 56 104 88t148 32q25 0 46.5 -2.5t38.5 -8.5v-95h-5q-13 7 -38.5 13.5t-54.5 6.5q-93 0 -150.5 -63t-67.5 -186
q35 25 72.5 38.5t82.5 13.5q43 0 76 -9t68 -35q41 -31 61 -78.5t20 -111.5zM424 238q0 46 -12 77t-39 53q-20 16 -44.5 21t-50.5 5q-35 0 -68 -10.5t-65 -30.5q-1 -11 -1.5 -21.5t-0.5 -25.5q0 -78 15 -125.5t38 -71.5q21 -24 44 -33.5t49 -9.5q60 0 97.5 43t37.5 129z" />
    <glyph glyph-name="seven" unicode="7" horiz-adv-x="559" 
d="M522 633l-322 -633h-107l341 657h-385v88h473v-112z" />
    <glyph glyph-name="eight" unicode="8" horiz-adv-x="559" 
d="M406 571q0 50 -33.5 83.5t-93.5 33.5q-54 0 -89 -30t-35 -81q0 -37 18 -62.5t53 -45.5q16 -9 47.5 -24t57.5 -23q44 33 59.5 68.5t15.5 80.5zM420 198q0 46 -18 73t-70 55q-17 10 -45 21t-64 26q-41 -28 -63 -68t-22 -92q0 -67 40.5 -111t102.5 -44q63 0 101 37.5
t38 102.5zM280 -17q-56 0 -101.5 16.5t-77.5 47.5q-31 30 -47.5 71.5t-16.5 87.5q0 60 32.5 111t93.5 81v3q-55 32 -81.5 70t-26.5 95q0 84 63.5 140t161.5 56q101 0 162.5 -53.5t61.5 -136.5q0 -50 -29.5 -99t-84.5 -76v-3q65 -31 98.5 -74.5t33.5 -111.5q0 -96 -69 -160.5
t-173 -64.5z" />
    <glyph glyph-name="nine" unicode="9" horiz-adv-x="559" 
d="M416 439q0 76 -14 123.5t-39 73.5q-22 24 -44.5 33t-49.5 9q-61 0 -97.5 -44t-36.5 -127q0 -47 12 -77.5t39 -52.5q19 -16 43 -21t51 -5q32 0 69 11t65 30q0 7 1 19.5t1 27.5zM33 503q0 57 19 104.5t51 82.5q31 33 76 51.5t91 18.5q51 0 93 -17.5t72 -49.5
q39 -41 60 -107.5t21 -168.5q0 -92 -20.5 -175t-61.5 -137q-43 -58 -103 -88.5t-149 -30.5q-20 0 -42.5 2t-41.5 8v96h5q12 -7 38.5 -13.5t54.5 -6.5q98 0 154 64.5t63 184.5q-40 -27 -76 -39.5t-79 -12.5q-41 0 -75 9t-69 35q-40 30 -60.5 77t-20.5 113z" />
    <glyph glyph-name="colon" unicode=":" horiz-adv-x="362" 
d="M241 416h-120v143h120v-143zM241 0h-120v143h120v-143z" />
    <glyph glyph-name="semicolon" unicode=";" horiz-adv-x="362" 
d="M241 416h-119v143h119v-143zM274 143l-140 -328h-73l88 328h125z" />
    <glyph glyph-name="less" unicode="&#x3c;" horiz-adv-x="745" 
d="M637 40l-537 256v60l537 257v-89l-416 -198l416 -197v-89z" />
    <glyph glyph-name="equal" unicode="=" horiz-adv-x="745" 
d="M649 391h-553v80h553v-80zM649 181h-553v80h553v-80z" />
    <glyph glyph-name="greater" unicode="&#x3e;" horiz-adv-x="745" 
d="M644 296l-537 -256v89l417 197l-417 198v89l537 -257v-60z" />
    <glyph glyph-name="question" unicode="?" horiz-adv-x="485" 
d="M456 570q0 -49 -16.5 -87.5t-43.5 -67.5t-61 -53.5t-72 -47.5v-114h-90v153q28 17 65.5 40.5t58.5 44.5q27 25 42 55.5t15 68.5q0 57 -35.5 84.5t-92.5 27.5q-50 0 -94.5 -16.5t-71.5 -34.5h-6v102q34 13 85 24t96 11q103 0 162 -52.5t59 -137.5zM271 0h-102v106h102
v-106z" />
    <glyph glyph-name="at" unicode="@" horiz-adv-x="931" 
d="M870 332q0 -70 -19 -134.5t-55 -118.5h-210l-13 58q-33 -29 -61.5 -45.5t-76.5 -16.5q-77 0 -126 61.5t-49 179.5q0 117 60 182.5t138 65.5q36 0 62 -9t52 -24v24h80v-421h113q19 36 27.5 92.5t8.5 102.5q0 163 -83.5 263t-239.5 100q-148 0 -244 -108t-96 -261
q0 -165 93.5 -267.5t244.5 -102.5q40 0 85 5.5t85 17.5v-71q-42 -10 -85.5 -14t-85.5 -4q-177 0 -293 121.5t-116 315.5q0 183 120 309t292 126q184 0 288 -118.5t104 -308.5zM571 204v259q-28 15 -51.5 21t-48.5 6q-57 0 -91.5 -42t-34.5 -131q0 -80 26 -122.5t83 -42.5
q31 0 60.5 14.5t56.5 37.5z" />
    <glyph glyph-name="A" unicode="A" horiz-adv-x="614" 
d="M-5 0l251 745h122l251 -745h-104l-68 208h-284l-68 -208h-100zM420 293l-115 351l-115 -351h230z" />
    <glyph glyph-name="B" unicode="B" horiz-adv-x="603" 
d="M580 229q0 -56 -21 -98.5t-56 -69.5q-42 -33 -90 -47t-124 -14h-214v745h198q79 0 119 -5.5t76 -24.5q40 -22 58.5 -56.5t18.5 -81.5q0 -53 -27.5 -94.5t-76.5 -64.5v-4q66 -18 102.5 -66t36.5 -119zM442 563q0 27 -9 46.5t-29 31.5q-24 13 -53.5 16t-81.5 3h-95v-218
h113q46 0 68 5t46 20q22 14 31.5 37.5t9.5 58.5zM477 225q0 42 -12 69t-48 46q-24 13 -51.5 16.5t-78.5 3.5h-113v-275h81q65 0 102.5 6t65.5 25q28 20 41 44.5t13 64.5z" />
    <glyph glyph-name="C" unicode="C" horiz-adv-x="615" 
d="M367 -13q-73 0 -134.5 24.5t-105.5 72.5q-45 49 -69.5 121.5t-24.5 166.5q0 93 24 162.5t69 121.5q45 50 106 76t136 26q38 0 70.5 -5.5t60.5 -13.5q24 -8 49.5 -19t49.5 -25v-119h-8q-13 12 -33.5 29t-49.5 33t-62.5 26t-77.5 10q-47 0 -89.5 -19.5t-74.5 -57.5
t-49.5 -95.5t-17.5 -129.5q0 -77 18.5 -132t50.5 -93q31 -37 73 -56t89 -19q43 0 79.5 10.5t65.5 26.5q27 16 47 32t32 28h7v-118q-24 -12 -46 -22.5t-53 -20.5q-32 -10 -60 -15.5t-72 -5.5z" />
    <glyph glyph-name="D" unicode="D" horiz-adv-x="694" 
d="M662 372q0 -102 -41 -184t-111 -128q-56 -36 -114.5 -48t-148.5 -12h-172v745h170q105 0 164.5 -16t101.5 -43q72 -48 111.5 -126.5t39.5 -187.5zM559 373q0 86 -28.5 147t-84.5 95q-39 24 -84 34.5t-112 10.5h-76v-575h76q66 0 115.5 10.5t90.5 39.5q51 35 77 93t26 145
z" />
    <glyph glyph-name="E" unicode="E" horiz-adv-x="574" 
d="M75 0v745h466v-88h-367v-204h342v-88h-342v-277h367v-88h-466z" />
    <glyph glyph-name="F" unicode="F" horiz-adv-x="534" 
d="M521 657h-347v-210h332v-88h-332v-359h-99v745h446v-88z" />
    <glyph glyph-name="G" unicode="G" horiz-adv-x="683" 
d="M387 -14q-79 0 -144.5 24t-112.5 73t-72 122t-25 168q0 90 25.5 161.5t72.5 121.5q45 49 111.5 75.5t145.5 26.5q38 0 72.5 -5.5t65.5 -14.5q25 -8 56 -21t50 -23v-119h-9q-18 16 -38 31t-56 32q-30 15 -69 25t-84 10q-107 0 -173.5 -81t-66.5 -216q0 -75 17.5 -131
t50.5 -95q32 -38 77.5 -58.5t101.5 -20.5q42 0 83.5 6t70.5 18v193h-172v87h270v-325q-19 -9 -51 -22t-59 -20q-37 -11 -66.5 -16.5t-71.5 -5.5z" />
    <glyph glyph-name="H" unicode="H" horiz-adv-x="691" 
d="M616 0h-99v365h-343v-365h-99v745h99v-292h343v292h99v-745z" />
    <glyph glyph-name="I" unicode="I" horiz-adv-x="382" 
d="M335 0h-289v76h95v593h-95v76h289v-76h-95v-593h95v-76z" />
    <glyph glyph-name="J" unicode="J" horiz-adv-x="426" 
d="M356 194q0 -98 -60 -151t-160 -53q-24 0 -64.5 4t-67.5 10v95h6q20 -7 50.5 -15.5t61.5 -8.5q46 0 73.5 10.5t40.5 29.5q13 20 17 49t4 67v435h-158v79h257v-551z" />
    <glyph glyph-name="K" unicode="K" horiz-adv-x="602" 
d="M618 0h-129l-271 347l-44 -49v-298h-99v745h99v-343l305 343h121l-308 -333z" />
    <glyph glyph-name="L" unicode="L" horiz-adv-x="509" 
d="M507 0h-432v745h99v-657h333v-88z" />
    <glyph glyph-name="M" unicode="M" horiz-adv-x="789" 
d="M713 0h-99v642l-194 -437h-60l-192 437v-642h-93v745h135l186 -415l180 415h137v-745z" />
    <glyph glyph-name="N" unicode="N" horiz-adv-x="683" 
d="M608 0h-111l-329 642v-642h-93v745h141l299 -590v590h93v-745z" />
    <glyph glyph-name="O" unicode="O" horiz-adv-x="724" 
d="M602 659q43 -49 66.5 -121.5t23.5 -165.5q0 -90 -23 -163t-67 -123q-45 -52 -106 -76.5t-134 -24.5q-75 0 -135.5 25.5t-104.5 75.5q-43 50 -66 122.5t-23 163.5q0 94 23.5 165t66.5 122q43 50 103.5 75.5t135.5 25.5q76 0 137 -26.5t103 -74.5zM589 372q0 74 -16 131
t-45 95q-30 38 -71.5 57.5t-93.5 19.5q-54 0 -94.5 -19t-71.5 -58q-29 -38 -45 -95.5t-16 -130.5q0 -146 61.5 -224t165.5 -78q103 0 164.5 78t61.5 224z" />
    <glyph glyph-name="P" unicode="P" horiz-adv-x="564" 
d="M545 520q0 -48 -17 -91.5t-48 -73.5q-38 -38 -90 -57.5t-132 -19.5h-84v-278h-99v745h187q66 0 112.5 -11t82.5 -36q41 -28 64.5 -72t23.5 -106zM442 518q0 38 -13 66.5t-40 46.5q-24 16 -55 22.5t-78 6.5h-82v-298h68q60 0 97 10t61 35q22 22 32 48.5t10 62.5z" />
    <glyph glyph-name="Q" unicode="Q" horiz-adv-x="724" 
d="M694 -182q-27 -7 -56.5 -10.5t-59.5 -3.5q-83 0 -135.5 47t-57.5 134h-12h-11q-75 0 -136 26t-104 75q-43 50 -66 122.5t-23 163.5q0 94 23.5 165t66.5 122q43 50 103.5 75.5t135.5 25.5q76 0 137 -26.5t103 -74.5q43 -49 66.5 -121.5t23.5 -165.5q0 -144 -56.5 -238
t-154.5 -128q2 -28 9.5 -50t18.5 -35q14 -16 33 -23t53 -7q20 0 47 6t39 11h13v-90zM589 372q0 74 -16 131t-45 95q-30 38 -71.5 57.5t-93.5 19.5q-54 0 -94.5 -19t-71.5 -58q-29 -38 -45 -95.5t-16 -130.5q0 -146 61.5 -224t165.5 -78q103 0 164.5 78t61.5 224z" />
    <glyph glyph-name="R" unicode="R" horiz-adv-x="635" 
d="M652 0h-129l-236 296h-113v-296h-99v745h192q64 0 107.5 -7t82.5 -33q39 -25 61.5 -64.5t22.5 -97.5q0 -82 -41.5 -137t-112.5 -82zM438 535q0 33 -11.5 58t-35.5 41q-21 14 -49 20t-70 6h-98v-281h87q43 0 77 7.5t58 30.5q21 21 31.5 50t10.5 68z" />
    <glyph glyph-name="S" unicode="S" horiz-adv-x="570" 
d="M283 -13q-81 0 -138 16.5t-107 41.5v124h7q49 -46 111 -71.5t120 -25.5q82 0 124 34.5t42 90.5q0 44 -22 72t-70 42q-35 10 -63.5 16.5t-71.5 17.5q-38 10 -68.5 25.5t-54.5 40.5q-23 24 -35.5 57.5t-12.5 76.5q0 91 70.5 152t179.5 61q63 0 118.5 -12.5t103.5 -35.5
v-118h-8q-35 32 -90.5 56.5t-116.5 24.5q-69 0 -111.5 -32.5t-42.5 -84.5q0 -48 25 -76t72 -41q32 -8 77.5 -19t75.5 -20q77 -23 112.5 -70.5t35.5 -117.5q0 -43 -18 -85.5t-50 -72.5q-36 -32 -81 -49.5t-113 -17.5z" />
    <glyph glyph-name="T" unicode="T" horiz-adv-x="598" 
d="M250 0v657h-250v88h599v-88h-250v-657h-99z" />
    <glyph glyph-name="U" unicode="U" horiz-adv-x="671" 
d="M335 -15q-65 0 -114 17t-84 51q-39 39 -55 93.5t-16 133.5v465h99v-465q0 -51 6.5 -86.5t25.5 -63.5q20 -30 54.5 -45.5t83.5 -15.5q47 0 83 15.5t56 45.5q18 29 25 63.5t7 84.5v467h99v-465q0 -77 -16 -132.5t-55 -94.5q-36 -34 -83 -51t-116 -17z" />
    <glyph glyph-name="V" unicode="V" horiz-adv-x="611" 
d="M615 745l-256 -745h-107l-256 745h106l206 -618l206 618h101z" />
    <glyph glyph-name="W" unicode="W" horiz-adv-x="923" 
d="M911 745l-187 -745h-112l-151 618l-148 -618h-109l-191 745h102l150 -619l149 619h100l151 -625l149 625h97z" />
    <glyph glyph-name="X" unicode="X" horiz-adv-x="594" 
d="M591 0h-114l-181 298l-185 -298h-107l237 373l-230 372h113l178 -293l181 293h107l-233 -367z" />
    <glyph glyph-name="Y" unicode="Y" horiz-adv-x="590" 
d="M597 745l-251 -415v-330h-99v319l-252 426h110l192 -329l195 329h105z" />
    <glyph glyph-name="Z" unicode="Z" horiz-adv-x="572" 
d="M550 0h-520v92l399 565h-381v88h492v-90l-403 -567h413v-88z" />
    <glyph glyph-name="bracketleft" unicode="[" horiz-adv-x="392" 
d="M343 -196h-260v974h260v-71h-172v-831h172v-72z" />
    <glyph glyph-name="backslash" unicode="\" horiz-adv-x="391" 
d="M402 -162h-84l-292 940h86z" />
    <glyph glyph-name="bracketright" unicode="]" horiz-adv-x="392" 
d="M309 -196h-260v72h173v831h-173v71h260v-974z" />
    <glyph glyph-name="asciicircum" unicode="^" horiz-adv-x="745" 
d="M678 342h-99l-207 313l-207 -314h-99l275 404h63z" />
    <glyph glyph-name="underscore" unicode="_" horiz-adv-x="559" 
d="M567 -150h-575v65h575v-65z" />
    <glyph glyph-name="grave" unicode="`" horiz-adv-x="559" 
d="M335 651h-74l-137 187h122z" />
    <glyph glyph-name="a" unicode="a" horiz-adv-x="537" 
d="M380 138v155q-33 -3 -84.5 -8.5t-82.5 -14.5q-38 -12 -62.5 -35.5t-24.5 -66.5q0 -48 27 -72.5t79 -24.5q45 0 81 19.5t67 47.5zM380 60q-11 -9 -30.5 -24t-37.5 -24q-25 -13 -48 -20t-65 -7q-35 0 -66 13t-54 36t-36.5 57t-13.5 71q0 58 24.5 99t77.5 65q47 21 111 29.5
t138 12.5v18q0 33 -10 53t-28 31q-18 12 -44 15.5t-53 3.5q-33 0 -77 -9.5t-88 -28.5h-5v96q26 7 74.5 16t95.5 9q58 0 97.5 -9t70.5 -32t46 -59.5t15 -89.5v-382h-94v60z" />
    <glyph glyph-name="b" unicode="b" horiz-adv-x="566" 
d="M440 281q0 100 -30.5 152t-98.5 52q-38 0 -77.5 -18t-71.5 -46v-320q36 -17 63.5 -24.5t60.5 -7.5q72 0 113 51t41 161zM537 289q0 -137 -66.5 -220.5t-166.5 -83.5q-46 0 -78 11t-64 30l-6 -26h-88v778h94v-278q36 32 77.5 53t93.5 21q95 0 149.5 -75.5t54.5 -209.5z
" />
    <glyph glyph-name="c" unicode="c" horiz-adv-x="472" 
d="M290 -12q-58 0 -106 17.5t-82 53.5q-35 36 -54 91t-19 129q0 73 20 126.5t53 90.5q33 36 82 56t106 20q46 0 88.5 -13t76.5 -30v-106h-6q-10 9 -25.5 20t-38.5 22q-19 10 -45.5 17.5t-51.5 7.5q-73 0 -117 -55t-44 -156q0 -99 42.5 -154.5t118.5 -55.5q46 0 87.5 19
t73.5 49h6v-105q-14 -7 -35 -16t-38 -14q-24 -7 -43 -10.5t-49 -3.5z" />
    <glyph glyph-name="d" unicode="d" horiz-adv-x="566" 
d="M498 0h-94v57q-22 -18 -38 -30t-38 -22q-20 -10 -41.5 -15t-49.5 -5q-46 0 -84.5 19t-65.5 55q-28 37 -43 91.5t-15 124.5q0 74 19 127.5t53 93.5q30 37 73.5 57.5t90.5 20.5q42 0 73 -9t66 -29v242h94v-778zM404 136v322q-35 17 -63 23.5t-60 6.5q-73 0 -114 -54
t-41 -157q0 -98 31.5 -150.5t101.5 -52.5q37 0 74.5 17t70.5 45z" />
    <glyph glyph-name="e" unicode="e" horiz-adv-x="539" 
d="M310 -13q-133 0 -207 75.5t-74 213.5q0 137 71.5 217.5t187.5 80.5q52 0 92 -15t70 -47t46 -78t16 -113v-51h-387q0 -98 49 -149.5t135 -51.5q31 0 61 7t54 18q25 12 42.5 22.5t29.5 20.5h5v-103q-16 -6 -40.5 -16t-44.5 -15q-27 -8 -49.5 -12t-56.5 -4zM420 342
q-1 38 -9 65.5t-23 46.5q-16 21 -42 32t-64 11q-37 0 -63.5 -11.5t-47.5 -32.5q-21 -22 -32 -49t-14 -62h295z" />
    <glyph glyph-name="f" unicode="f" horiz-adv-x="326" 
d="M362 688h-5q-13 5 -36.5 9t-41.5 4q-60 0 -85 -26.5t-25 -96.5v-19h155v-78h-152v-481h-94v481h-64v78h64v18q0 101 48.5 153.5t138.5 52.5q26 0 51 -2.5t46 -6.5v-86z" />
    <glyph glyph-name="g" unicode="g" horiz-adv-x="566" 
d="M404 152v306q-35 17 -65 24.5t-59 7.5q-72 0 -113 -52.5t-41 -150.5q0 -93 31.5 -141.5t101.5 -48.5q36 0 75 14.5t70 40.5zM88 -89q9 -4 27.5 -11t42.5 -13q26 -6 48 -10t48 -4q43 0 73.5 11.5t47.5 31.5q16 21 22.5 48t6.5 61v49q-38 -33 -74.5 -48.5t-91.5 -15.5
q-96 0 -152.5 71t-56.5 204q0 69 19.5 123t52.5 91q32 36 75 55.5t89 19.5q43 0 75 -10t64 -29l5 24h89v-495q0 -142 -62 -208.5t-190 -66.5q-41 0 -83.5 6.5t-79.5 17.5v98h5z" />
    <glyph glyph-name="h" unicode="h" horiz-adv-x="571" 
d="M507 0h-94v318q0 39 -3.5 72t-14.5 53q-11 21 -31.5 31.5t-56.5 10.5q-35 0 -72 -19t-73 -49v-417h-94v778h94v-281q42 37 83 57t87 20q82 0 128.5 -54t46.5 -157v-363z" />
    <glyph glyph-name="i" unicode="i" horiz-adv-x="234" 
d="M164 0h-94v559h94v-559zM170 652h-107v98h107v-98z" />
    <glyph glyph-name="j" unicode="j" horiz-adv-x="288" 
d="M221 -16q0 -95 -51.5 -145t-141.5 -50q-15 0 -34.5 1.5t-38.5 4.5v84h6q11 -3 24 -5t25 -2q38 0 62 9t36 29q11 18 15 45.5t4 67.5v458h-101v78h195v-575zM221 652h-107v98h107v-98z" />
    <glyph glyph-name="k" unicode="k" horiz-adv-x="510" 
d="M531 0h-123l-209 270l-37 -36v-234h-94v778h94v-455l221 236h117l-229 -234z" />
    <glyph glyph-name="l" unicode="l" horiz-adv-x="234" 
d="M164 0h-94v778h94v-778z" />
    <glyph glyph-name="m" unicode="m" horiz-adv-x="860" 
d="M702 0v323q0 39 -3 71.5t-12 51.5q-10 20 -28.5 29.5t-50.5 9.5q-29 0 -62 -18t-69 -51q1 -9 1.5 -20.5t0.5 -27.5v-368h-94v323q0 39 -3 71.5t-12 51.5q-10 20 -28.5 29.5t-50.5 9.5q-30 0 -63.5 -19t-65.5 -49v-417h-94v559h94v-62q37 37 73.5 57t79.5 20
q50 0 88 -22.5t58 -73.5q43 47 83.5 71.5t87.5 24.5q36 0 65.5 -11t51.5 -36q23 -26 35 -64t12 -95v-368h-94z" />
    <glyph glyph-name="n" unicode="n" horiz-adv-x="571" 
d="M507 0h-94v318q0 39 -3.5 72t-14.5 53q-11 21 -31.5 31.5t-56.5 10.5q-35 0 -72 -19t-73 -49v-417h-94v559h94v-62q42 37 83 57t87 20q82 0 128.5 -54t46.5 -157v-363z" />
    <glyph glyph-name="o" unicode="o" horiz-adv-x="556" 
d="M527 279q0 -141 -68 -217.5t-181 -76.5q-116 0 -183 79t-67 215q0 140 69 217.5t181 77.5q113 0 181 -77t68 -218zM430 279q0 109 -39.5 161.5t-112.5 52.5t-113 -52.5t-40 -161.5q0 -105 40 -159t113 -54t112.5 53t39.5 160z" />
    <glyph glyph-name="p" unicode="p" horiz-adv-x="566" 
d="M537 294q0 -139 -67 -222t-169 -83q-41 0 -73 9.5t-66 29.5v-234h-94v765h94v-59q35 32 78 53t93 21q96 0 150 -76t54 -204zM440 284q0 95 -30.5 148t-99.5 53q-40 0 -77 -18t-71 -46v-316q37 -18 63.5 -24.5t60.5 -6.5q73 0 113.5 53.5t40.5 156.5z" />
    <glyph glyph-name="q" unicode="q" horiz-adv-x="566" 
d="M498 -206h-94v267q-41 -37 -80 -54.5t-87 -17.5q-95 0 -151.5 76.5t-56.5 212.5q0 72 20 127t52 93q31 36 74 56t90 20q43 0 74.5 -10t64.5 -29l6 24h88v-765zM404 140v318q-36 18 -64 25t-60 7q-74 0 -114 -53.5t-40 -154.5q0 -98 32 -150.5t100 -52.5q39 0 76.5 17
t69.5 44z" />
    <glyph glyph-name="r" unicode="r" horiz-adv-x="369" 
d="M364 458h-5q-10 3 -22 3.5t-28 0.5q-38 0 -75.5 -16.5t-71.5 -48.5v-397h-94v559h94v-83q52 45 90 64t74 19q15 0 22 -1t16 -2v-98z" />
    <glyph glyph-name="s" unicode="s" horiz-adv-x="457" 
d="M219 -13q-56 0 -105 15t-81 32v105h5q12 -9 28.5 -20.5t43.5 -24.5q24 -11 52.5 -19.5t59.5 -8.5q23 0 48.5 5.5t37.5 13.5q18 11 25.5 24t7.5 39q0 34 -18 51t-65 28q-18 5 -47 11t-53 13q-64 18 -93 57t-29 94q0 75 57 122.5t151 47.5q47 0 94 -11.5t79 -28.5v-101h-5
q-36 29 -80.5 45.5t-89.5 16.5q-46 0 -78 -19.5t-32 -59.5q0 -35 19 -52t61 -28q21 -6 46.5 -11t54.5 -12q62 -16 93 -52t31 -98q0 -36 -14 -68t-42 -55q-30 -25 -67.5 -38t-94.5 -13z" />
    <glyph glyph-name="t" unicode="t" horiz-adv-x="342" 
d="M237 -11q-77 0 -120 44t-43 138v310h-64v78h64v160h94v-160h173v-78h-173v-266q0 -42 1.5 -65t11.5 -43q8 -18 27 -26.5t52 -8.5q23 0 44.5 6.5t30.5 11.5h6v-85q-27 -7 -54 -11.5t-50 -4.5z" />
    <glyph glyph-name="u" unicode="u" horiz-adv-x="571" 
d="M503 0h-94v62q-43 -38 -82 -57.5t-87 -19.5q-37 0 -69 12t-56 38t-37.5 65.5t-13.5 95.5v363h94v-318q0 -45 3.5 -74t14.5 -51q12 -22 31.5 -32t56.5 -10q35 0 74 19.5t71 48.5v417h94v-559z" />
    <glyph glyph-name="v" unicode="v" horiz-adv-x="510" 
d="M507 559l-210 -559h-85l-209 559h102l153 -431l151 431h98z" />
    <glyph glyph-name="w" unicode="w" horiz-adv-x="760" 
d="M745 559l-141 -559h-87l-137 431l-135 -431h-87l-143 559h98l99 -433l132 433h78l136 -433l93 433h94z" />
    <glyph glyph-name="x" unicode="x" horiz-adv-x="507" 
d="M502 0h-115l-136 211l-139 -211h-107l194 277l-192 282h116l134 -209l138 209h107l-193 -275z" />
    <glyph glyph-name="y" unicode="y" horiz-adv-x="510" 
d="M507 559l-300 -765h-101l100 233l-203 532h102l152 -414l152 414h98z" />
    <glyph glyph-name="z" unicode="z" horiz-adv-x="455" 
d="M435 0h-411v70l292 411h-280v78h393v-67l-293 -413h299v-79z" />
    <glyph glyph-name="braceleft" unicode="{" horiz-adv-x="492" 
d="M443 -196h-58q-89 0 -140 49.5t-51 144.5v74q0 35 -6.5 70t-24.5 60q-19 25 -48.5 37.5t-73.5 12.5h-11v78h11q44 0 73.5 13t48.5 38q18 25 24.5 60t6.5 69v75q0 95 51 144t140 49h58v-69h-40q-29 0 -50.5 -6t-37.5 -20q-16 -15 -23.5 -41.5t-7.5 -65.5v-87
q0 -41 -9.5 -69t-28.5 -53q-16 -22 -42.5 -40t-55.5 -30v-12q29 -11 55 -29.5t43 -40.5q19 -24 28.5 -52t9.5 -69v-88q0 -38 7.5 -64.5t23.5 -41.5q15 -15 37 -21t51 -6h40v-69z" />
    <glyph glyph-name="bar" unicode="|" horiz-adv-x="391" 
d="M238 -196h-84v974h84v-974z" />
    <glyph glyph-name="braceright" unicode="}" horiz-adv-x="492" 
d="M462 252h-10q-44 0 -74 -12.5t-48 -37.5q-19 -25 -25.5 -60t-6.5 -70v-74q0 -95 -50.5 -144.5t-140.5 -49.5h-58v69h40q30 0 51.5 6t36.5 21q16 15 24 41.5t8 64.5v88q0 41 9.5 69t27.5 52q17 22 43.5 40.5t54.5 29.5v12q-28 12 -54.5 30t-43.5 40q-18 25 -27.5 53
t-9.5 69v87q0 39 -8 65.5t-24 41.5q-15 14 -36.5 20t-51.5 6h-40v69h58q90 0 140.5 -49t50.5 -144v-75q0 -34 6.5 -69t25.5 -60q18 -25 48 -38t74 -13h10v-78z" />
    <glyph glyph-name="asciitilde" unicode="~" horiz-adv-x="745" 
d="M678 464q-1 -51 -10.5 -98.5t-29.5 -84.5q-21 -37 -51.5 -60t-79.5 -23q-28 0 -51 8t-40 20q-18 13 -34 30.5t-28 32.5q-14 16 -27 33t-25 30q-14 14 -28.5 22.5t-32.5 8.5q-25 0 -41.5 -13t-27.5 -39q-11 -25 -15 -60t-6 -73h-84q1 52 11 99.5t29 83.5q20 38 53 60
t78 22q30 0 53 -8t40 -20q18 -13 32.5 -29t28.5 -33q11 -14 26.5 -33.5t25.5 -30.5q15 -15 29.5 -23t31.5 -8q25 0 42 14t27 38q10 25 14.5 59t5.5 75h84z" />
    <glyph glyph-name="sterling" unicode="&#xa3;" horiz-adv-x="512" 
d="M361 430h-129q1 -23 1 -34q0 -47 -7 -87t-24 -92q98 -32 112 -35q26 -6 51 -6q41 0 67 19.5t38 60.5l18 -4q-10 -81 -51.5 -122.5t-91.5 -41.5q-34 0 -61.5 12.5t-101.5 67.5q-20 -40 -43.5 -60t-49.5 -20q-25 0 -42 17.5t-17 47.5q0 33 23 55.5t59 22.5q9 0 19.5 -1
t23.5 -3q1 13 1 22.5v15.5q0 44 -10 165h-97v47h97q-7 75 -7 100q0 61 24.5 111.5t68 77t92.5 26.5q63 0 95 -34t32 -68q0 -16 -12.5 -28.5t-26.5 -12.5q-19 0 -32 19q-5 9 -7 39t-17 44q-16 14 -44 14q-39 0 -65 -31t-26 -109q0 -37 6 -94q4 -37 5 -54h129v-47zM149 186
q-11 7 -21.5 10.5t-21.5 3.5q-22 0 -34.5 -12t-12.5 -32q0 -18 9.5 -28.5t22.5 -10.5q17 0 32.5 15.5t25.5 53.5z" />
    <glyph glyph-name="yen" unicode="&#xa5;" horiz-adv-x="540" 
d="M56 429h154q-16 36 -29.5 61t-27 47.5t-28.5 47t-35 58.5q-19 31 -32 50t-27 30.5t-31 16.5t-44 7l2 29q27 0 64 -1t78 -1q33 0 62 1t56 1l3 -27q-34 -3 -49 -10.5t-15 -21.5q0 -10 5.5 -23.5t15.5 -29.5l106 -187l101 176q15 25 20 38.5t5 24.5q0 14 -16.5 21t-53.5 10
l2 29q14 0 26.5 -0.5t25.5 -0.5q14 0 28 -0.5t32 -0.5q30 0 57.5 1t56.5 1l3 -27q-29 -3 -47.5 -8.5t-34 -18.5t-31 -36t-37.5 -60q-19 -31 -34 -56.5t-27.5 -48.5t-23.5 -45t-22 -47h156l-3 -41h-160v-72h155l-4 -41h-151v-76q0 -19 3.5 -31.5t14.5 -21t33.5 -12.5t61.5 -5
l-1 -29q-17 0 -38 0.5t-43 0.5t-43.5 0.5t-40.5 0.5q-16 0 -34 -0.5t-37 -0.5t-38 -0.5t-34 -0.5l-2 27q36 2 58.5 7t33.5 16t14.5 30t3.5 49v46h-151l-3 41h154v72h-160z" />
    <glyph glyph-name="section" unicode="&#xa7;" horiz-adv-x="512" 
d="M189 522q-34 37 -48 67.5t-14 61.5q0 59 41 100t101 41q55 0 90.5 -33.5t35.5 -76.5q0 -19 -13 -34q-9 -11 -26 -11t-28 11.5t-11 27.5q0 7 4 26q2 12 2 22q0 20 -14.5 33.5t-39.5 13.5q-37 0 -62 -25.5t-25 -61.5q0 -32 13 -53q23 -35 76 -74q100 -72 137 -130
q26 -41 26 -86t-26.5 -90.5t-83.5 -80.5q35 -38 48 -66t13 -61q0 -61 -41 -102t-101 -41q-54 0 -89.5 34.5t-35.5 78.5q0 18 11.5 31t27.5 13q15 0 26 -12t11 -32q0 -13 -4 -29.5t-4 -24.5q0 -15 13 -24q19 -15 47 -15q34 0 61 26t27 56q0 31 -15 56q-24 37 -87 85
q-94 70 -128 123q-26 41 -26 86q0 46 27 91t84 79zM205 506q-76 -45 -76 -111q0 -35 19 -64q26 -41 98 -96q35 -26 61 -50q77 46 77 110q0 32 -22 67.5t-91 88.5q-41 32 -66 55z" />
    <glyph glyph-name="copyright" unicode="&#xa9;" horiz-adv-x="778" 
d="M389 794q89 0 174 -46t133 -131t48 -178q0 -92 -47 -176.5t-131.5 -131t-176.5 -46.5t-176.5 46.5t-131.5 131t-47 176.5q0 93 48 178t133 131t174 46zM389 763q-82 0 -159.5 -42t-121 -119.5t-43.5 -162.5q0 -84 43 -161t120 -120t161 -43t161 43t120 120t43 161
q0 85 -43.5 162.5t-121 119.5t-159.5 42zM564 667l10 -140h-19q-18 60 -57.5 89t-94.5 29q-41 0 -73 -17t-52 -45q-15 -22 -25 -57.5t-10 -74.5q0 -106 45.5 -156.5t119.5 -50.5q98 0 156 81l19 -9q-70 -102 -192 -102q-100 0 -165.5 65t-65.5 157q0 96 70 164t179 68
q23 0 38 -3t54 -16q13 -4 19 -4q8 0 13.5 4t10.5 18h20z" />
    <glyph glyph-name="guillemotleft" unicode="&#xab;" horiz-adv-x="743" 
d="M258 163l142 -293h-63l-223 293l223 294h63zM506 163l141 -293h-62l-228 293l227 294h63z" />
    <glyph glyph-name="registered" unicode="&#xae;" horiz-adv-x="778" 
d="M389 794q89 0 174 -46t133 -131t48 -178q0 -92 -47 -176.5t-131.5 -131t-176.5 -46.5t-176.5 46.5t-131.5 131t-47 176.5q0 93 48 178t133 131t174 46zM389 763q-82 0 -159.5 -42t-121 -119.5t-43.5 -162.5q0 -84 43 -161t120 -120t161 -43t161 43t120 120t43 161
q0 85 -43.5 162.5t-121 119.5t-159.5 42zM193 657h193q72 0 110 -32.5t38 -79.5q0 -38 -25.5 -66.5t-85.5 -44.5l105 -149q19 -26 34 -36q9 -6 26 -8v-16h-92l-147 202h-38v-154q3 -17 14.5 -24.5t44.5 -7.5v-16h-183v16q24 0 34 6t14 17q4 8 4 46v262q0 37 -2 43
q-3 12 -12.5 18t-31.5 6v18zM311 449q59 0 86.5 11.5t42 32t14.5 47.5q0 40 -28.5 67.5t-72.5 27.5q-19 0 -42 -8v-178z" />
    <glyph glyph-name="plusminus" unicode="&#xb1;" horiz-adv-x="562" 
d="M4 171v40h249v209h-249v41h249v249h40v-249h250v-41h-250v-209h251v-40h-540z" />
    <glyph glyph-name="acute" unicode="&#xb4;" horiz-adv-x="341" 
d="M283 795l-148 -172h-17l53 172h112z" />
    <glyph glyph-name="periodcentered" unicode="&#xb7;" horiz-adv-x="271" 
d="M214 370q0 -16 -6 -29.5t-16.5 -24.5t-23.5 -17t-28 -6t-28.5 6t-24 17t-16.5 24.5t-6 29.5t6 30t16.5 25t24 16.5t28.5 5.5t28 -5.5t23.5 -16.5t16.5 -25t6 -30z" />
    <glyph glyph-name="guillemotright" unicode="&#xbb;" horiz-adv-x="743" 
d="M361 457h62l224 -294l-224 -293h-62l142 293zM114 457h62l228 -294l-228 -293h-62l140 293z" />
    <glyph glyph-name="multiply" unicode="&#xd7;" horiz-adv-x="634" 
d="M43 213l232 232l-231 231l38 38l231 -231l231 231l37 -37l-231 -231l232 -233l-37 -38l-233 233l-232 -232z" />
    <glyph glyph-name="agrave" unicode="&#xe0;" horiz-adv-x="599" 
d="M530 -15h-120v59h21q-50 -71 -149 -71q-104 0 -173.5 81.5t-69.5 210.5q0 134 65.5 213.5t173.5 79.5q103 0 153 -73h-21v61h120v-561zM292 77q52 0 89 43.5t37 136.5t-34 145t-96 52t-94.5 -50.5t-32.5 -138.5q0 -63 18 -105t49 -62.5t64 -20.5zM383 590h-105l-135 171
h158z" />
    <glyph glyph-name="aacute" unicode="&#xe1;" horiz-adv-x="599" 
d="M530 -15h-120v59h21q-50 -71 -149 -71q-104 0 -173.5 81.5t-69.5 210.5q0 134 65.5 213.5t173.5 79.5q103 0 153 -73h-21v61h120v-561zM292 77q52 0 89 43.5t37 136.5t-34 145t-96 52t-94.5 -50.5t-32.5 -138.5q0 -63 18 -105t49 -62.5t64 -20.5zM462 761l-134 -171h-105
l80 171h159z" />
    <glyph glyph-name="divide" unicode="&#xf7;" horiz-adv-x="562" 
d="M281 638q18 0 30.5 -13t12.5 -31t-12.5 -30.5t-31.5 -12.5q-18 0 -30.5 12.5t-12.5 30.5t12.5 31t31.5 13zM550 420h-539v41h539v-41zM281 328q18 0 31 -13t13 -31t-13 -31t-31 -13t-31 13t-13 31t12.5 31t31.5 13z" />
    <glyph glyph-name="amacron" unicode="&#x101;" horiz-adv-x="599" 
d="M530 -15h-120v59h21q-50 -71 -149 -71q-104 0 -173.5 81.5t-69.5 210.5q0 134 65.5 213.5t173.5 79.5q103 0 153 -73h-21v61h120v-561zM292 77q52 0 89 43.5t37 136.5t-34 145t-96 52t-94.5 -50.5t-32.5 -138.5q0 -63 18 -105t49 -62.5t64 -20.5zM469 624h-342v105h342
v-105z" />
    <glyph glyph-name="omacron" unicode="&#x14d;" horiz-adv-x="599" 
d="M300 558q113 0 188.5 -74.5t75.5 -209.5q0 -164 -81.5 -232.5t-182.5 -68.5q-107 0 -185.5 70.5t-78.5 221.5q0 146 76 219.5t188 73.5zM300 77q69 0 105.5 52t36.5 140q0 93 -41.5 139t-100.5 46q-62 0 -102 -46.5t-40 -142.5q0 -95 41 -141.5t101 -46.5zM469 624h-342
v105h342v-105z" />
    <glyph glyph-name="uni018F" unicode="&#x18f;" horiz-adv-x="724" 
d="M692 372q0 -184 -89.5 -285.5t-240.5 -101.5q-152 0 -240 101q-43 50 -66 122.5t-23 237.5h551q-12 94 -56 152q-30 39 -71 58t-95 19q-124 0 -208 -73h-7v110q41 19 98 33q66 15 117 15q152 0 240 -101q90 -102 90 -287zM589 357h-453q3 -121 53 -197q60 -90 174 -90
t173 90q50 75 53 197z" />
    <glyph glyph-name="uni01CE" unicode="&#x1ce;" horiz-adv-x="599" 
d="M530 -15h-120v59h21q-50 -71 -149 -71q-104 0 -173.5 81.5t-69.5 210.5q0 134 65.5 213.5t173.5 79.5q103 0 153 -73h-21v61h120v-561zM292 77q52 0 89 43.5t37 136.5t-34 145t-96 52t-94.5 -50.5t-32.5 -138.5q0 -63 18 -105t49 -62.5t64 -20.5zM491 761l-133 -171h-109
l-136 171h141l46 -73l50 73h141z" />
    <glyph glyph-name="uni0259" unicode="&#x259;" horiz-adv-x="539" 
d="M510 285q0 -127 -65 -209q-70 -89 -194 -89q-104 0 -162 62q-62 66 -62 192v51h387q0 92 -45 145q-48 55 -139 55q-60 0 -115 -25q-45 -21 -72 -42h-5v102q28 12 85 32q56 15 106 15q136 0 209 -76q72 -76 72 -213zM414 220h-295q2 -74 32 -112q34 -43 106 -43
q68 0 111 44q40 41 46 111z" />
    <glyph glyph-name="uni0401" unicode="&#x401;" horiz-adv-x="574" 
d="M75 0v745h465v-88h-366v-204h341v-88h-341v-277h366v-88h-465zM482 839h-100v97h100v-97zM276 839h-101v97h101v-97z" />
    <glyph glyph-name="uni0406" unicode="&#x406;" horiz-adv-x="382" 
d="M335 0h-289v76h95v593h-95v76h289v-76h-95v-593h95v-76z" />
    <glyph glyph-name="afii10017" unicode="&#x410;" horiz-adv-x="614" 
d="M-5 0l251 745h122l251 -745h-104l-68 208h-284l-68 -208h-100zM420 293l-115 351l-115 -351h230z" />
    <glyph glyph-name="uni0411" unicode="&#x411;" horiz-adv-x="603" 
d="M582 231q0 -54 -21 -98t-57 -72q-42 -33 -90 -47t-124 -14h-215v745h453v-88h-354v-204h119q76 0 124 -9t91 -42q38 -29 56 -72.5t18 -98.5zM478 229q0 37 -12 65.5t-39 46.5t-63 22t-102 4h-88v-282h86q66 0 102 6.5t63 24.5q28 20 40.5 46t12.5 67z" />
    <glyph glyph-name="uni0412" unicode="&#x412;" horiz-adv-x="603" 
d="M580 229q0 -56 -21 -98.5t-57 -69.5q-42 -33 -90 -47t-124 -14h-213v745h197q80 0 119.5 -5.5t76.5 -24.5q40 -22 58.5 -56.5t18.5 -81.5q0 -53 -28 -94.5t-77 -64.5v-4q67 -18 103.5 -66t36.5 -119zM442 563q0 27 -9 46.5t-29 31.5q-24 13 -53.5 16t-81.5 3h-95v-218
h112q47 0 69 5t45 20q23 14 32.5 37.5t9.5 58.5zM477 225q0 42 -12 69t-49 46q-23 13 -51 16.5t-79 3.5h-112v-275h80q65 0 102.5 6t66.5 25q28 20 41 44.5t13 64.5z" />
    <glyph glyph-name="uni0413" unicode="&#x413;" horiz-adv-x="519" 
d="M516 657h-342v-657h-99v745h441v-88z" />
    <glyph glyph-name="uni0414" unicode="&#x414;" horiz-adv-x="700" 
d="M680 -168h-94v170h-483v-170h-94v256h41q65 107 104.5 279.5t39.5 377.5h416v-657h70v-256zM511 88v571h-224q-7 -181 -45 -328t-97 -243h366z" />
    <glyph glyph-name="uni0415" unicode="&#x415;" horiz-adv-x="574" 
d="M75 0v745h465v-88h-366v-204h341v-88h-341v-277h366v-88h-465z" />
    <glyph glyph-name="uni0416" unicode="&#x416;" horiz-adv-x="915" 
d="M922 0h-122l-248 343h-48v-343h-98v343h-49l-248 -343h-116l281 384q-32 21 -56.5 53t-47.5 106q-20 64 -42.5 88.5t-86.5 24.5h-20v89h25q84 0 129.5 -32t76.5 -118q7 -22 14.5 -43t13.5 -34q22 -54 52.5 -79.5t73.5 -29.5v336h98v-337q46 4 77.5 29t54.5 81
q9 22 16 42.5t12 34.5q30 85 76.5 117.5t128.5 32.5h26v-89h-20q-64 0 -87.5 -24.5t-43.5 -88.5q-21 -67 -48 -100t-58 -53z" />
    <glyph glyph-name="uni0417" unicode="&#x417;" horiz-adv-x="545" 
d="M460 359q25 -21 41 -53.5t16 -83.5q0 -50 -20 -92.5t-55 -74.5q-36 -33 -89 -50.5t-118 -17.5q-69 0 -127 13.5t-93 28.5v111h7q40 -26 97 -46.5t115 -20.5q36 0 72.5 10t60.5 32q25 22 36.5 47.5t11.5 64.5q0 38 -14 64t-39 42q-24 16 -58.5 23t-73.5 7h-78v83h68
q79 0 127 31.5t48 91.5q0 28 -11.5 47.5t-33.5 32.5q-23 13 -49 18t-56 5q-32 0 -63 -7.5t-59 -17.5q-26 -11 -45.5 -22.5t-31.5 -18.5h-7v109q34 16 92.5 29.5t115.5 13.5q58 0 99.5 -9.5t75.5 -31.5q38 -25 56.5 -58t18.5 -79q0 -61 -40 -106t-105 -59v-7q25 -5 54 -16.5
t54 -32.5z" />
    <glyph glyph-name="uni0418" unicode="&#x418;" horiz-adv-x="686" 
d="M610 0h-99v591l-336 -591h-100v745h98v-582l332 582h105v-745z" />
    <glyph glyph-name="uni0419" unicode="&#x419;" horiz-adv-x="686" 
d="M610 0h-99v591l-336 -591h-100v745h98v-582l332 582h105v-745zM537 968q-2 -75 -47.5 -121t-137.5 -46t-137.5 46t-47.5 121h89q1 -56 25 -81t71 -25t71 24.5t25 81.5h89z" />
    <glyph glyph-name="uni041A" unicode="&#x41a;" horiz-adv-x="617" 
d="M625 0h-126l-263 341h-62v-341h-99v745h99v-336q58 2 92.5 29.5t55.5 79.5q9 22 16.5 42.5t11.5 34.5q30 85 76.5 117.5t129.5 32.5h30v-89h-25q-61 0 -85.5 -23.5t-44.5 -89.5q-21 -66 -46.5 -97t-61.5 -54z" />
    <glyph glyph-name="uni041B" unicode="&#x41b;" horiz-adv-x="694" 
d="M618 0h-99v657h-251q-2 -57 -4.5 -110.5t-3.5 -96.5q-4 -105 -13 -174t-23 -116q-13 -45 -31.5 -73t-39.5 -47q-23 -21 -48.5 -31t-59.5 -10q-11 0 -21.5 0.5t-16.5 0.5v96h7q5 0 8.5 -0.5t10.5 -0.5q18 0 33.5 5.5t26.5 16.5q34 34 49.5 119.5t22.5 230.5
q2 49 4.5 129.5t4.5 148.5h444v-745z" />
    <glyph glyph-name="uni041C" unicode="&#x41c;" horiz-adv-x="789" 
d="M713 0h-99v642l-194 -437h-60l-193 437v-642h-92v745h135l186 -415l179 415h138v-745z" />
    <glyph glyph-name="uni041D" unicode="&#x41d;" horiz-adv-x="691" 
d="M615 0h-99v365h-342v-365h-99v745h99v-292h342v292h99v-745z" />
    <glyph glyph-name="uni041E" unicode="&#x41e;" horiz-adv-x="724" 
d="M602 659q43 -49 66.5 -121.5t23.5 -165.5q0 -90 -23 -163t-67 -123q-45 -52 -106 -76.5t-134 -24.5q-75 0 -135.5 25.5t-104.5 75.5q-43 50 -66 122.5t-23 163.5q0 94 23.5 165t66.5 122q43 50 103.5 75.5t135.5 25.5q76 0 137 -26.5t103 -74.5zM589 372q0 74 -16 131
t-45 95q-30 38 -71.5 57.5t-93.5 19.5q-54 0 -94.5 -19t-71.5 -58q-29 -38 -45 -95.5t-16 -130.5q0 -146 61.5 -224t165.5 -78q103 0 164.5 78t61.5 224z" />
    <glyph glyph-name="uni041F" unicode="&#x41f;" horiz-adv-x="691" 
d="M615 0h-99v657h-342v-657h-99v745h540v-745z" />
    <glyph glyph-name="uni0420" unicode="&#x420;" horiz-adv-x="564" 
d="M545 520q0 -48 -17.5 -91.5t-47.5 -73.5q-39 -38 -91 -57.5t-131 -19.5h-84v-278h-99v745h187q66 0 112.5 -11t81.5 -36q42 -28 65.5 -72t23.5 -106zM442 518q0 38 -13.5 66.5t-40.5 46.5q-23 16 -54.5 22.5t-77.5 6.5h-82v-298h67q60 0 97 10t62 35q22 22 32 48.5
t10 62.5z" />
    <glyph glyph-name="uni0421" unicode="&#x421;" horiz-adv-x="615" 
d="M367 -13q-73 0 -134.5 24.5t-105.5 72.5q-45 49 -69.5 121.5t-24.5 166.5q0 93 24 162.5t69 121.5q45 50 106 76t136 26q38 0 70.5 -5.5t60.5 -13.5q24 -8 49.5 -19t49.5 -25v-119h-8q-13 12 -33.5 29t-49.5 33t-62.5 26t-77.5 10q-47 0 -89.5 -19.5t-74.5 -57.5
t-49.5 -95.5t-17.5 -129.5q0 -77 18.5 -132t50.5 -93q31 -37 73 -56t89 -19q43 0 79.5 10.5t65.5 26.5q27 16 47 32t32 28h7v-118q-24 -12 -46 -22.5t-53 -20.5q-32 -10 -60 -15.5t-72 -5.5z" />
    <glyph glyph-name="uni0422" unicode="&#x422;" horiz-adv-x="598" 
d="M250 0v657h-250v88h599v-88h-250v-657h-99z" />
    <glyph glyph-name="uni0423" unicode="&#x423;" horiz-adv-x="589" 
d="M596 745l-270 -627q-17 -40 -38.5 -64t-44.5 -36t-45 -16t-45 -4q-20 0 -47 1t-34 1v93h7q7 -1 22.5 -2.5t38.5 -1.5q11 0 26 1.5t28 7.5q14 7 27 18.5t23 37.5l17 39l-261 552h109l202 -438l183 438h102z" />
    <glyph glyph-name="uni0424" unicode="&#x424;" horiz-adv-x="766" 
d="M734 380q0 -69 -21 -122.5t-59 -89.5q-40 -40 -99 -62t-122 -23v-91h-99v91q-62 2 -121 22.5t-101 61.5q-37 36 -58 90t-21 123q0 65 20 117t56 89q39 40 97 63t128 25v83h99v-83q70 -1 128.5 -24.5t97.5 -62.5q36 -37 55.5 -88.5t19.5 -118.5zM631 384q0 50 -14 90.5
t-42 69.5q-26 27 -60.5 40t-81.5 14v-440q45 1 80 14.5t58 36.5q31 30 45.5 73t14.5 102zM334 158v440q-47 -1 -81.5 -14.5t-60.5 -39.5q-28 -28 -42 -69.5t-14 -90.5q0 -59 14.5 -102t45.5 -73q23 -22 58 -36.5t80 -14.5z" />
    <glyph glyph-name="uni0425" unicode="&#x425;" horiz-adv-x="594" 
d="M591 0h-114l-181 298l-185 -298h-107l237 373l-230 372h113l178 -293l181 293h107l-233 -367z" />
    <glyph glyph-name="uni0426" unicode="&#x426;" horiz-adv-x="701" 
d="M681 -168h-94v168h-512v745h99v-658h337v658h99v-658h71v-255z" />
    <glyph glyph-name="uni0427" unicode="&#x427;" horiz-adv-x="651" 
d="M575 0h-99v315q-61 -20 -108.5 -30t-99.5 -10q-48 0 -88 12t-71 38q-30 26 -46.5 67t-16.5 97v256h99v-207q0 -47 3.5 -74t19.5 -52q15 -22 43.5 -34t75.5 -12q43 0 96.5 10t92.5 24v345h99v-745z" />
    <glyph glyph-name="uni0428" unicode="&#x428;" horiz-adv-x="966" 
d="M890 0h-815v745h99v-659h259v659h99v-659h259v659h99v-745z" />
    <glyph glyph-name="uni0429" unicode="&#x429;" horiz-adv-x="981" 
d="M960 -168h-94v168h-791v745h99v-659h259v659h99v-659h259v659h99v-659h70v-254z" />
    <glyph glyph-name="uni042A" unicode="&#x42a;" horiz-adv-x="706" 
d="M687 231q0 -54 -21 -98t-56 -72q-42 -33 -90 -47t-124 -14h-202v657h-194v88h293v-292h106q76 0 124 -9t90 -42q38 -29 56 -72.5t18 -98.5zM584 229q0 37 -12.5 65.5t-38.5 46.5q-28 18 -64 22t-101 4h-75v-282h72q67 0 102.5 6.5t62.5 24.5q28 20 41 46t13 67z" />
    <glyph glyph-name="uni042B" unicode="&#x42b;" horiz-adv-x="807" 
d="M566 231q0 -54 -21 -98t-57 -72q-42 -33 -90 -47t-124 -14h-199v745h99v-292h103q76 0 124 -9t91 -42q38 -29 56 -72.5t18 -98.5zM462 229q0 37 -12 65.5t-39 46.5t-63 22t-102 4h-72v-282h70q66 0 102 6.5t63 24.5q28 20 40.5 46t12.5 67zM731 0h-99v745h99v-745z" />
    <glyph glyph-name="uni042C" unicode="&#x42c;" horiz-adv-x="596" 
d="M577 231q0 -54 -21 -98t-57 -72q-42 -33 -90 -47t-124 -14h-210v745h99v-292h114q76 0 124 -9t91 -42q38 -29 56 -72.5t18 -98.5zM473 229q0 37 -12 65.5t-39 46.5t-63 22t-102 4h-83v-282h81q66 0 102 6.5t63 24.5q28 20 40.5 46t12.5 67z" />
    <glyph glyph-name="uni042D" unicode="&#x42d;" horiz-adv-x="614" 
d="M580 375q0 -177 -93.5 -282.5t-245.5 -105.5q-64 0 -120.5 12.5t-99.5 32.5v110h7q36 -33 91.5 -52t118.5 -19q108 0 175.5 78.5t67.5 206.5h-363v87h358q-12 108 -75 169.5t-163 61.5q-61 0 -114.5 -19t-93.5 -53h-7v110q40 19 98 32.5t121 13.5q161 0 249.5 -99.5
t88.5 -283.5z" />
    <glyph glyph-name="uni042E" unicode="&#x42e;" horiz-adv-x="974" 
d="M940 372q0 -184 -89 -285.5t-237 -101.5t-234 99t-89 276h-117v-360h-99v745h99v-298h122q18 150 102 231.5t216 81.5q148 0 237 -101t89 -287zM837 372q0 148 -60 225.5t-162 77.5q-104 0 -164 -77.5t-60 -225.5q0 -146 60.5 -224t163.5 -78q102 0 162 77.5t60 224.5z
" />
    <glyph glyph-name="uni042F" unicode="&#x42f;" horiz-adv-x="626" 
d="M551 0h-99v296h-113l-222 -296h-119l239 311q-75 26 -116.5 79t-41.5 143q0 57 24 98t63 69q35 25 82.5 35t105.5 10h197v-745zM452 379v281h-103q-43 0 -69 -5.5t-48 -20.5q-23 -15 -36 -43t-13 -62q0 -40 9.5 -66.5t29.5 -46.5q23 -22 55.5 -29.5t75.5 -7.5h99z" />
    <glyph glyph-name="uni0430" unicode="&#x430;" horiz-adv-x="537" 
d="M380 138v155q-33 -3 -84.5 -8.5t-82.5 -14.5q-38 -12 -62.5 -35.5t-24.5 -66.5q0 -48 27 -72.5t79 -24.5q45 0 81 19.5t67 47.5zM380 60q-11 -9 -30.5 -24t-37.5 -24q-25 -13 -48 -20t-65 -7q-35 0 -66 13t-54 36t-36.5 57t-13.5 71q0 58 24.5 99t77.5 65q47 21 111 29.5
t138 12.5v18q0 33 -10 53t-28 31q-18 12 -44 15.5t-53 3.5q-33 0 -77 -9.5t-88 -28.5h-5v96q26 7 74.5 16t95.5 9q58 0 97.5 -9t70.5 -32t46 -59.5t15 -89.5v-382h-94v60z" />
    <glyph glyph-name="uni0431" unicode="&#x431;" horiz-adv-x="563" 
d="M463 476q33 -33 51 -83.5t18 -117.5q0 -65 -20.5 -119.5t-55.5 -92.5q-36 -39 -80 -58.5t-95 -19.5q-53 0 -96.5 18t-74.5 56q-39 48 -58 119.5t-19 176.5q0 38 3 76.5t14 92.5q10 48 27 89.5t45 69.5q35 37 92.5 59t151.5 31q34 3 72 5.5t58 4.5v-87q-26 -1 -55.5 -3.5
t-67.5 -5.5q-50 -4 -105 -17.5t-83 -42.5q-21 -22 -33.5 -62t-17.5 -89q37 27 79 45t91 18q46 0 87 -15t72 -48zM436 269q0 89 -40 136.5t-114 47.5q-40 0 -78 -13.5t-72 -35.5q-1 -13 -2 -30t-1 -31q0 -87 14 -141.5t39 -85.5q23 -28 48 -39t54 -11q72 0 112 54.5t40 148.5
z" />
    <glyph glyph-name="uni0432" unicode="&#x432;" horiz-adv-x="537" 
d="M506 169q0 -40 -15.5 -71.5t-42.5 -52.5q-34 -26 -71 -35.5t-89 -9.5h-220v559h205q62 0 90.5 -4t56.5 -19q29 -16 43 -42.5t14 -63.5q0 -40 -22 -71.5t-58 -49.5l2 -3q46 -12 76.5 -47t30.5 -90zM381 416q0 19 -6.5 33t-21.5 22q-18 9 -40.5 11t-61.5 2h-90v-153h108
q35 0 49.5 3t31.5 14q17 10 24 27t7 41zM409 169q0 28 -8 45.5t-36 30.5q-18 9 -38 11t-55 2h-111v-183h82q50 0 78 4t48 16q21 13 30.5 30t9.5 44z" />
    <glyph glyph-name="uni0433" unicode="&#x433;" horiz-adv-x="425" 
d="M423 476h-261v-476h-94v559h355v-83z" />
    <glyph glyph-name="uni0434" unicode="&#x434;" horiz-adv-x="571" 
d="M547 -134h-87v136h-368v-136h-88v214h37q48 78 78 204t30 275h343v-479h55v-214zM398 80v400h-160q-7 -125 -34.5 -228.5t-69.5 -171.5h264z" />
    <glyph glyph-name="uni0435" unicode="&#x435;" horiz-adv-x="539" 
d="M310 -13q-134 0 -207.5 75.5t-73.5 213.5q0 137 71.5 217.5t186.5 80.5q52 0 92 -15t70 -47t46 -78t16 -113v-51h-387q0 -98 49 -149.5t136 -51.5q31 0 60.5 7t53.5 18q26 12 43.5 22.5t28.5 20.5h6v-103q-17 -6 -41.5 -16t-43.5 -15q-28 -8 -50 -12t-56 -4zM420 342
q-1 38 -9 65.5t-23 46.5q-17 21 -42.5 32t-63.5 11t-64 -11.5t-48 -32.5q-21 -22 -32 -49t-14 -62h296z" />
    <glyph glyph-name="uni0436" unicode="&#x436;" horiz-adv-x="748" 
d="M746 0h-113l-176 257h-36v-257h-93v257h-37l-178 -257h-109l211 293q-25 13 -44 37.5t-34 71.5q-13 43 -31.5 59.5t-60.5 16.5h-22v81h26q61 0 101 -25t62 -88q5 -13 11.5 -29.5t11.5 -28.5q17 -38 39 -55t54 -19v245h93v-245q32 3 54.5 20t38.5 54q6 13 12.5 29.5
t10.5 28.5q22 62 61 87.5t102 25.5h25v-81h-21q-40 0 -59.5 -16.5t-33.5 -59.5t-33 -68t-42 -38z" />
    <glyph glyph-name="uni0437" unicode="&#x437;" horiz-adv-x="468" 
d="M438 155q0 -47 -20.5 -79.5t-52.5 -51.5q-30 -19 -69 -28t-78 -9q-55 0 -104 11t-98 34v104h6q34 -31 85.5 -49.5t102.5 -18.5q22 0 47 5t43 15q23 14 32.5 30t9.5 44q0 30 -11 48t-31 27q-19 9 -43.5 11.5t-51.5 2.5h-66v81h51q19 0 47.5 1t45.5 8q21 8 34 22.5t13 49.5
q0 25 -11 40t-27 23q-17 9 -37 12.5t-39 3.5q-47 0 -91 -13.5t-75 -39.5h-6v102q36 12 79.5 21.5t87.5 9.5q36 0 72.5 -7t69.5 -25q31 -17 52 -46.5t21 -72.5q0 -46 -25.5 -80t-68.5 -45v-4q47 -16 76.5 -49t29.5 -88z" />
    <glyph glyph-name="uni0438" unicode="&#x438;" horiz-adv-x="577" 
d="M509 0h-93v417l-263 -417h-85v559h93v-410l260 410h88v-559z" />
    <glyph glyph-name="uni0439" unicode="&#x439;" horiz-adv-x="577" 
d="M509 0h-93v417l-263 -417h-85v559h93v-410l260 410h88v-559zM467 818q0 -43 -10.5 -78t-29.5 -59q-23 -27 -51.5 -40t-72.5 -13q-41 0 -72 13.5t-52 39.5q-20 25 -30.5 60t-10.5 77h81q0 -67 21 -97t63 -30q39 0 61 29.5t22 97.5h81z" />
    <glyph glyph-name="uni043A" unicode="&#x43a;" horiz-adv-x="510" 
d="M518 0h-117l-192 258h-47v-258h-94v559h94v-243q37 0 62.5 15t43.5 57q6 13 12.5 29.5t10.5 28.5q22 62 61 87.5t102 25.5h25v-81h-21q-40 0 -59.5 -16.5t-33.5 -59.5t-33 -67.5t-42 -37.5z" />
    <glyph glyph-name="uni043B" unicode="&#x43b;" horiz-adv-x="568" 
d="M500 0h-94v480h-192q-2 -42 -3.5 -80t-2.5 -69q-3 -79 -10.5 -132t-18.5 -85q-11 -33 -24 -51.5t-30 -33.5t-36.5 -22.5t-43.5 -7.5q-8 0 -20.5 0.5t-17.5 0.5v82h5q3 0 7 -0.5t9 -0.5q12 0 23.5 3.5t20.5 13.5q25 24 36.5 85.5t16.5 171.5q2 41 3.5 97t3.5 107h368v-559
z" />
    <glyph glyph-name="uni043C" unicode="&#x43c;" horiz-adv-x="654" 
d="M586 0h-93v439l-134 -285h-70l-133 285v-439h-88v559h114l147 -310l142 310h115v-559z" />
    <glyph glyph-name="uni043D" unicode="&#x43d;" horiz-adv-x="576" 
d="M509 0h-94v252h-253v-252h-94v559h94v-226h253v226h94v-559z" />
    <glyph glyph-name="uni043E" unicode="&#x43e;" horiz-adv-x="556" 
d="M527 279q0 -141 -68 -217.5t-181 -76.5q-117 0 -183.5 79t-66.5 215q0 140 68.5 217.5t181.5 77.5t181 -77t68 -218zM430 279q0 109 -39.5 161.5t-112.5 52.5q-74 0 -113.5 -52.5t-39.5 -161.5q0 -105 39.5 -159t113.5 -54q72 0 112 53t40 160z" />
    <glyph glyph-name="uni043F" unicode="&#x43f;" horiz-adv-x="577" 
d="M509 0h-94v478h-253v-478h-94v559h441v-559z" />
    <glyph glyph-name="uni0440" unicode="&#x440;" horiz-adv-x="566" 
d="M537 294q0 -139 -67 -222t-169 -83q-41 0 -73 9.5t-66 29.5v-234h-94v765h94v-59q35 32 78 53t93 21q96 0 150 -76t54 -204zM440 284q0 95 -30.5 148t-99.5 53q-40 0 -77 -18t-71 -46v-316q37 -18 63.5 -24.5t60.5 -6.5q73 0 113.5 53.5t40.5 156.5z" />
    <glyph glyph-name="uni0441" unicode="&#x441;" horiz-adv-x="472" 
d="M289 -12q-57 0 -105 17.5t-83 53.5q-34 36 -53 91t-19 129q0 73 19.5 126.5t52.5 90.5q33 36 82.5 56t105.5 20q46 0 89 -13t76 -30v-106h-5q-10 9 -26 20t-38 22q-20 10 -46.5 17.5t-50.5 7.5q-73 0 -117.5 -55t-44.5 -156q0 -99 43 -154.5t119 -55.5q46 0 87.5 19
t73.5 49h5v-105q-14 -7 -35 -16t-38 -14q-24 -7 -43 -10.5t-49 -3.5z" />
    <glyph glyph-name="uni0442" unicode="&#x442;" horiz-adv-x="478" 
d="M476 476h-190v-476h-94v476h-190v83h474v-83z" />
    <glyph glyph-name="uni0443" unicode="&#x443;" horiz-adv-x="510" 
d="M507 559l-300 -765h-101l100 233l-203 532h102l152 -414l152 414h98z" />
    <glyph glyph-name="uni0444" unicode="&#x444;" horiz-adv-x="778" 
d="M747 294q0 -74 -18 -131.5t-48 -94.5q-31 -37 -69.5 -56.5t-80.5 -19.5q-31 0 -55 12t-40 21v-231h-93v231q-30 -16 -47.5 -24.5t-57.5 -8.5q-94 0 -150.5 76.5t-56.5 209.5q0 70 18 125t50 93q29 36 67 55.5t80 19.5q29 0 53 -10t44 -23v240h93v-240q22 13 50.5 23
t58.5 10q94 0 148 -75t54 -202zM651 284q0 95 -32.5 150.5t-95.5 55.5q-26 0 -45.5 -6.5t-41.5 -14.5v-373q22 -10 35.5 -16.5t40.5 -6.5q65 0 102 53.5t37 157.5zM343 96v373q-18 8 -36 14.5t-40 6.5q-64 0 -101.5 -50.5t-37.5 -157.5q0 -97 33.5 -153t96.5 -56
q25 0 45 7.5t40 15.5z" />
    <glyph glyph-name="uni0445" unicode="&#x445;" horiz-adv-x="507" 
d="M502 0h-115l-136 211l-139 -211h-107l194 277l-192 282h116l134 -209l138 209h107l-193 -275z" />
    <glyph glyph-name="uni0446" unicode="&#x446;" horiz-adv-x="585" 
d="M561 -134h-87v134h-406v559h94v-478h250v478h94v-478h55v-215z" />
    <glyph glyph-name="uni0447" unicode="&#x447;" horiz-adv-x="556" 
d="M488 0h-94v218q-44 -14 -85.5 -22t-81.5 -8q-36 0 -69.5 9t-58.5 30q-24 21 -37.5 54t-13.5 77v201h94v-152q0 -37 3 -58.5t17 -42.5q11 -17 34.5 -26.5t61.5 -9.5q33 0 70.5 6.5t65.5 15.5v267h94v-559z" />
    <glyph glyph-name="uni0448" unicode="&#x448;" horiz-adv-x="797" 
d="M729 0h-661v559h94v-479h190v479h94v-479h189v479h94v-559z" />
    <glyph glyph-name="uni0449" unicode="&#x449;" horiz-adv-x="809" 
d="M785 -134h-88v134h-629v559h94v-479h190v479h94v-479h189v479h94v-479h56v-214z" />
    <glyph glyph-name="uni044A" unicode="&#x44a;" horiz-adv-x="582" 
d="M561 173q0 -40 -16 -73t-44 -54q-33 -25 -70.5 -35.5t-96.5 -10.5h-190v476h-142v83h236v-218h98q63 0 98 -6.5t69 -31.5q29 -22 43.5 -55.5t14.5 -74.5zM464 172q0 25 -8.5 44.5t-28.5 31.5q-21 12 -48 14.5t-77 2.5h-64v-190h62q50 0 77.5 4.5t47.5 16.5q21 13 30 30.5
t9 45.5z" />
    <glyph glyph-name="uni044B" unicode="&#x44b;" horiz-adv-x="709" 
d="M483 173q0 -40 -16.5 -73t-44.5 -54q-33 -25 -70.5 -35.5t-96.5 -10.5h-187v559h94v-218h96q63 0 97.5 -6.5t69.5 -31.5q29 -22 43.5 -55.5t14.5 -74.5zM386 172q0 25 -9 44.5t-29 31.5q-21 12 -47.5 14.5t-76.5 2.5h-62v-190h60q50 0 77.5 4.5t47.5 16.5
q20 13 29.5 30.5t9.5 45.5zM642 0h-94v559h94v-559z" />
    <glyph glyph-name="uni044C" unicode="&#x44c;" horiz-adv-x="512" 
d="M491 173q0 -40 -16 -73t-44 -54q-33 -25 -70.5 -35.5t-96.5 -10.5h-196v559h94v-218h104q63 0 98 -6.5t69 -31.5q29 -22 43.5 -55.5t14.5 -74.5zM394 172q0 25 -8.5 44.5t-28.5 31.5q-21 12 -48 14.5t-77 2.5h-70v-190h68q50 0 77.5 4.5t47.5 16.5q21 13 30 30.5t9 45.5z
" />
    <glyph glyph-name="uni044D" unicode="&#x44d;" horiz-adv-x="482" 
d="M21 128h6q11 -9 27.5 -19.5t38.5 -19.5q24 -10 46 -15.5t54 -5.5q72 0 115.5 48.5t49.5 140.5h-254v76h254q-9 79 -52.5 118.5t-107.5 39.5q-28 0 -52.5 -6t-47.5 -17q-19 -9 -34 -19.5t-28 -21.5h-6v103q26 12 74.5 27t91.5 15q57 0 104 -17t81 -52q34 -36 52.5 -87.5
t18.5 -124.5q0 -140 -72 -221.5t-194 -81.5q-45 0 -88.5 11.5t-76.5 25.5v103z" />
    <glyph glyph-name="uni044E" unicode="&#x44e;" horiz-adv-x="780" 
d="M752 279q0 -140 -68 -217t-179 -77q-110 0 -174 72t-70 197h-99v-254h-94v559h94v-228h101q11 114 75.5 178.5t166.5 64.5q117 0 182 -80t65 -215zM655 279q0 107 -39.5 160.5t-110.5 53.5q-73 0 -112 -54t-39 -160q0 -105 39.5 -159t111.5 -54q71 0 110.5 52.5
t39.5 160.5z" />
    <glyph glyph-name="uni044F" unicode="&#x44f;" horiz-adv-x="540" 
d="M472 0h-94v222h-93l-166 -222h-109l179 230q-69 21 -101.5 61.5t-32.5 108.5q0 41 18.5 72.5t49.5 52.5q25 17 63 25.5t85 8.5h201v-559zM378 296v188h-102q-33 0 -51.5 -3.5t-36.5 -13.5q-18 -11 -27 -30t-9 -40q0 -28 6 -45t23 -32t42.5 -19.5t55.5 -4.5h99z" />
    <glyph glyph-name="uni0451" unicode="&#x451;" horiz-adv-x="539" 
d="M310 -13q-134 0 -207.5 75.5t-73.5 213.5q0 137 71.5 217.5t186.5 80.5q52 0 92 -15t70 -47t46 -78t16 -113v-51h-387q0 -98 49 -149.5t136 -51.5q31 0 60.5 7t53.5 18q26 12 43.5 22.5t28.5 20.5h6v-103q-17 -6 -41.5 -16t-43.5 -15q-28 -8 -50 -12t-56 -4zM420 342
q-1 38 -9 65.5t-23 46.5q-17 21 -42.5 32t-63.5 11t-64 -11.5t-48 -32.5q-21 -22 -32 -49t-14 -62h296zM439 652h-100v98h100v-98zM233 652h-101v98h101v-98z" />
    <glyph glyph-name="uni0456" unicode="&#x456;" horiz-adv-x="234" 
d="M163 0h-94v559h94v-559zM170 652h-107v98h107v-98z" />
    <glyph glyph-name="uni0492" unicode="&#x492;" horiz-adv-x="519" 
d="M516 657h-342v-235h259v-88h-259v-334h-99v334h-58v88h58v323h441v-88z" />
    <glyph glyph-name="uni0493" unicode="&#x493;" horiz-adv-x="425" 
d="M423 476h-261v-162h196v-82h-196v-232h-94v232h-45v82h45v245h355v-83z" />
    <glyph glyph-name="uni049A" unicode="&#x49a;" horiz-adv-x="649" 
d="M628 -168h-94v168h-35l-263 341h-62v-341h-99v745h99v-336q105 4 148 109q8 20 28 77q29 82 74.5 116t131.5 34h30v-89h-25q-61 0 -89 -27q-21 -21 -41 -86q-32 -102 -108 -151l235 -305h70v-255z" />
    <glyph glyph-name="uni049B" unicode="&#x49b;" horiz-adv-x="535" 
d="M511 -134h-87v134h-24l-191 258h-47v-258h-94v559h94v-243q76 1 106 72q4 9 13 29q2 6 10 29q40 113 163 113h25v-81h-21q-41 0 -62 -18q-18 -16 -31 -58q-24 -76 -75 -105l166 -216h55v-215z" />
    <glyph glyph-name="uni04A2" unicode="&#x4a2;" horiz-adv-x="706" 
d="M686 -168h-94v168h-76v365h-342v-365h-99v745h99v-292h342v292h99v-658h71v-255z" />
    <glyph glyph-name="uni04A3" unicode="&#x4a3;" horiz-adv-x="589" 
d="M565 -134h-88v134h-62v252h-253v-252h-94v559h94v-226h253v226h94v-478h56v-215z" />
    <glyph glyph-name="uni04AE" unicode="&#x4ae;" horiz-adv-x="590" 
d="M597 745l-252 -415v-330h-99v319l-251 426h110l192 -329l195 329h105z" />
    <glyph glyph-name="uni04AF" unicode="&#x4af;" horiz-adv-x="510" 
d="M507 559l-208 -532v-233h-93v233l-203 532h102l152 -414l152 414h98z" />
    <glyph glyph-name="uni04B0" unicode="&#x4b0;" horiz-adv-x="590" 
d="M597 745l-252 -413h195v-69h-195v-263h-99v263h-196v69h196l-251 413h110l192 -329l195 329h105z" />
    <glyph glyph-name="uni04B1" unicode="&#x4b1;" horiz-adv-x="510" 
d="M507 559l-208 -529h161v-69h-161v-167h-93v167h-156v69h156l-203 529h102l152 -414l152 414h98z" />
    <glyph glyph-name="uni04BA" unicode="&#x4ba;" horiz-adv-x="651" 
d="M604 0h-99v207q0 91 -24 126q-30 46 -119 46q-97 0 -188 -34v-345h-99v745h99v-315q122 40 208 40q101 0 158 -50q64 -54 64 -164v-256z" />
    <glyph glyph-name="uni04BB" unicode="&#x4bb;" horiz-adv-x="571" 
d="M507 0h-94v318q0 39 -3.5 72t-14.5 53q-11 21 -31.5 31.5t-56.5 10.5q-35 0 -72 -19t-73 -49v-417h-94v778h94v-281q42 37 83 57t87 20q82 0 128.5 -54t46.5 -157v-363z" />
    <glyph glyph-name="uni04E8" unicode="&#x4e8;" horiz-adv-x="724" 
d="M692 372q0 -184 -89.5 -285.5t-240.5 -101.5q-152 0 -240.5 102t-88.5 285t90 287q86 101 239 101q152 0 240 -101q90 -102 90 -287zM584 446q-12 94 -56 152q-60 77 -165 77q-106 0 -166 -77q-44 -56 -56 -152h443zM589 357h-453q3 -121 53 -197q60 -90 174 -90t173 90
q50 75 53 197z" />
    <glyph glyph-name="uni04E9" unicode="&#x4e9;" horiz-adv-x="556" 
d="M527 279q0 -128 -59 -207q-66 -87 -190 -87t-190 88q-60 79 -60 206q0 128 60 207q67 88 190 88q124 0 190 -88q59 -78 59 -207zM426 342q-21 151 -148 151q-129 0 -149 -151h297zM430 270h-305q3 -204 153 -204q148 0 152 204z" />
    <glyph glyph-name="uni060C" unicode="&#x60c;" horiz-adv-x="544" 
d="M224 60q-108 -1 -89 106q37 113 141 167q34 -2 31 -35q-61 -39 -75 -94q62 -11 63 -71.5t-71 -72.5z" />
    <glyph glyph-name="uni061B" unicode="&#x61b;" horiz-adv-x="546" 
d="M294 338q-105 -13 -93 84q3 50 41 99.5t87 82.5q29 7 37 -24q-59 -51 -72 -101q51 -7 47 -66t-47 -75zM276 89q-75 0 -75 70q0 74 67 78q80 -2 80 -76q-2 -69 -72 -72z" />
    <glyph glyph-name="uni061F" unicode="&#x61f;" horiz-adv-x="448" 
d="M235 755q-82 -30 -70 -127q15 -54 54 -99.5t44 -120.5v-97q-28 -102 -57 2v50q-16 70 -73 121t-73 128q-24 150 125 214q70 19 126.5 -8.5t82.5 -64.5q24 -51 13.5 -100t-62.5 -53q-49 4 -60.5 50t18.5 76q-13 38 -68 29zM232 82q-65 0 -70 73q5 74 77 74q71 -1 71 -77
q-5 -69 -78 -70z" />
    <glyph glyph-name="uni0621" unicode="&#x621;" horiz-adv-x="495" 
d="M381 621q37 20 50.5 -13t-18.5 -55q-117 -70 -237 -132q-56 -20 -32 34q12 38 51 68q31 6 17 2q-29 14 -25 82q2 78 64.5 95.5t134.5 -22.5q16 -25 -5 -43h-91q-24 -3 -31 -38q-2 -14 13.5 -24.5t29.5 -8.5q42 31 79 55z" />
    <glyph glyph-name="uni0626" unicode="&#x626;" horiz-adv-x="342" 
d="M248 416q60 -97 56 -193q-9 -140 -134 -141h-170v102h185q51 3 48 44.5t-66 87.5zM281 621q38 20 51 -13t-19 -55q-117 -70 -237 -132q-56 -20 -32 34q12 38 52 68q30 6 16 2q-29 14 -25 82q2 78 64.5 95.5t135.5 -22.5q16 -25 -5 -43h-92q-24 -3 -31 -38
q-1 -14 14 -24.5t29 -8.5q43 31 79 55z" />
    <glyph glyph-name="uni0627" unicode="&#x627;" horiz-adv-x="216" 
d="M143 856q70 -398 5 -780q-22 -25 -43 2q22 342 -59 677q43 43 97 101z" />
    <glyph glyph-name="uni0628" unicode="&#x628;" horiz-adv-x="748" 
d="M92 290q7 -112 109 -106h269q43 -1 105 16.5t81 53.5q6 18 -9 47t-41 58l85 76q53 -72 57 -151q-6 -83 -89 -141.5t-175 -60.5h-293q-135 3 -160 143q-8 89 34 171q22 24 42 -6q-15 -69 -15 -100zM290 -74l61 77l66 -77l-66 -88z" />
    <glyph glyph-name="uni062A" unicode="&#x62a;" horiz-adv-x="751" 
d="M369 434l-59 -88l-64 88l64 77zM514 434l-59 -88l-65 88l65 77zM30 250q-2 56 34 144q34 22 42 -10q-15 -60 -15 -103q4 -47 42.5 -72t93.5 -25h242q52 -1 114 19t74 53q3 51 -52 102l84 77q66 -84 58 -169q-23 -81 -98.5 -132t-167.5 -52h-283q-159 8 -168 168z" />
    <glyph glyph-name="uni062C" unicode="&#x62c;" horiz-adv-x="678" 
d="M462 209q-135 -42 -243.5 -129t-110.5 -200q8 -108 88.5 -186t190.5 -94q95 -8 197 59q56 9 32 -37q-105 -111 -253 -111q-154 9 -241.5 113.5t-88.5 234.5q6 159 107 259t191 135q-43 18 -142 16q-67 -38 -96 -107q-28 -17 -45 16q14 65 37 118.5t85 74.5
q62 -4 137 -23.5t146 -21.5h169l-19 -102q-77 -9 -141 -15zM435 -49l-64 -87l-64 87l64 81z" />
    <glyph glyph-name="uni062D" unicode="&#x62d;" horiz-adv-x="678" 
d="M462 209q-135 -42 -243.5 -129t-110.5 -200q8 -108 88.5 -186t190.5 -94q95 -8 197 59q56 9 32 -37q-105 -111 -253 -111q-154 9 -241.5 113.5t-88.5 234.5q6 159 107 259t191 135q-43 18 -142 16q-67 -38 -96 -107q-28 -17 -45 16q14 65 37 118.5t85 74.5
q62 -4 137 -23.5t146 -21.5h169l-19 -102q-77 -9 -141 -15z" />
    <glyph glyph-name="uni062E" unicode="&#x62e;" horiz-adv-x="675" 
d="M457 201q-143 -42 -252 -142t-101 -198q47 -224 272 -266q35 -5 95 12t110 45q56 17 32 -38q-102 -109 -263 -109q-142 5 -227 105t-94 246q-1 136 102.5 244.5t192.5 143.5q-40 14 -137 17q-71 -34 -89 -110q-22 -21 -40 15q3 93 41 148t88 50q153 -38 264 -46h167
l-18 -100q-74 -5 -143 -17zM342 521l-63 -82l-62 82l62 86z" />
    <glyph glyph-name="uni062F" unicode="&#x62f;" horiz-adv-x="500" 
d="M473 223q-15 -139 -179 -141h-167l-41 102h196q60 0 92.5 22.5t8.5 52.5q-71 78 -182 149l85 98q72 -69 131 -129t56 -154z" />
    <glyph glyph-name="uni0631" unicode="&#x631;" horiz-adv-x="400" 
d="M351 41q-5 -125 -84 -224t-175 -105h-151q155 87 241 175t94 155q0 29 -24.5 51.5t-66.5 48.5l60 116q106 -93 106 -217z" />
    <glyph glyph-name="uni0632" unicode="&#x632;" horiz-adv-x="391" 
d="M209 442l-61 87l61 84l62 -84zM330 48q-2 -132 -98.5 -238t-190.5 -108h-100q219 151 310 321q5 15 -26 56.5t-79 82.5l72 99q105 -99 112 -213z" />
    <glyph glyph-name="uni0633" unicode="&#x633;" horiz-adv-x="1047" 
d="M111 -34q0 -51 34.5 -88t76.5 -38h72q111 3 191 62.5t78 112.5q-8 68 -96 142l65 82q69 -71 145 -65q79 7 89 92q24 22 44 0q23 -105 114 -96q39 4 43.5 50.5t-64.5 90.5l81 105q64 -97 59 -187q-2 -97 -47.5 -129t-119.5 -30q-72 8 -78 24q-5 -19 -97 -24q-95 4 -96 67
q31 -65 30 -138q-20 -127 -132.5 -195.5t-200.5 -68.5h-92q-68 4 -128 57t-61 120q4 113 65 213q27 9 40 -19q-13 -81 -15 -140z" />
    <glyph glyph-name="uni0634" unicode="&#x634;" horiz-adv-x="1047" 
d="M799 556l-61 -83l-63 83l63 78zM883 634l61 -78l-61 -83l-64 83zM746 655l63 87l62 -87l-62 -83zM111 -44q0 -52 34.5 -89t76.5 -39h72q111 4 191 63t78 114q-8 67 -96 140l65 83q69 -70 145 -66q79 7 89 93q24 25 44 0q23 -104 114 -95q39 3 43.5 50.5t-64.5 91.5
l81 104q64 -98 59 -188q-2 -96 -47.5 -128.5t-119.5 -29.5q-72 9 -78 24q-5 -22 -97 -24q-95 3 -96 66q31 -65 30 -138q-20 -126 -132.5 -194.5t-200.5 -68.5h-92q-68 4 -128 57.5t-61 118.5q4 115 65 212q27 12 39 -18q-12 -79 -14 -139z" />
    <glyph glyph-name="uni0639" unicode="&#x639;" horiz-adv-x="530" 
d="M463 338q15 -24 -8 -40q-92 8 -180 29q-20 3 -49.5 -11.5t-34.5 -34.5q12 -33 54.5 -64.5t84.5 -32.5h159l-41 -102h-110q-93 -3 -170.5 -69t-79.5 -170q8 -93 85.5 -164.5t144.5 -75.5q85 0 180 50q40 10 27 -28q-94 -101 -233 -107q-269 46 -292 300q25 255 200 311
q-12 8 -49 39.5t-33 102.5q12 73 65 117t111 44q106 -12 169 -94z" />
    <glyph glyph-name="uni063A" unicode="&#x63a;" horiz-adv-x="530" 
d="M371 593l-65 -86l-58 86l59 82zM463 338q15 -24 -8 -40q-92 8 -180 29q-20 3 -49.5 -11.5t-34.5 -34.5q12 -33 54.5 -64.5t84.5 -32.5h159l-41 -102h-110q-93 -3 -170.5 -69t-79.5 -170q8 -93 85.5 -164.5t144.5 -75.5q85 0 180 50q40 10 27 -28q-94 -101 -233 -107
q-269 46 -292 300q25 255 200 311q-12 8 -49 39.5t-33 102.5q12 73 65 117t111 44q106 -12 169 -94z" />
    <glyph glyph-name="uni0640" unicode="&#x640;" horiz-adv-x="275" 
d="M-1 184h290v-102h-290v102z" />
    <glyph glyph-name="uni0641" unicode="&#x641;" horiz-adv-x="655" 
d="M33 37q2 103 48 199q23 20 41 -5q-12 -79 -14 -138q5 -63 66 -109t105 -48h88q168 6 204 146h-100q-74 2 -85 80q-4 64 36.5 132t99.5 63q73 -18 104 -93.5t21 -167.5q-3 -115 -79 -187t-192 -74h-106q-89 5 -161 64t-76 138zM576 178q-13 59 -58 79q-13 1 -33 -20.5
t-28 -43.5q-3 -8 15 -9h108q-6 -2 -4 -6zM515 462l-63 83l63 84l62 -84z" />
    <glyph glyph-name="uni0642" unicode="&#x642;" horiz-adv-x="655" 
d="M511 545l60 84l63 -84l-63 -83zM428 462l-62 83l62 84l62 -84zM33 37q2 103 48 199q23 20 41 -5q-12 -79 -14 -138q5 -63 66 -109t105 -48h88q168 6 204 146h-100q-74 2 -85 80q-4 64 36.5 132t99.5 63q73 -18 104 -93.5t21 -167.5q-3 -115 -79 -187t-192 -74h-106
q-89 5 -161 64t-76 138zM575 178q-12 59 -57 79q-13 1 -33 -20.5t-28 -44.5q-3 -6 15 -8h110q-8 0 -7 -6z" />
    <glyph glyph-name="uni0643" unicode="&#x643;" horiz-adv-x="692" 
d="M289 82q-64 0 -133.5 40t-111.5 115q-19 58 37 32q82 -85 198 -85h142q138 -9 145 122v300q3 93 -30 190l61 81l96 -99l-39 -35v-419q-2 -112 -78.5 -176.5t-193.5 -65.5h-93zM315 536q-10 -4 -9.5 -10.5t2.5 -6.5q49 -6 100.5 -15.5t59.5 -62.5q-7 -105 -159 -114h-125
q-41 5 -41.5 37t37.5 38h112q37 3 47.5 14t2.5 13q-42 6 -96 24.5t-58 81.5q25 68 109 84t172 15q31 -12 28 -43.5t-40 -31.5q-69 -3 -142 -23z" />
    <glyph glyph-name="uni0644" unicode="&#x644;" horiz-adv-x="623" 
d="M293 -230q-127 4 -186 58t-69 144q-13 98 47 213q35 17 41 -16q-18 -81 -15 -159q34 -148 186 -139q176 6 177 131v535q-1 109 -30 224l79 79l75 -122l-51 -15v-718q-4 -96 -83.5 -155.5t-170.5 -59.5z" />
    <glyph glyph-name="uni0645" unicode="&#x645;" horiz-adv-x="447" 
d="M9 64q-9 41 2 79t66 41h38q18 45 54.5 102t84.5 58q89 -16 134 -111q20 -46 13 -97t-64 -54h-211q-31 -2 -30 -30q14 -259 30 -526q-24 -26 -46 -1q-34 275 -71 539zM245 229q-38 -25 -44 -45h72q22 2 7.5 25.5t-35.5 19.5z" />
    <glyph glyph-name="uni0646" unicode="&#x646;" horiz-adv-x="746" 
d="M459 374l-63 -84l-65 84l65 84zM716 -4q-24 -139 -117 -208t-224 -69h-101q-81 0 -155.5 49.5t-88.5 141.5q-2 99 79 199q47 25 37 -31q-35 -66 -41 -131q1 -46 48 -84.5t110 -39.5h115q86 0 166 49t99 128q5 68 -93 122l59 116q123 -106 107 -242z" />
    <glyph glyph-name="uni0648" unicode="&#x648;" horiz-adv-x="442" 
d="M444 83q-5 -132 -99.5 -236.5t-233.5 -142.5h-114q159 100 252 187t118 191h-141q-58 1 -77 44.5t-9 90.5q32 135 151 143q72 -6 111 -73.5t42 -119.5v-84zM277 273q-46 -17 -63 -65q-10 -20 13 -24h128q-6 23 -32.5 58t-45.5 31z" />
    <glyph glyph-name="uni0649" unicode="&#x649;" horiz-adv-x="726" 
d="M665 44q-35 -100 -126 -152.5t-207 -52.5h-67q-93 -3 -168 40.5t-91 144.5q-6 152 111 248q59 21 36 -37q-67 -80 -59 -179q23 -109 134 -114h117q138 0 221 82q16 18 10.5 36.5t-33.5 21.5h-59q-83 1 -108.5 49t-17.5 106q49 175 220 195q74 0 116.5 -46t-18.5 -59h-104
q-95 7 -142 -94q-11 -41 43 -49h89q45 -2 81.5 -42t21.5 -98z" />
    <glyph glyph-name="uni064A" unicode="&#x64a;" horiz-adv-x="752" 
d="M233 -338l65 83l59 -83l-59 -86zM441 -255l62 -83l-62 -86l-62 86zM690 42q-35 -102 -126 -154.5t-207 -52.5h-68q-93 -2 -167.5 41.5t-90.5 145.5q-6 152 111 248q59 21 36 -38q-67 -79 -59 -179q23 -109 134 -113h117q138 0 221 82q16 17 10.5 37t-33.5 23h-59
q-83 1 -108.5 47t-17.5 106q49 175 221 193q73 0 117 -46.5t-21 -54.5h-103q-38 0 -79 -21.5t-63 -76.5q-11 -38 43 -45h89q45 -2 81.5 -44t21.5 -98z" />
    <glyph glyph-name="afii57392" unicode="&#x660;" horiz-adv-x="573" 
d="M388 330q-18 -53 -25 -79.5t-20 -97.5q-61 34 -86 52q-16 12 -67 52q13 55 22 85t33 99q44 -39 73 -61q19 -14 70 -50z" />
    <glyph glyph-name="afii57393" unicode="&#x661;" horiz-adv-x="570" 
d="M367 308q0 -46 -7 -106q-1 -15 -16 -118h-45q0 27 2 84q0 104 -28 194q-21 70 -60 131q-20 31 -62 83l62 138q56 -67 80 -108q35 -60 53 -126q21 -78 21 -172z" />
    <glyph glyph-name="afii57394" unicode="&#x662;" horiz-adv-x="570" 
d="M432 606q0 -60 -29 -97q-33 -42 -92 -42h-10q8 -15 16 -40q14 -40 21.5 -94.5t7.5 -144.5q0 -16 -1 -51t-1 -53h-42q-41 172 -54 215q-23 81 -55 141.5t-102 147.5l45 137q50 -70 75 -92q43 -38 90 -38t65 30q10 18 17 80l43 3q4 -32 5 -56t1 -46z" />
    <glyph glyph-name="afii57395" unicode="&#x663;" horiz-adv-x="569" 
d="M513 642q0 -68 -27.5 -106t-84.5 -38q-32 0 -56.5 10.5t-24.5 11.5q-6 -9 -35.5 -25.5t-44.5 -16.5q7 -15 15 -35q16 -37 23.5 -78.5t7.5 -99.5q0 -32 -2.5 -62t-16.5 -119h-48q0 124 -13.5 192.5t-46.5 132.5q-25 50 -95 152l49 157q42 -69 69 -89q30 -22 65 -22
q36 0 56 23q17 22 27 77h42q5 -55 15.5 -69t28.5 -14q40 0 50 83h44q0 -25 1.5 -43t1.5 -22z" />
    <glyph glyph-name="afii57396" unicode="&#x664;" horiz-adv-x="573" 
d="M442 213l-40 -129q-57 0 -100 6q-58 10 -93 28q-49 24 -49 64q0 32 19 65q16 28 48 62q18 18 46 45q-20 8 -63 24q-60 27 -60 60q0 43 40 97q30 39 85 89q38 35 116 94l-24 -142q-62 -24 -81 -33q-35 -16 -35 -25q0 -6 29 -19q34 -13 70 -26q47 -20 47 -43q0 -20 -38 -60
q-31 -33 -63 -66q-30 -34 -30 -49q0 -12 57 -25q43 -10 119 -17z" />
    <glyph glyph-name="afii57397" unicode="&#x665;" horiz-adv-x="568" 
d="M478 413q0 -93 -55 -153q-63 -70 -177 -70q-65 0 -104 23q-47 29 -47 83q0 42 23 113q25 78 62 129q47 66 101 66q65 0 131 -64t66 -127zM411 360q0 21 -35 49q-31 27 -80 48q-43 20 -64 20q-24 0 -42 -37q-16 -33 -16 -66q0 -32 27 -47q28 -15 86 -15t91 15.5t33 32.5z
" />
    <glyph glyph-name="afii57398" unicode="&#x666;" horiz-adv-x="569" 
d="M450 230l-24 -144q-53 37 -71 56q-30 33 -45 81q-19 59 -19 142q0 29 2 61q1 9 9 80q-4 -1 -15 -3q-39 -7 -64 -7q-83 0 -110 18q-26 17 -26 64q0 17 1.5 50t1.5 63l42 5q15 -35 23 -41q19 -15 67 -15q39 0 86 9q11 2 76 17q-13 -74 -16 -99q-6 -43 -6 -74q0 -79 14 -132
q10 -41 32 -75q7 -12 42 -56z" />
    <glyph glyph-name="afii57399" unicode="&#x667;" horiz-adv-x="570" 
d="M502 722l-5 -192q-76 -77 -119 -179.5t-65 -266.5h-32q-34 163 -82.5 258t-134.5 171l23 201q101 -119 152 -225q50 -103 80 -225h-20q17 128 63 239q44 107 140 219z" />
    <glyph glyph-name="afii57400" unicode="&#x668;" horiz-adv-x="569" 
d="M514 272l-23 -197q-97 100 -153.5 216t-78.5 233h20q-18 -101 -35 -159q-21 -76 -52 -137q-32 -63 -115 -165v192q74 68 118 172q42 101 69 274h34q28 -130 59 -207q29 -73 68 -126q32 -44 89 -96z" />
    <glyph glyph-name="afii57401" unicode="&#x669;" horiz-adv-x="570" 
d="M454 208l-38 -132q-72 43 -90 122q-13 60 -13 192q-15 -5 -33 -9t-37 -4q-59 0 -96.5 26t-37.5 76q0 33 16 81q20 61 54 99q45 50 108 50q50 0 76 -51q19 -38 25 -111q3 -43 3 -127q10 -113 26 -157q7 -18 37 -55zM309 512q0 28 -10 48q-12 24 -42 24q-25 0 -48 -18.5
t-23 -30.5q0 -11 18.5 -20t50.5 -9q14 0 35 3t19 3z" />
    <glyph glyph-name="uni066A" unicode="&#x66a;" horiz-adv-x="681" 
d="M317 685l30 -91q-5 -131 -139 -148q-64 1 -101 45t-37 103v91q4 131 136 148q66 -3 103 -46.5t8 -101.5v0zM192 774q-46 -6 -38 -75v-118q-4 -74 53 -81q56 7 54 81v117q1 71 -69 80v-4zM611 741l-493 -665l-53 54l527 707l19 -17v-79zM613 320l30 -88q-1 -129 -136 -145
q-67 1 -104 44t-37 101v88q0 54 36.5 98.5t103.5 47.5q61 -3 98.5 -46t8.5 -100v0zM488 411q-16 -1 -26.5 -25t-9.5 -55v-111q-5 -72 51 -79q60 4 56 80v110q2 75 -71 83v-3z" />
    <glyph glyph-name="uni0675" unicode="&#x675;" horiz-adv-x="594" 
d="M189 856q70 -398 5 -780q-22 -25 -43 2q22 342 -59 677q43 43 97 101zM506 621q37 20 50.5 -13t-18.5 -55q-117 -70 -237 -132q-56 -20 -33 34q13 38 52 68q30 6 17 2q-29 14 -25 82q2 78 64 95.5t135 -22.5q16 -25 -5 -43h-91q-24 -3 -32 -38q-1 -14 14.5 -24.5
t29.5 -8.5q42 31 79 55z" />
    <glyph glyph-name="uni0676" unicode="&#x676;" horiz-adv-x="657" 
d="M444 83q-5 -132 -99.5 -236.5t-233.5 -142.5h-114q159 100 252 187t118 191h-141q-58 1 -77 44.5t-9 90.5q32 135 151 143q72 -6 111 -73.5t42 -119.5v-84zM277 273q-46 -17 -63 -65q-10 -20 13 -24h128q-6 23 -32.5 58t-45.5 31zM575 621q38 20 51 -13t-19 -55
q-117 -70 -237 -132q-56 -20 -32 34q12 38 52 68q30 6 16 2q-29 14 -25 82q2 78 64.5 95.5t135.5 -22.5q16 -25 -5 -43h-92q-24 -3 -31 -38q-1 -14 14 -24.5t29 -8.5q43 31 79 55z" />
    <glyph glyph-name="uni0677" unicode="&#x677;" horiz-adv-x="657" 
d="M575 621q38 20 51 -13t-19 -55q-117 -70 -237 -132q-56 -20 -32 34q12 38 52 68q30 6 16 2q-29 14 -25 82q2 78 64.5 95.5t135.5 -22.5q16 -25 -5 -43h-92q-24 -3 -31 -38q-1 -14 14 -24.5t29 -8.5q43 31 79 55zM444 83q-5 -132 -99.5 -236.5t-233.5 -142.5h-114
q159 100 252 187t118 191h-141q-58 1 -77 44.5t-9 90.5q32 135 151 143q72 -6 111 -73.5t42 -119.5v-84zM277 273q-46 -17 -63 -65q-10 -20 13 -24h128q-6 23 -32.5 58t-45.5 31zM270 545q-54 17 -45 94q10 56 65 69q46 0 72.5 -33t12.5 -74q-44 -104 -151 -164
q-30 5 -15 40q46 41 61 68z" />
    <glyph glyph-name="uni067E" unicode="&#x67e;" horiz-adv-x="782" 
d="M31 228q-8 88 34 168q22 24 42 -6q-11 -58 -14 -109q26 -99 127 -97h248q49 -1 108 17.5t82 60.5q8 45 -53 98l85 79q66 -82 58 -169q-22 -88 -101 -137.5t-171 -50.5h-275q-142 4 -170 146zM370 -72l-61 -89l-63 89l62 77zM455 5l60 -77l-60 -88l-66 88zM445 -179
l-61 -82l-66 82l66 87z" />
    <glyph glyph-name="uni0686" unicode="&#x686;" horiz-adv-x="678" 
d="M456 204q-112 -26 -227 -117.5t-121 -206.5q8 -108 88.5 -186t190.5 -94q95 -8 197 59q56 9 32 -37q-105 -111 -253 -111q-154 9 -241.5 113.5t-88.5 234.5q6 159 107 259t191 135q-43 18 -142 16q-67 -38 -96 -107q-28 -17 -45 16q14 65 37 118.5t85 74.5
q62 -4 137 -23.5t146 -21.5h169l-19 -102q-76 -7 -147 -20zM430 -149l-61 -84l-64 84l64 79zM357 -50l-62 -82l-64 82l64 87zM444 37l58 -87l-58 -83l-65 83z" />
    <glyph glyph-name="uni0698" unicode="&#x698;" horiz-adv-x="434" 
d="M330 629l-63 -87l-60 87l60 81zM406 511l-66 -83l-59 83l59 82zM194 428l-61 83l61 82l63 -82zM371 19q-16 -123 -97.5 -219t-192.5 -102h-81q115 97 186.5 166.5t110.5 157.5q8 25 -25.5 60t-83.5 80l100 78q40 -50 65 -101t18 -120z" />
    <glyph glyph-name="uni06AD" unicode="&#x6ad;" horiz-adv-x="692" 
d="M397 779l-63 -83l-64 83l64 83zM472 679l-63 -85l-65 85l65 82zM308 679l-61 -86l-63 86l63 83zM289 82q-64 0 -133.5 40t-111.5 115q-19 58 37 32q82 -85 198 -85h142q138 -9 145 122v300q3 93 -30 190l61 81l96 -99l-39 -35v-419q-2 -112 -78.5 -176.5t-193.5 -65.5
h-93zM315 463q-10 -3 -9.5 -10.5t2.5 -8.5q49 -3 100.5 -13.5t59.5 -62.5q-7 -107 -160 -114h-124q-41 5 -41.5 38t37.5 36h112q37 2 48.5 14t1.5 15q-42 5 -96 23.5t-58 79.5q25 70 109 86t172 14q31 -12 28 -43.5t-40 -31.5q-69 -2 -142 -22z" />
    <glyph glyph-name="uni06AF" unicode="&#x6af;" horiz-adv-x="803" 
d="M613 244q-2 38 -77 92t-156 99v108l408 185v-88l-317 -138q64 -36 135 -103.5t80 -145.5q-4 -79 -67.5 -125t-136.5 -46h-290q-65 0 -126 34t-66 99q0 77 49 154q30 21 39 -16q-14 -57 -13 -101q2 -40 49.5 -54.5t96.5 -13.5h244q48 -1 95 14.5t53 45.5zM803 860v-91
l-380 -173v91z" />
    <glyph glyph-name="uni06BE" unicode="&#x6be;" horiz-adv-x="560" 
d="M510 322q59 -82 -1 -162.5t-141 -51.5q-41 19 -79 40q-46 -63 -135 -66h-154v102h192q8 3 9 1q-14 10 -43 30q-81 81 2 155q48 36 107 44q-10 -8 -1 -14q-20 6 -41 33l56 74q147 -90 229 -185zM220 327q-24 -17 -13.5 -36.5t45.5 -43.5q44 -24 64 42q8 21 -9 41
q-23 26 -57 14q-8 -3 -30 -17zM394 190q50 -14 65 24.5t-20 74.5q-52 40 -47 38q21 -43 -38 -110l-6 -7q26 -12 46 -20z" />
    <glyph glyph-name="uni06C5" unicode="&#x6c5;" horiz-adv-x="405" 
d="M265 -264q-55 -57 -162 -54q-61 3 -75.5 45.5t-12.5 90.5q0 48 38.5 100t105.5 54q104 -12 140 -27q33 54 46 130h-115q-71 3 -90 51.5t-4 98.5q26 134 145 138q75 -14 105.5 -86.5t30.5 -139.5q3 -214 -152 -406v5zM130 -203q75 33 113 75q-33 16 -101 23q-42 2 -42 -46
q-1 -61 30 -51v-1zM250 267q-30 -10 -42 -63q-6 -20 18 -22h119q-4 23 -30 59t-65 29v-3z" />
    <glyph glyph-name="uni06C6" unicode="&#x6c6;" horiz-adv-x="465" 
d="M141 694l61 67l102 -141l97 154l67 -67l-163 -247zM435 83q-3 -132 -83 -236.5t-214 -140.5h-136q159 100 251 186t107 190h-129q-58 1 -77 44.5t-9 90.5q32 135 151 143q71 -3 104.5 -71.5t34.5 -121.5v-84zM301 273q-59 -18 -67 -66q-10 -20 14 -23h114
q-7 22 -27.5 56.5t-33.5 32.5z" />
    <glyph glyph-name="uni06C7" unicode="&#x6c7;" horiz-adv-x="448" 
d="M267 568q-60 17 -49 98q11 59 70 70q43 0 71.5 -34.5t13.5 -74.5q-45 -111 -157 -172q-31 9 -14 41q47 41 65 72zM449 83q-5 -132 -99.5 -236.5t-233.5 -142.5h-114q159 100 252 187t118 191h-141q-58 1 -77 44.5t-9 90.5q32 135 151 143q72 -6 111 -73.5t42 -119.5v-84z
M282 269q-44 -16 -63 -66q-10 -17 13 -19h128q-5 16 -32.5 52t-45.5 33z" />
    <glyph glyph-name="uni06C8" unicode="&#x6c8;" horiz-adv-x="447" 
d="M343 460h-88v272l88 63v-335zM445 89q-5 -131 -95.5 -239t-223.5 -146h-127q158 102 252 188.5t119 189.5h-143q-58 2 -76.5 43.5t-4.5 82.5q48 144 151 152q67 -3 106 -70t42 -123v-78zM297 273q-59 -18 -67 -66q-10 -20 14 -23h124q-8 21 -32 56t-39 33z" />
    <glyph glyph-name="uni06C9" unicode="&#x6c9;" horiz-adv-x="465" 
d="M265 777l163 -247l-67 -67l-97 154l-102 -141l-61 67zM395 83q-3 -132 -83 -236.5t-214 -140.5h-136q159 100 251 186t107 190h-129q-58 1 -77 44.5t-9 90.5q32 135 151 143q71 -3 104.5 -71.5t34.5 -121.5v-84zM261 273q-59 -18 -67 -66q-10 -20 14 -23h114
q-7 22 -27.5 56.5t-33.5 32.5z" />
    <glyph glyph-name="uni06CB" unicode="&#x6cb;" horiz-adv-x="464" 
d="M313 533l56 82l68 -82l-68 -83zM224 450l-60 83l60 82l66 -82zM239 650l61 80l62 -80l-62 -86zM460 85q-5 -130 -88 -238.5t-203 -142.5h-169q181 89 273 180.5t113 197.5h-111q-126 13 -107 119q32 152 144 156q67 -5 106 -71t42 -122v-79zM312 269q-59 -16 -67 -65
q-9 -18 14 -20h124q-7 20 -31.5 54t-39.5 31z" />
    <glyph glyph-name="uni06D0" unicode="&#x6d0;" horiz-adv-x="727" 
d="M327 -504l-62 80l62 81l65 -81zM266 -251l61 81l64 -81l-64 -86zM665 42q-35 -102 -126 -154.5t-207 -52.5h-68q-93 -2 -167.5 41.5t-90.5 145.5q-6 152 111 248q59 21 36 -38q-67 -79 -59 -179q23 -109 134 -113h117q138 0 221 82q16 17 10.5 37t-33.5 23h-59
q-83 1 -108.5 47t-17.5 106q49 175 221 193q73 0 117 -46.5t-21 -54.5h-103q-95 -2 -142 -101q-3 -10 8 -25.5t35 -16.5h89q45 -2 81.5 -44t21.5 -98z" />
    <glyph glyph-name="uni06D5" unicode="&#x6d5;" horiz-adv-x="335" 
d="M338 211q0 -62 -38 -103q-42 -38 -110 -38q-42 0 -89 17q-65 32 -65 93q0 45 31 86q6 7 25.5 26.5l42.5 42.5q4 -4 -1 2t-23 22l77 78q29 -20 52 -44q24 -26 42 -45t29 -33q27 -50 27 -104zM247 216q0 8 -6 19t-17 24q-21 25 -37 25q-12 0 -28 -34q-19 -32 -19 -39
q0 -15 12 -26q11 -9 28 -9h24q13 0 30 11q6 7 9.5 14t3.5 15z" />
    <glyph glyph-name="uni2010" unicode="&#x2010;" horiz-adv-x="500" 
d="M0 176h509v-76h-509v76z" />
    <glyph glyph-name="endash" unicode="&#x2013;" horiz-adv-x="700" 
d="M174 176h357v-76h-357v76z" />
    <glyph glyph-name="emdash" unicode="&#x2014;" horiz-adv-x="960" 
d="M98 368h752v-76h-752v76z" />
    <glyph glyph-name="uni2016" unicode="&#x2016;" horiz-adv-x="315" 
d="M127 649v-652h-57v652h57zM257 649v-652h-57v652h57z" />
    <glyph glyph-name="quoteleft" unicode="&#x2018;" horiz-adv-x="352" 
d="M242 796q-31 -11 -44.5 -22t-23.5 -23t-15 -25t-5 -24q0 -17 13 -31t44 -17q17 -8 22 -20.5t5 -23.5q0 -29 -21.5 -45.5t-47.5 -16.5q-24 0 -44 11t-33.5 29t-21 39.5t-7.5 42.5q0 32 11.5 60t32 50t46 39.5t68.5 33.5z" />
    <glyph glyph-name="quoteright" unicode="&#x2019;" horiz-adv-x="359" 
d="M63 601q31 11 45.5 22t23.5 22.5t14 25t5 24.5q0 17 -12.5 31t-43.5 17q-16 8 -21.5 20.5t-5.5 23.5q0 29 21 45.5t47 16.5q25 0 45 -11t34 -29t20.5 -39.5t6.5 -42.5q0 -32 -11.5 -60t-31.5 -50t-46 -39.5t-68 -33.5z" />
    <glyph glyph-name="quotedblleft" unicode="&#x201c;" horiz-adv-x="500" 
d="M438 796q-31 -11 -45 -22t-23.5 -22.5t-14.5 -25t-5 -24.5q0 -17 12.5 -31t43.5 -17q17 -8 22 -20.5t5 -23.5q0 -29 -21 -45.5t-47 -16.5q-25 0 -45 11t-33.5 29t-20.5 39.5t-7 42.5q0 32 11.5 60t31.5 50t46 39.5t69 33.5zM242 796q-31 -11 -44.5 -22t-23.5 -23t-15 -25
t-5 -24q0 -17 13 -31t44 -17q17 -8 22 -20.5t5 -23.5q0 -29 -21.5 -45.5t-47.5 -16.5q-24 0 -44 11t-33.5 29t-21 39.5t-7.5 42.5q0 32 11.5 60t32 50t46 39.5t68.5 33.5z" />
    <glyph glyph-name="quotedblright" unicode="&#x201d;" horiz-adv-x="500" 
d="M63 601q31 11 45.5 22t23.5 22.5t14 25t5 24.5q0 17 -12.5 31t-43.5 17q-16 8 -21.5 20.5t-5.5 23.5q0 29 21 45.5t47 16.5q25 0 45 -11t34 -29t20.5 -39.5t6.5 -42.5q0 -32 -11.5 -60t-31.5 -50t-46 -39.5t-68 -33.5zM259 601q31 11 45 22t23.5 23t14.5 25t5 24
q0 17 -13 31t-44 17q-16 8 -21.5 20.5t-5.5 23.5q0 29 21.5 45.5t47.5 16.5q24 0 44 -11t34 -29t21 -39.5t7 -42.5q0 -32 -11.5 -60t-32 -50t-46 -39.5t-67.5 -33.5z" />
    <glyph glyph-name="bullet" unicode="&#x2022;" horiz-adv-x="358" 
d="M182 564q52 0 88.5 -36.5t36.5 -88.5t-36.5 -89t-88.5 -37t-89 37t-37 89t36.5 88.5t89.5 36.5z" />
    <glyph glyph-name="onedotenleader" unicode="&#x2024;" horiz-adv-x="542" 
d="M198 215q35 0 58.5 -24t23.5 -58t-23.5 -58t-58.5 -24t-59 23.5t-24 58.5q0 34 24 58t59 24z" />
    <glyph glyph-name="ellipsis" unicode="&#x2026;" horiz-adv-x="1022" 
d="M163 89q-74 0 -74 70q0 74 67 78q80 -2 80 -76q-3 -69 -73 -72zM513 89q-74 0 -74 70q0 74 67 78q80 -2 80 -76q-3 -69 -73 -72zM854 89q-74 0 -74 70q0 74 67 78q80 -2 80 -76q-3 -69 -73 -72z" />
    <glyph glyph-name="perthousand" unicode="&#x2030;" horiz-adv-x="1024" 
d="M610 794l-486 -721h-45l486 721h45zM176 794q39 0 73 -22.5t53 -65.5t19 -95q0 -85 -42.5 -133t-100.5 -48q-37 0 -71.5 22t-54.5 64t-20 95q0 52 19.5 96t53.5 65.5t71 21.5zM174 767q-15 0 -25 -8q-16 -14 -25 -43q-11 -39 -11 -107q0 -93 23 -129q17 -25 41 -25
q23 0 40 26q24 39 24 134q0 90 -24 126q-17 26 -43 26zM514 437q36 0 70 -22.5t54 -65.5t20 -93q0 -54 -19.5 -96t-55 -64.5t-70.5 -22.5q-57 0 -100.5 48.5t-43.5 132.5q0 53 20 96.5t55 65t70 21.5zM512 410q-15 0 -27 -9q-17 -15 -26.5 -46t-9.5 -105q0 -90 23 -125
q16 -25 40 -25t41 25q24 38 24 127q0 94 -25 133q-16 25 -40 25zM845 437q34 0 70.5 -22t55.5 -63t19 -92q0 -60 -18 -101t-53.5 -63.5t-72.5 -22.5q-36 0 -70.5 22t-53.5 63.5t-19 92.5q0 58 19 101t55.5 64t67.5 21zM845 410q-25 0 -40 -23q-22 -37 -22 -135
q0 -91 23 -127q16 -25 41 -25q15 0 27 10q17 14 26.5 47t9.5 108q0 85 -23 120q-18 25 -42 25z" />
    <glyph glyph-name="minute" unicode="&#x2032;" horiz-adv-x="224" 
d="M68 502l16 148q6 63 13 85q9 31 26.5 45t38.5 14q18 0 28.5 -10t10.5 -26q0 -11 -5 -25q-6 -19 -37 -84l-69 -147h-22z" />
    <glyph glyph-name="second" unicode="&#x2033;" horiz-adv-x="426" 
d="M81 502l16 148q6 63 13 85q9 31 26.5 45t38.5 14q18 0 28.5 -10t10.5 -26q0 -11 -5 -25q-6 -19 -37 -84l-69 -147h-22zM252 502l16 148q6 63 13 85q9 31 26.5 45t38.5 14q18 0 28.5 -10t10.5 -26q0 -11 -5 -25q-6 -19 -37 -84l-69 -147h-22z" />
    <glyph glyph-name="uni2039" unicode="&#x2039;" horiz-adv-x="703" 
d="M458 163l142 -293h-63l-223 293l223 294h63z" />
    <glyph glyph-name="guilsinglright" unicode="&#x203a;" horiz-adv-x="725" 
d="M114 457h62l224 -294l-224 -293h-62l141 293z" />
    <glyph glyph-name="uni203B" unicode="&#x203b;" horiz-adv-x="793" 
d="M92 154l267 279l-266 278l44 46l266 -278l266 278l43 -45l-266 -277l267 -281l-43 -46l-268 281l-267 -279zM454 682q0 -14 -5 -26t-13.5 -21.5t-19.5 -14.5t-23 -5q-13 0 -24 5t-20 14.5t-14 21.5t-5 26t5 26t14 21.5t20 14.5t24 5q12 0 23 -5t19.5 -14.5t13.5 -21.5
t5 -26zM457 173q0 -14 -5 -26t-14 -21.5t-19.5 -14.5t-23.5 -5q-12 0 -23.5 5t-20 14.5t-13.5 21.5t-5 26t5 26t13.5 21.5t20 14.5t23.5 5q13 0 23.5 -5t19.5 -14.5t14 -21.5t5 -26zM693 419q0 -13 -5 -25t-14 -21.5t-19.5 -14.5t-23.5 -5q-12 0 -23.5 5t-20 14.5
t-13.5 21.5t-5 25q0 14 5 26.5t13.5 22t20 14t23.5 4.5q13 0 23.5 -4.5t19.5 -14t14 -22t5 -26.5zM220 415q0 -14 -5 -26t-13.5 -21.5t-19.5 -14.5t-23 -5q-13 0 -24 5t-19.5 14.5t-13.5 21.5t-5 26t5 26t13.5 21.5t19.5 14t24 4.5q12 0 23 -4.5t19.5 -14t13.5 -21.5t5 -26z
" />
    <glyph glyph-name="uni2116" unicode="&#x2116;" horiz-adv-x="977" 
d="M256 778l252 -456v217q0 106 7.5 148.5t40 70t81.5 27.5q38 0 59.5 -19t21.5 -43q0 -20 -15 -35.5t-38 -15.5q-22 0 -43 14q-25 15 -36 15q-19 0 -26.5 -19t-7.5 -90v-507h-23l-309 553v-326q0 -109 -13.5 -149.5t-46 -59t-71.5 -18.5q-41 0 -61 19t-20 42q0 22 15.5 35
t37.5 13q20 0 45 -13q28 -15 38 -15q19 0 25.5 25t6.5 112v349q0 56 -7 73t-28.5 25.5t-62.5 9.5v18h178zM784 572q59 0 108.5 -41t49.5 -119q0 -70 -42 -112t-99 -42q-64 0 -111 47.5t-47 118.5q0 60 38.5 104t102.5 44zM780 549q-59 0 -59 -88q0 -66 26.5 -123t66.5 -57
q55 0 55 82q0 57 -23.5 121.5t-65.5 64.5zM643 156h299v-56h-299v56z" />
    <glyph glyph-name="uni2160" unicode="&#x2160;" horiz-adv-x="395" 
d="M247 691v-546q3 -9 95 -9v-53h-293v53q95 0 98 14v541q-2 9 -98 9v54h293v-54q-92 0 -95 -9z" />
    <glyph glyph-name="uni2161" unicode="&#x2161;" horiz-adv-x="661" 
d="M231 688v-542q4 -10 80 -10v-53h-262v53q80 0 84 14v538q-4 10 -84 10v53h262v-53q-76 0 -80 -10zM501 681v-535q4 -10 80 -10v-53h-258v53q76 0 80 10v538q-5 14 -80 14v53h258v-53q-75 0 -80 -17z" />
    <glyph glyph-name="uni2162" unicode="&#x2162;" horiz-adv-x="852" 
d="M220 691v-549q2 -6 72 -6v-53h-243v53q70 0 72 6v547q-3 9 -72 9v53h243v-53q-70 0 -72 -7zM379 139v552q-2 7 -75 7v53h246v-53q-69 0 -72 -9v-544q3 -9 72 -9v-53h-246v53q74 0 75 3zM732 691v-552q2 -3 72 -3v-53h-245v53q73 0 76 6v546q-4 10 -76 10v53h245v-53
q-69 0 -72 -7z" />
    <glyph glyph-name="uni2163" unicode="&#x2163;" horiz-adv-x="924" 
d="M861 698q-63 0 -73 -38l-200 -626l-193 594q-26 70 -77 70v53h228v-53q-73 0 -58 -49l116 -365l107 342q6 31 13 51.5t-52 20.5v53h189v-53zM129 139v545q-4 14 -80 14v53h258v-53q-74 0 -81 -12v-540q4 -10 81 -10v-53h-258v53q78 0 80 3z" />
    <glyph glyph-name="uni2164" unicode="&#x2164;" horiz-adv-x="805" 
d="M741 698q-75 0 -91 -43l-251 -611l-249 583q-26 71 -96 71v53h285v-53q-104 0 -85 -48l164 -399l164 407q10 40 -72 40v53h231v-53z" />
    <glyph glyph-name="uni2165" unicode="&#x2165;" horiz-adv-x="920" 
d="M126 629q-19 68 -77 68v53h227v-53q-68 0 -57 -49l118 -364l111 371q5 42 -50 42v53h190v-53q-61 0 -66 -16l-204 -647zM781 683v-527q5 -20 80 -20v-53h-261v53q79 0 83 13v524q-5 24 -83 24v53h261v-53q-76 0 -80 -14z" />
    <glyph glyph-name="uni2166" unicode="&#x2166;" horiz-adv-x="1052" 
d="M277 25l-173 641q-12 31 -55 31v53h193v-53q-46 0 -38 -46l88 -339l83 343q6 42 -34 42v53h163v-53q-51 0 -53 -18zM682 676v-509q6 -31 65 -31v-53h-232v53q61 0 69 21v526q-4 14 -69 14v53h232v-53q-60 0 -65 -21zM994 697q-66 0 -69 -24v-517q5 -20 69 -20v-53h-236
v53q64 0 69 24v509q-5 28 -69 28v53h236v-53z" />
    <glyph glyph-name="uni2167" unicode="&#x2167;" horiz-adv-x="1030" 
d="M74 631q-12 67 -50 67v53h163v-53q-32 0 -23 -46l61 -300l61 303q6 43 -25 43v53h138v-53q-39 0 -41 -10l-148 -675zM590 698q-32 0 -38 -11v-527q5 -24 38 -24v-53h-178v53q37 0 42 24v531q-3 7 -42 7v53h178v-53zM743 692v-537q4 -19 37 -19v-53h-178v53q37 0 41 17
v536q-3 9 -41 9v53h178v-53q-35 0 -37 -6zM932 695v-539q5 -20 38 -20v-53h-178v53q37 0 42 20v539q-2 3 -42 3v53h178v-53q-36 0 -38 -3z" />
    <glyph glyph-name="uni2168" unicode="&#x2168;" horiz-adv-x="999" 
d="M49 750h269v-53q-80 0 -83 -28v-516q2 -17 83 -17v-53h-269v53q83 0 87 20v521q-7 20 -87 20v53zM933 697q-90 0 -105 -26q-105 -167 -150 -237q123 -219 144 -258.5t107 -39.5v-53h-277v53q66 0 64 13t-37.5 75.5t-69.5 118.5q-127 -184 -132.5 -195.5t66.5 -11.5v-53
h-228v53q68 0 86.5 23.5t167.5 249.5l-131 236q-25 52 -105 52v53h262v-53q-69 0 -59 -24l105 -174l114 182q5 16 -54 16v53h232v-53z" />
    <glyph glyph-name="uni2169" unicode="&#x2169;" horiz-adv-x="805" 
d="M734 698q-102 0 -111 -17.5t-171 -238.5l147 -226q51 -80 142 -80v-53h-311v53q94 0 78 26l-117 191q-154 -195 -161.5 -206t74.5 -11v-53h-250v53q76 0 97 24t200 255l-147 230q-33 53 -124 53v53h288v-53q-79 0 -66 -22l113 -172l131 174q7 20 -62 20v53h250v-53z" />
    <glyph glyph-name="uni216A" unicode="&#x216a;" horiz-adv-x="1021" 
d="M373 501l119 181q6 16 -55 16v53h230v-53q-84 0 -105 -28l-154 -234q129 -221 149.5 -260.5t113.5 -39.5v-53h-284v53q73 0 68 12t-41.5 76t-68.5 119q-127 -183 -132 -195t63 -12v-53h-227v53q69 0 87 23.5t169 249.5l-132 237q-31 52 -105 52v53h261v-53q-66 0 -57 -25
q59 -100 101 -172zM759 159v518q-4 21 -87 21v53h273v-53q-83 0 -88 -17v-525q5 -20 88 -20v-53h-273v53q83 0 87 23z" />
    <glyph glyph-name="uni216B" unicode="&#x216b;" horiz-adv-x="1044" 
d="M283 326q-84 -159 -91 -174.5t43 -15.5v-53h-186v53q56 0 99.5 81t100.5 190l-108 240q-22 51 -77 51v53h221v-53q-46 0 -36 -24l67 -151l77 147q11 28 -36 28v53h189v-53q-60 0 -69 -13.5t-126 -237.5q99 -233 117.5 -272t81.5 -39v-53h-235v53q52 0 45.5 14t-77.5 176z
M702 677v-521q4 -20 57 -20v-53h-208v53q48 0 52 18v520q-4 24 -52 24v53h208v-53q-53 0 -57 -21zM923 681v-522q4 -23 53 -23v-53h-209v53q53 0 57 18v516q-5 28 -57 28v53h209v-53q-49 0 -53 -17z" />
    <glyph glyph-name="arrowleft" unicode="&#x2190;" horiz-adv-x="1024" 
d="M246 438h38q-30 -59 -44.5 -82.5t-53.5 -71.5h798v-51h-798q52 -54 99 -154h-39q-64 72 -110.5 109t-96.5 61v23q44 18 92.5 56t114.5 110z" />
    <glyph glyph-name="Delta" unicode="&#x2206;" horiz-adv-x="626" 
d="M613 100h-600l314 694zM495 141l-199 484l-220 -484h419z" />
    <glyph glyph-name="product" unicode="&#x220f;" horiz-adv-x="843" 
d="M620 771h-397v-795q0 -42 18.5 -60t62.5 -18h18v-19h-299v19h18q44 0 62.5 18t18.5 60v738q0 42 -18.5 60t-62.5 18h-18v18h797v-18h-17q-44 0 -62.5 -18t-18.5 -60v-738q0 -42 18.5 -60t62.5 -18h17v-19h-298v19h17q44 0 62.5 18t18.5 60v795z" />
    <glyph glyph-name="summation" unicode="&#x2211;" horiz-adv-x="730" 
d="M678 -121h-657v19l335 450l-335 444v18h639l14 -168h-20q-8 69 -39 98.5t-86 29.5h-370l281 -379l-314 -423h409q35 0 76 13q29 9 47.5 33.5t31.5 76.5l20 -4z" />
    <glyph glyph-name="minus" unicode="&#x2212;" horiz-adv-x="1101" 
d="M150 178h800v-76h-800v76z" />
    <glyph glyph-name="infinity" unicode="&#x221e;" horiz-adv-x="730" 
d="M326 434q34 78 74.5 108t110.5 30q81 0 136.5 -58t55.5 -150t-54 -151t-121 -59q-49 0 -92 36q-28 24 -76 107q-32 -62 -70 -89.5t-92 -27.5q-72 0 -122 51.5t-50 133.5t46 132.5t108 50.5q43 0 76 -22t70 -92zM374 332q38 -78 74.5 -104.5t81.5 -26.5q62 0 103 44
t41 119q0 73 -43.5 121t-97.5 48q-34 0 -60 -17.5t-47 -55.5q-12 -23 -52 -128zM312 395q-25 55 -56.5 81t-77.5 26q-53 0 -88.5 -37t-35.5 -100q0 -66 35 -106t80 -40q47 0 84 43q23 28 59 133z" />
    <glyph glyph-name="uni2225" unicode="&#x2225;" horiz-adv-x="418" 
d="M306 811l-245 -725h-60l245 725h60zM436 811l-245 -725h-60l245 725h60z" />
    <glyph glyph-name="uni224B" unicode="&#x224b;" horiz-adv-x="562" 
d="M526 619h22q-2 -63 -36.5 -99.5t-84.5 -36.5q-23 0 -49 7.5t-138 52.5q-78 32 -110 32q-35 0 -59.5 -21.5t-33.5 -69.5h-22q2 44 17 73.5t43 46t56 16.5q22 0 45 -6q52 -15 145 -55q49 -21 78 -29q15 -4 34 -4q37 0 62.5 24t30.5 69zM526 374h22q-2 -64 -36.5 -100.5
t-84.5 -36.5q-23 0 -75 15l-112 46q-78 31 -110 31q-35 0 -59.5 -21.5t-33.5 -69.5h-22q2 44 16.5 73.5t43 46.5t56.5 17q21 0 44 -7q53 -15 146 -55q49 -21 78 -29q15 -4 34 -4q37 0 62.5 24t30.5 70z" />
    <glyph glyph-name="notequal" unicode="&#x2260;" horiz-adv-x="562" 
d="M12 509h301l105 267h40l-103 -267h194v-47h-212l-72 -185h284v-46h-302l-106 -266h-40l105 266h-194v46h212l72 185h-284v47z" />
    <glyph glyph-name="lessequal" unicode="&#x2264;" horiz-adv-x="562" 
d="M549 223l-536 228v42l536 227v-51l-475 -197l475 -198v-51zM12 65h538v-46h-538v46z" />
    <glyph glyph-name="greaterequal" unicode="&#x2265;" horiz-adv-x="562" 
d="M13 720l536 -228v-42l-536 -227v51l475 197l-475 198v51zM12 65h538v-46h-538v46z" />
    <glyph glyph-name="uni2460" unicode="&#x2460;" 
d="M442 803q96 0 179.5 -48.5t131.5 -132t48 -179.5q0 -95 -48 -178t-131.5 -131.5t-179.5 -48.5q-95 0 -178.5 48.5t-132 131.5t-48.5 178q0 96 48 179.5t131.5 132t179.5 48.5zM442 167q114 0 196 81.5t82 194.5q0 74 -37.5 138.5t-102 102t-138.5 37.5q-114 0 -195.5 -82
t-81.5 -196q0 -113 82 -194.5t195 -81.5zM493 240h-77v280q-13 -12 -95 -44v76q85 41 117 102h55v-414z" />
    <glyph glyph-name="uni2461" unicode="&#x2461;" 
d="M442 803q96 0 179.5 -48.5t131.5 -132t48 -179.5q0 -95 -48 -178t-131.5 -131.5t-179.5 -48.5q-95 0 -178.5 48.5t-132 131.5t-48.5 178q0 96 48 179.5t131.5 132t179.5 48.5zM442 167q114 0 196 81.5t82 194.5q0 74 -37.5 138.5t-102 102t-138.5 37.5q-114 0 -195.5 -82
t-81.5 -196q0 -113 82 -194.5t195 -81.5zM581 240h-283q0 53 24 88t89 88q41 32 66 61t25 57q0 22 -16 37t-41 15t-42 -15.5t-17 -64.5l-80 10q7 72 44 105t96 33q63 0 98.5 -35.5t35.5 -85.5q0 -43 -25 -78t-73 -76q-61 -51 -71.5 -61t-6.5 -3h177v-75z" />
    <glyph glyph-name="uni2462" unicode="&#x2462;" 
d="M442 803q96 0 179.5 -48.5t131.5 -132t48 -179.5q0 -95 -48 -178t-131.5 -131.5t-179.5 -48.5q-95 0 -178.5 48.5t-132 131.5t-48.5 178q0 96 48 179.5t131.5 132t179.5 48.5zM442 167q114 0 196 81.5t82 194.5q0 74 -37.5 138.5t-102 102t-138.5 37.5q-114 0 -195.5 -82
t-81.5 -196q0 -113 82 -194.5t195 -81.5zM514 474q31 -7 51 -39t20 -67q0 -61 -42.5 -97.5t-100.5 -36.5q-56 0 -93 33.5t-44 101.5l75 11q8 -48 22.5 -62.5t39.5 -14.5q27 0 45 18.5t18 45.5q0 26 -16 42.5t-44 16.5q-13 0 -50 -11l11 77q51 0 67 14.5t16 34.5q0 21 -14 33
t-34 12q-24 0 -37 -13.5t-19 -58.5l-77 13q12 70 48 98.5t84 28.5q54 0 90 -33t36 -82q0 -62 -52 -86v21z" />
    <glyph glyph-name="uni2463" unicode="&#x2463;" 
d="M442 803q96 0 179.5 -48.5t131.5 -132t48 -179.5q0 -95 -48 -178t-131.5 -131.5t-179.5 -48.5q-95 0 -178.5 48.5t-132 131.5t-48.5 178q0 96 48 179.5t131.5 132t179.5 48.5zM442 167q114 0 196 81.5t82 194.5q0 74 -37.5 138.5t-102 102t-138.5 37.5q-114 0 -195.5 -82
t-81.5 -196q0 -113 82 -194.5t195 -81.5zM571 331h-52v-91h-77v91h-165v64l181 257h61v-247h52v-74zM442 405v110l-75 -110h75z" />
    <glyph glyph-name="uni2464" unicode="&#x2464;" 
d="M442 803q96 0 179.5 -48.5t131.5 -132t48 -179.5q0 -95 -48 -178t-131.5 -131.5t-179.5 -48.5q-95 0 -178.5 48.5t-132 131.5t-48.5 178q0 96 48 179.5t131.5 132t179.5 48.5zM442 167q114 0 196 81.5t82 194.5q0 74 -37.5 138.5t-102 102t-138.5 37.5q-114 0 -195.5 -82
t-81.5 -196q0 -113 82 -194.5t195 -81.5zM397 519q7 5 50 5q54 0 93.5 -38.5t39.5 -100.5q0 -63 -39.5 -107t-104.5 -44q-53 0 -92.5 30.5t-48.5 105.5l80 6q7 -45 23 -59t38 -14q28 0 46 21.5t18 56.5t-18.5 53t-47.5 18q-36 0 -62 -38l-69 9l43 224h216v-75h-155z" />
    <glyph glyph-name="uni2465" unicode="&#x2465;" 
d="M442 803q96 0 179.5 -48.5t131.5 -132t48 -179.5q0 -95 -48 -178t-131.5 -131.5t-179.5 -48.5q-95 0 -178.5 48.5t-132 131.5t-48.5 178q0 96 48 179.5t131.5 132t179.5 48.5zM442 167q114 0 196 81.5t82 194.5q0 74 -37.5 138.5t-102 102t-138.5 37.5q-114 0 -195.5 -82
t-81.5 -196q0 -113 82 -194.5t195 -81.5zM347 467q34 51 100 51q53 0 90.5 -39.5t37.5 -99.5t-37 -102.5t-98 -42.5t-104 45t-43 155q0 107 38.5 163.5t113.5 56.5q48 0 82 -27.5t43 -94.5l-76 -10q-8 41 -20 52.5t-33 11.5q-27 0 -49.5 -31.5t-22.5 -87.5h-22zM439 303
q26 0 42 21t16 53q0 31 -16.5 50.5t-43.5 19.5q-24 0 -42 -18t-18 -50q0 -33 18 -54.5t44 -21.5z" />
    <glyph glyph-name="uni2466" unicode="&#x2466;" 
d="M442 803q96 0 179.5 -48.5t131.5 -132t48 -179.5q0 -95 -48 -178t-131.5 -131.5t-179.5 -48.5q-95 0 -178.5 48.5t-132 131.5t-48.5 178q0 96 48 179.5t131.5 132t179.5 48.5zM442 167q114 0 196 81.5t82 194.5q0 74 -37.5 138.5t-102 102t-138.5 37.5q-114 0 -195.5 -82
t-81.5 -196q0 -113 82 -194.5t195 -81.5zM593 590q-59 -64 -99 -153t-48 -197h-77q1 96 39 191.5t77 140.5h-170v75h278v-57z" />
    <glyph glyph-name="uni2467" unicode="&#x2467;" 
d="M442 803q96 0 179.5 -48.5t131.5 -132t48 -179.5q0 -95 -48 -178t-131.5 -131.5t-179.5 -48.5q-95 0 -178.5 48.5t-132 131.5t-48.5 178q0 96 48 179.5t131.5 132t179.5 48.5zM442 167q114 0 196 81.5t82 194.5q0 74 -37.5 138.5t-102 102t-138.5 37.5q-114 0 -195.5 -82
t-81.5 -196q0 -113 82 -194.5t195 -81.5zM510 473q71 -23 71 -108q0 -56 -39 -93.5t-101 -37.5t-101.5 38t-39.5 94q0 42 23.5 73t49.5 36v-23q-58 18 -58 88q0 49 35 81.5t90 32.5q56 0 91 -33.5t35 -81.5q0 -67 -56 -87v21zM441 495q21 0 34 12.5t13 31.5q0 20 -13.5 33.5
t-33.5 13.5q-21 0 -34 -13t-13 -31q0 -22 13.5 -34.5t33.5 -12.5zM441 303q27 0 44.5 16.5t17.5 45.5q0 28 -18 45t-45 17q-28 0 -45 -18t-17 -44q0 -27 17.5 -44.5t45.5 -17.5z" />
    <glyph glyph-name="uni2468" unicode="&#x2468;" 
d="M442 803q96 0 179.5 -48.5t131.5 -132t48 -179.5q0 -95 -48 -178t-131.5 -131.5t-179.5 -48.5q-95 0 -178.5 48.5t-132 131.5t-48.5 178q0 96 48 179.5t131.5 132t179.5 48.5zM442 167q114 0 196 81.5t82 194.5q0 74 -37.5 138.5t-102 102t-138.5 37.5q-114 0 -195.5 -82
t-81.5 -196q0 -113 82 -194.5t195 -81.5zM532 420q-33 -50 -98 -50q-53 0 -90.5 39t-37.5 101q0 63 37.5 103.5t97.5 40.5q59 0 102 -45.5t43 -154.5q0 -108 -37.5 -164t-113.5 -56q-48 0 -81.5 27t-43.5 97l74 5q11 -60 52 -60q34 0 54 33t20 84h22zM445 441
q27 0 43.5 19.5t16.5 51.5q0 33 -17 53.5t-42 20.5q-26 0 -44.5 -22t-18.5 -56q0 -30 18 -48.5t44 -18.5z" />
    <glyph glyph-name="uni2469" unicode="&#x2469;" 
d="M442 803q96 0 179.5 -48.5t131.5 -132t48 -179.5q0 -95 -48 -178t-131.5 -131.5t-179.5 -48.5q-95 0 -178.5 48.5t-132 131.5t-48.5 178q0 96 48 179.5t131.5 132t179.5 48.5zM442 167q114 0 196 81.5t82 194.5q0 74 -37.5 138.5t-102 102t-138.5 37.5q-114 0 -195.5 -82
t-81.5 -196q0 -113 82 -194.5t195 -81.5zM528 654q69 0 104 -54.5t35 -156.5q0 -101 -35 -155t-104 -54q-71 0 -105.5 54t-34.5 155q0 102 34.5 156.5t105.5 54.5zM528 303q29 0 45 32.5t16 107.5q0 81 -16.5 112t-45.5 31t-45 -32t-16 -111t16.5 -109.5t45.5 -30.5z
M371 240h-77v279q-12 -11 -94 -43v76q85 41 117 102h54v-414z" />
    <glyph glyph-name="uni246A" unicode="&#x246a;" 
d="M442 803q96 0 179.5 -48.5t131.5 -132t48 -179.5q0 -95 -48 -178t-131.5 -131.5t-179.5 -48.5q-95 0 -178.5 48.5t-132 131.5t-48.5 178q0 96 48 179.5t131.5 132t179.5 48.5zM442 167q114 0 196 81.5t82 194.5q0 74 -37.5 138.5t-102 102t-138.5 37.5q-114 0 -195.5 -82
t-81.5 -196q0 -113 82 -194.5t195 -81.5zM598 240h-77v280q-13 -12 -95 -44v76q85 41 117 102h55v-414zM394 240h-77v279q-12 -11 -94 -43v76q84 41 117 102h54v-414z" />
    <glyph glyph-name="uni246B" unicode="&#x246b;" 
d="M442 803q96 0 179.5 -48.5t131.5 -132t48 -179.5q0 -95 -48 -178t-131.5 -131.5t-179.5 -48.5q-95 0 -178.5 48.5t-132 131.5t-48.5 178q0 96 48 179.5t131.5 132t179.5 48.5zM442 167q114 0 196 81.5t82 194.5q0 74 -37.5 138.5t-102 102t-138.5 37.5q-114 0 -195.5 -82
t-81.5 -196q0 -113 82 -194.5t195 -81.5zM665 240h-283q0 53 24 88t89 88q40 32 65.5 61t25.5 57q0 22 -16 37t-41 15t-42 -15.5t-17 -64.5l-80 10q7 72 44 105t96 33q62 0 98 -35.5t36 -85.5q0 -43 -25 -78t-73 -77q-62 -50 -72 -60t-6 -3h177v-75zM365 240h-77v280
q-13 -12 -95 -44v76q85 41 117 102h55v-414z" />
    <glyph glyph-name="uni246C" unicode="&#x246c;" 
d="M442 803q96 0 179.5 -48.5t131.5 -132t48 -179.5q0 -95 -48 -178t-131.5 -131.5t-179.5 -48.5q-95 0 -178.5 48.5t-132 131.5t-48.5 178q0 96 48 179.5t131.5 132t179.5 48.5zM442 167q114 0 196 81.5t82 194.5q0 74 -37.5 138.5t-102 102t-138.5 37.5q-114 0 -195.5 -82
t-81.5 -196q0 -113 82 -194.5t195 -81.5zM594 474q31 -7 51.5 -39t20.5 -67q0 -61 -43.5 -97.5t-99.5 -36.5q-57 0 -93.5 33.5t-45.5 101.5l76 11q8 -48 23 -62.5t40 -14.5q26 0 44.5 18.5t18.5 45.5q0 26 -16.5 42.5t-43.5 16.5q-13 0 -51 -11l11 77q52 0 67.5 14.5
t15.5 34.5t-14 32.5t-34 12.5q-23 0 -36 -13.5t-19 -58.5l-79 13q14 70 49.5 98.5t83.5 28.5q54 0 90.5 -33t36.5 -82q0 -62 -53 -86v21zM365 240h-77v280q-13 -12 -95 -44v76q85 41 117 102h55v-414z" />
    <glyph glyph-name="uni246D" unicode="&#x246d;" 
d="M442 803q96 0 179.5 -48.5t131.5 -132t48 -179.5q0 -95 -48 -178t-131.5 -131.5t-179.5 -48.5q-95 0 -178.5 48.5t-132 131.5t-48.5 178q0 96 48 179.5t131.5 132t179.5 48.5zM442 167q114 0 196 81.5t82 194.5q0 74 -37.5 138.5t-102 102t-138.5 37.5q-114 0 -195.5 -82
t-81.5 -196q0 -113 82 -194.5t195 -81.5zM368 240h-77v280q-13 -12 -94 -44v76q84 41 116 102h55v-414zM669 331h-52v-91h-76v91h-165v64l181 257h60v-247h52v-74zM541 405v110l-75 -110h75z" />
    <glyph glyph-name="uni246E" unicode="&#x246e;" 
d="M442 803q96 0 179.5 -48.5t131.5 -132t48 -179.5q0 -95 -48 -178t-131.5 -131.5t-179.5 -48.5q-95 0 -178.5 48.5t-132 131.5t-48.5 178q0 96 48 179.5t131.5 132t179.5 48.5zM442 167q114 0 196 81.5t82 194.5q0 74 -37.5 138.5t-102 102t-138.5 37.5q-114 0 -195.5 -82
t-81.5 -196q0 -113 82 -194.5t195 -81.5zM368 240h-77v280q-13 -12 -94 -44v76q84 41 116 102h55v-414zM482 518q8 6 50 6q54 0 94 -38.5t40 -100.5q0 -63 -40 -107t-105 -44q-52 0 -92 30.5t-47 105.5l78 6q7 -45 23 -59t38 -14q29 0 47 21.5t18 56.5t-18.5 53t-47.5 18
q-37 0 -63 -38l-69 9l44 224h216v-75h-155z" />
    <glyph glyph-name="uni246F" unicode="&#x246f;" 
d="M442 803q96 0 179.5 -48.5t131.5 -132t48 -179.5q0 -95 -48 -178t-131.5 -131.5t-179.5 -48.5q-95 0 -178.5 48.5t-132 131.5t-48.5 178q0 96 48 179.5t131.5 132t179.5 48.5zM442 167q114 0 196 81.5t82 194.5q0 74 -37.5 138.5t-102 102t-138.5 37.5q-114 0 -195.5 -82
t-81.5 -196q0 -113 82 -194.5t195 -81.5zM439 467q33 51 100 51q53 0 90.5 -39.5t37.5 -99.5t-37 -102.5t-98 -42.5q-60 0 -103.5 45t-43.5 155q0 107 38.5 163.5t113.5 56.5q47 0 81.5 -27.5t43.5 -94.5l-76 -10q-8 40 -20.5 52t-32.5 12q-27 0 -49.5 -31.5t-22.5 -87.5
h-22zM531 303q25 0 41.5 21t16.5 53q0 31 -16.5 50.5t-43.5 19.5q-24 0 -42 -18t-18 -50q0 -33 18 -54.5t44 -21.5zM368 240h-77v280q-13 -12 -94 -44v76q84 41 116 102h55v-414z" />
    <glyph glyph-name="uni2470" unicode="&#x2470;" 
d="M442 803q96 0 179.5 -48.5t131.5 -132t48 -179.5q0 -95 -48 -178t-131.5 -131.5t-179.5 -48.5q-95 0 -178.5 48.5t-132 131.5t-48.5 178q0 96 48 179.5t131.5 132t179.5 48.5zM442 167q114 0 196 81.5t82 194.5q0 74 -37.5 138.5t-102 102t-138.5 37.5q-114 0 -195.5 -82
t-81.5 -196q0 -113 82 -194.5t195 -81.5zM368 240h-77v280q-13 -12 -94 -44v76q84 41 116 102h55v-414zM672 590q-59 -64 -99 -153t-48 -197h-77q1 96 39 191.5t77 140.5h-170v75h278v-57z" />
    <glyph glyph-name="uni2471" unicode="&#x2471;" 
d="M442 803q96 0 179.5 -48.5t131.5 -132t48 -179.5q0 -95 -48 -178t-131.5 -131.5t-179.5 -48.5q-95 0 -178.5 48.5t-132 131.5t-48.5 178q0 96 48 179.5t131.5 132t179.5 48.5zM442 167q114 0 196 81.5t82 194.5q0 74 -37.5 138.5t-102 102t-138.5 37.5q-114 0 -195.5 -82
t-81.5 -196q0 -113 82 -194.5t195 -81.5zM595 473q72 -23 72 -108q0 -56 -39 -93.5t-101 -37.5t-101.5 38t-39.5 94q0 42 22.5 73t50.5 36v-23q-58 18 -58 88q0 48 34.5 81t89.5 33q56 0 91.5 -33t35.5 -82q0 -67 -57 -87v21zM527 495q20 0 33.5 12.5t13.5 31.5
q0 20 -13.5 33.5t-34.5 13.5q-20 0 -33.5 -13t-13.5 -31q0 -21 14 -34t34 -13zM527 303q27 0 44.5 16.5t17.5 45.5q0 27 -18.5 44.5t-45.5 17.5t-44 -18t-17 -44q0 -27 17 -44.5t46 -17.5zM368 240h-77v280q-13 -12 -94 -44v76q84 41 116 102h55v-414z" />
    <glyph glyph-name="uni2472" unicode="&#x2472;" 
d="M442 803q96 0 179.5 -48.5t131.5 -132t48 -179.5q0 -95 -48 -178t-131.5 -131.5t-179.5 -48.5q-95 0 -178.5 48.5t-132 131.5t-48.5 178q0 96 48 179.5t131.5 132t179.5 48.5zM442 167q114 0 196 81.5t82 194.5q0 74 -37.5 138.5t-102 102t-138.5 37.5q-114 0 -195.5 -82
t-81.5 -196q0 -113 82 -194.5t195 -81.5zM621 420q-33 -50 -98 -50q-54 0 -91.5 39t-37.5 101q0 63 37.5 103.5t97.5 40.5t103 -45.5t43 -154.5q0 -108 -37.5 -164t-113.5 -56q-49 0 -82.5 27t-42.5 97l75 5q6 -38 18 -49t32 -11q35 0 55 33t20 84h22zM533 441q28 0 44 19.5
t16 51.5q0 33 -16.5 53.5t-41.5 20.5q-26 0 -44.5 -22t-18.5 -56q0 -30 17.5 -48.5t43.5 -18.5zM368 240h-77v280q-13 -12 -94 -44v76q84 41 116 102h55v-414z" />
    <glyph glyph-name="uni2473" unicode="&#x2473;" 
d="M442 803q96 0 179.5 -48.5t131.5 -132t48 -179.5q0 -95 -48 -178t-131.5 -131.5t-179.5 -48.5q-95 0 -178.5 48.5t-132 131.5t-48.5 178q0 96 48 179.5t131.5 132t179.5 48.5zM442 167q114 0 196 81.5t82 194.5q0 74 -37.5 138.5t-102 102t-138.5 37.5q-114 0 -195.5 -82
t-81.5 -196q0 -113 82 -194.5t195 -81.5zM561 654q59 0 86.5 -54.5t27.5 -156.5q0 -101 -27.5 -155t-86.5 -54t-87 54t-28 155q0 102 28 156.5t87 54.5zM561 303q14 0 25 34t11 106q0 77 -11 110t-25 33q-15 0 -25.5 -33t-10.5 -110q0 -76 10.5 -108t25.5 -32zM444 240h-234
q0 52 19 88.5t65 84.5q71 70 71 121q0 26 -9.5 39t-25.5 13q-13 0 -23.5 -14t-10.5 -66l-80 10q4 71 35 104.5t81 33.5q52 0 81.5 -36t29.5 -85q0 -39 -20 -74.5t-60 -78.5q-65 -64 -65 -65h146v-75z" />
    <glyph glyph-name="uni24EA" unicode="&#x24ea;" 
d="M442 803q96 0 179.5 -48.5t131.5 -132t48 -179.5q0 -95 -48 -178t-131.5 -131.5t-179.5 -48.5q-95 0 -178.5 48.5t-132 131.5t-48.5 178q0 96 48 179.5t131.5 132t179.5 48.5zM442 167q114 0 196 81.5t82 194.5q0 74 -37.5 138.5t-102 102t-138.5 37.5q-114 0 -195.5 -82
t-81.5 -196q0 -113 82 -194.5t195 -81.5zM438 654q69 0 104 -54.5t35 -156.5q0 -101 -35 -155t-104 -54q-71 0 -105.5 54t-34.5 155q0 102 34.5 156.5t105.5 54.5zM438 303q29 0 45 32.5t16 107.5q0 81 -16.5 112t-45.5 31t-45 -32t-16 -111t16.5 -109.5t45.5 -30.5z" />
    <glyph glyph-name="uni3008" unicode="&#x3008;" horiz-adv-x="642" 
d="M427 913l63 -35l-208 -406l191 -406l-62 -35l-206 441z" />
    <glyph glyph-name="uni3009" unicode="&#x3009;" horiz-adv-x="542" 
d="M175 36l-63 29l192 407l-191 402l62 35l206 -433z" />
    <glyph glyph-name="uni300A" unicode="&#x300a;" horiz-adv-x="636" 
d="M240 472l206 433l62 -35l-191 -402l192 -407l-64 -29zM96 472l206 433l62 -35l-191 -402l192 -407l-64 -29z" />
    <glyph glyph-name="uni300B" unicode="&#x300b;" horiz-adv-x="636" 
d="M159 32l-63 29l192 407l-191 402l62 35l206 -433zM303 32l-63 29l192 407l-191 402l62 35l206 -433z" />
    <glyph glyph-name="uni300C" unicode="&#x300c;" horiz-adv-x="477" 
d="M99 915h274v-70h-204v-832h-70v902z" />
    <glyph glyph-name="uni300D" unicode="&#x300d;" horiz-adv-x="530" 
d="M418 923v-906h-274v70h204v836h70z" />
    <glyph glyph-name="uni300E" unicode="&#x300e;" horiz-adv-x="731" 
d="M200 923h286v-154h-136v-752h-150v906zM270 87h10v752h136v14h-146v-766z" />
    <glyph glyph-name="uni300F" unicode="&#x300f;" horiz-adv-x="726" 
d="M476 17h-282v154h132v752h150v-906zM406 853h-10v-752h-132v-14h142v766z" />
    <glyph glyph-name="uni3010" unicode="&#x3010;" horiz-adv-x="650" 
d="M521 21h-417v898h421q-223 -241 -231 -441t227 -457z" />
    <glyph glyph-name="uni3011" unicode="&#x3011;" horiz-adv-x="744" 
d="M143 919h409v-898h-412q214 249 221.5 445.5t-218.5 452.5z" />
    <glyph glyph-name="uni3013" unicode="&#x3013;" horiz-adv-x="755" 
d="M99 310v217h562v-217h-562zM99 901h562v-220h-562v220z" />
    <glyph glyph-name="uni3014" unicode="&#x3014;" horiz-adv-x="466" 
d="M371 921v-87l-208 -89v-544l208 -92v-87l-288 122v655z" />
    <glyph glyph-name="uni3015" unicode="&#x3015;" horiz-adv-x="466" 
d="M83 921l291 -123v-657l-291 -123v88l211 92v546l-211 89v88z" />
    <glyph glyph-name="uni3016" unicode="&#x3016;" horiz-adv-x="858" 
d="M688 21h-484v898h478q-116 -105 -178.5 -199t-82 -171t0 -156t74.5 -167t192 -205zM507 91q-36 36 -91 134t-69.5 197.5t34.5 214.5t133 212h-240v-758h233z" />
    <glyph glyph-name="uni3017" unicode="&#x3017;" horiz-adv-x="756" 
d="M112 919h476v-890h-470q115 105 174 199t78 171t0 152t-70 163t-188 205zM291 849q38 -36 89 -134t65.5 -193.5t-30.5 -210.5t-129 -212h232v750h-227z" />
    <glyph glyph-name="uni3018" unicode="&#x3018;" horiz-adv-x="536" 
d="M410 913l-98 -87v-670l97 -84l-41 -70l-227 194v589l226 192zM231 225v530l-11 -10v-510z" />
    <glyph glyph-name="uni3019" unicode="&#x3019;" horiz-adv-x="536" 
d="M396 195l-227 -194l-42 69l97 85v670l-97 88l43 63l226 -192v-589zM317 234v509l-12 11v-530z" />
    <glyph glyph-name="uni301A" unicode="&#x301a;" horiz-adv-x="531" 
d="M422 -1h-320v952h320v-86h-119v-780h119v-86zM215 85v780h-25v-780h25z" />
    <glyph glyph-name="uni301B" unicode="&#x301b;" horiz-adv-x="576" 
d="M444 1h-320v87h119v780h-119v86h320v-953zM356 88v780h-25v-780h25z" />
    <glyph glyph-name="uniFA8C" unicode="&#xfa8c;" horiz-adv-x="1011" 
d="M483 82q-6 -2 -6 -8.5t5 -7.5h42q48 -4 64 -40t12 -77q-15 -99 -97.5 -151t-181.5 -52h-121q-72 0 -120 43.5t-50 115.5q-4 129 47 245q35 26 41 -15q-15 -92 -14 -189q7 -103 118 -99h117q112 2 163 68q12 16 13 32.5t-8 16.5h-70q-66 3 -75 49t20 92q52 76 144 79h196
q36 1 60.5 36t19.5 88q23 27 43 0q-3 -116 99 -124h82v-102h-54q-124 -3 -156 80q12 -8 18 4q-29 -81 -132 -84h-219zM920 621q35 13 47.5 -12t-11.5 -47q-120 -79 -239 -141q-54 -22 -34 32q14 38 47 66q34 15 5 13q31 -14 6 6q-26 40 -14 94t80 78q63 9 108 -21
q50 -49 -23 -49q-4 3 -62 -3q-18 -2 -29 -18t-2 -31q4 -6 19.5 -13.5t19.5 -5.5q36 18 82 52z" />
    <glyph glyph-name="uniFBD1" unicode="&#xfbd1;" horiz-adv-x="731" 
d="M139 -74l62 77l64 -77l-64 -86zM643 621q33 13 45.5 -12t-10.5 -47q-120 -79 -239 -141q-54 -22 -34 32q16 38 48 66q34 15 6 13q30 -14 4 6q-26 40 -14 94t79 78q64 9 108 -21q54 -49 -21 -49q-5 3 -63 -3q-17 -2 -28 -18t-2 -31q4 -7 19.5 -14t19.5 -5q36 18 82 52z
M300 82q-84 10 -98 58q-12 -48 -110 -58h-92v102h77q41 2 63 46.5t31 103.5q24 25 44 -1q7 -56 34.5 -101.5t68.5 -47.5h127q36 1 60 36t20 88q24 28 42 -1q-4 -115 99 -123h83v-102h-55q-124 -3 -156 80q15 -10 19 6q-29 -83 -133 -86h-124zM139 -239l62 86l64 -86l-64 -80
z" />
    <glyph glyph-name="uniFBD2" unicode="&#xfbd2;" horiz-adv-x="731" 
d="M300 82q-84 10 -98 58q-12 -48 -110 -58h-92v102h77q41 2 63 46.5t31 103.5q24 25 44 -1q7 -56 34.5 -101.5t68.5 -47.5h127q36 1 60 36t20 88q24 28 42 -1q-4 -115 99 -123h83v-102h-55q-124 -3 -156 80q15 -10 19 6q-29 -83 -133 -86h-124zM643 621q33 13 45.5 -12
t-10.5 -47q-120 -79 -239 -141q-54 -22 -34 32q16 38 48 66q34 15 6 13q30 -14 4 6q-26 40 -14 94t79 78q64 9 108 -21q54 -49 -21 -49q-5 3 -63 -3q-17 -2 -28 -18t-2 -31q4 -7 19.5 -14t19.5 -5q36 18 82 52z" />
    <glyph glyph-name="uniFD3E" unicode="&#xfd3e;" horiz-adv-x="693" 
d="M658 -401q0 -24 -29 -24q-50 0 -144 94q-120 115 -183 287q-127 1 -127 52q80 84 80 108q-15 0 -57 -42.5t-54 -42.5q-36 0 -46 100q-66 32 -66 65q0 36 63 73q6 96 48 96q89 -84 111 -84q-2 23 -44 64t-42 52q0 20 46 34q41 14 83 16q39 119 113 221q57 80 122 130
q56 44 82 44t26 -29q0 -12 -46 -63q-52 -58 -84 -118q-52 -94 -66 -194q56 -9 56 -45q-81 -83 -81 -108q20 0 104 86q26 0 40 -37t15 -65q62 -32 62 -67q0 -31 -58 -65q-6 -99 -53 -99l-44 42q-38 36 -65 39q0 -19 43 -61t43 -55q0 -26 -60 -37q15 -78 71.5 -177.5
t124.5 -157.5q16 -15 16 -32zM491 709q-67 -46 -157 -319q-80 -5 -90 -6q-3 0 -3 12l19 -18q30 -27 36 -39q16 30 42 30q21 0 36 -29q-4 -11 30 19q23 22 23 34q0 -6 -5 -5l-42 8q38 159 61 214q36 83 50 99zM578 206q0 4 -53 22q-6 70 0 70q1 0 -21 -22q-33 -35 -32 -35
q30 -13 30 -41q0 -30 -25 -40q4 -1 35 -30l23 -20q-11 0 -11 61q54 31 54 35zM397 200q0 24 -17.5 42.5t-41.5 18.5q-26 0 -43.5 -18.5t-17.5 -42.5q0 -25 17 -41.5t44 -16.5q24 0 41.5 16.5t17.5 41.5zM204 160q-33 14 -33 42q0 30 18 37q27 -7 -8 29q-23 25 -37 25
q5 0 5 -63q-54 -30 -54 -34t53 -23q6 -69 0 -69q-2 0 21 24q33 31 35 32zM455 -265q67 -61 15 30q-64 111 -83 245q47 4 47 -7l-20 19q-32 29 -38 40q-12 -28 -38 -28q-35 0 -42 22q-3 -7 -30 -36l-18 -20q0 15 40 11q13 0 50 3q83 -257 117 -279z" />
    <glyph glyph-name="uniFD3F" unicode="&#xfd3f;" horiz-adv-x="693" 
d="M660 220q0 -37 -61 -72q-8 -97 -49 -97q-90 84 -111 84q2 -24 44 -64t42 -51q0 -21 -45 -35q-44 -14 -85 -14q-39 -119 -112 -221q-57 -79 -122 -130q-55 -45 -82 -45t-27 28q0 11 47 63q52 59 85 120q50 92 65 193q-56 11 -56 44q82 84 82 108q-21 0 -105 -86
q-28 0 -40.5 36.5t-13.5 64.5q-64 33 -64 68q0 31 60 65q6 99 52 99l44 -41q38 -37 65 -40q0 21 -43.5 63t-43.5 53q0 26 61 39q-15 79 -71.5 178t-124.5 157q-17 15 -17 30q0 25 30 25q50 0 144 -92q121 -118 184 -288q126 -1 126 -53q-81 -85 -81 -110q16 0 58 44t53 44
q37 0 47 -101q65 -34 65 -66zM445 416q0 -14 -40 -10q-13 0 -51 -3q-83 258 -127 287q-57 52 -4 -39q64 -110 84 -244q-48 -4 -48 7l20 -20q31 -27 37 -40q15 29 40 29q34 0 40 -19q2 5 31 32zM598 220q0 4 -53 23q-6 69 0 69l-21 -22q-33 -35 -32 -35q30 -13 30 -41
q0 -31 -25 -39q-20 7 14 -28q22 -23 37 -23q-4 0 -4 62q54 32 54 34zM416 216q0 24 -17 41.5t-43 17.5q-25 0 -43 -17.5t-18 -41.5q0 -25 18 -42.5t43 -17.5q26 0 43 17.5t17 42.5zM220 174q-30 12 -30 42t22 39l-32 30l-22 22q11 0 11 -62q-55 -31 -55 -35q0 -5 54 -22
q6 -70 0 -70q-1 0 21 23q33 34 31 33zM451 21l-18 18q-30 28 -36 39q-16 -30 -43 -30q-20 0 -35 27q-2 -5 -33 -35l-20 -23q0 12 6 11q12 -2 40 -7q-36 -157 -60 -214q-35 -80 -51 -100q68 47 158 319q79 5 85.5 6t6.5 -11z" />
    <glyph glyph-name="glyph120" horiz-adv-x="562" 
d="M512 558v-73h-116q-8 -52 -13.5 -120t-5.5 -109q0 -45 17.5 -65.5t44.5 -20.5q22 0 37 14t18 41h18q-9 -75 -38 -107t-65 -32q-37 0 -62 35t-25 138q0 46 5 102q9 92 14 124h-118l-7 -116q-6 -75 -19.5 -149.5t-27.5 -100.5q-10 -19 -21 -26t-22 -7q-19 0 -32 12.5
t-13 29.5q0 14 5 26q3 7 28 41q16 23 25 49t17 84q1 11 12 157h-15q-35 0 -57 -14t-47 -56h-18q16 60 40.5 92.5t47.5 41.5t74 9h319z" />
    <glyph glyph-name="glyph402" horiz-adv-x="599" 
d="M300 558q113 0 188.5 -74.5t75.5 -209.5q0 -164 -81.5 -232.5t-182.5 -68.5q-107 0 -185.5 70.5t-78.5 221.5q0 146 76 219.5t188 73.5zM300 77q69 0 105.5 52t36.5 140q0 93 -41.5 139t-100.5 46q-62 0 -102 -46.5t-40 -142.5q0 -95 41 -141.5t101 -46.5zM460 761
l-134 -171h-105l80 171h159z" />
    <glyph glyph-name="glyph403" horiz-adv-x="599" 
d="M34 266q0 154 87 229q73 63 177 63q116 0 190 -76t74 -209q0 -106 -33 -168.5t-95 -97t-136 -34.5q-117 0 -190.5 76t-73.5 217zM157 266q0 -96 40.5 -142.5t100.5 -46.5t100.5 46.5t40.5 145.5q0 92 -40.5 138.5t-100.5 46.5t-100.5 -46t-40.5 -142zM489 761l-133 -171
h-109l-136 171h141l46 -73l50 73h141z" />
    <glyph glyph-name="glyph404" horiz-adv-x="599" 
d="M300 558q113 0 188.5 -74.5t75.5 -209.5q0 -164 -81.5 -232.5t-182.5 -68.5q-107 0 -185.5 70.5t-78.5 221.5q0 146 76 219.5t188 73.5zM300 77q69 0 105.5 52t36.5 140q0 93 -41.5 139t-100.5 46q-62 0 -102 -46.5t-40 -142.5q0 -95 41 -141.5t101 -46.5zM381 590h-105
l-135 171h158z" />
    <glyph glyph-name="glyph405" horiz-adv-x="600" 
d="M560 228h-397q5 -67 45 -109t101 -42q47 0 78 24t52 86l122 -14q-29 -105 -93 -152.5t-159 -47.5q-126 0 -197.5 77.5t-71.5 210.5q0 131 69.5 214t194.5 83q61 0 118.5 -27t97.5 -92.5t40 -210.5zM436 332q-4 58 -44 90t-88 32q-57 0 -94 -38.5t-41 -83.5h267zM481 624
h-342v105h342v-105z" />
    <glyph glyph-name="glyph406" horiz-adv-x="600" 
d="M560 228h-397q5 -67 45 -109t101 -42q47 0 78 24t52 86l122 -14q-29 -105 -93 -152.5t-159 -47.5q-126 0 -197.5 77.5t-71.5 210.5q0 131 69.5 214t194.5 83q61 0 118.5 -27t97.5 -92.5t40 -210.5zM436 332q-4 58 -44 90t-88 32q-57 0 -94 -38.5t-41 -83.5h267zM460 761
l-134 -171h-105l80 171h159z" />
    <glyph glyph-name="glyph407" horiz-adv-x="600" 
d="M436 187l122 -14q-28 -104 -91.5 -152t-161.5 -48q-122 0 -195 76.5t-73 211.5q0 140 73 218.5t190 78.5q114 0 185.5 -77t71.5 -214q0 -8 -2 -39h-394q4 -67 44 -109t101 -42q44 0 75 23t55 87zM166 332h265q-5 46 -29 75q-39 47 -101 47q-56 0 -93.5 -37.5t-41.5 -84.5
zM306 679l47 73h141l-136 -170h-110l-132 170h142z" />
    <glyph glyph-name="glyph408" horiz-adv-x="600" 
d="M560 228h-397q5 -67 45 -109t101 -42q47 0 78 24t52 86l122 -14q-29 -105 -93 -152.5t-159 -47.5q-126 0 -197.5 77.5t-71.5 210.5q0 131 69.5 214t194.5 83q61 0 118.5 -27t97.5 -92.5t40 -210.5zM436 332q-4 58 -44 90t-88 32q-57 0 -94 -38.5t-41 -83.5h267zM381 590
h-105l-135 171h158z" />
    <glyph glyph-name="glyph409" horiz-adv-x="257" 
d="M300 624h-343v105h343v-105zM189 -15h-120v561h120v-561z" />
    <glyph glyph-name="glyph410" horiz-adv-x="339" 
d="M226 -15h-120v561h120v-561zM325 761l-135 -171h-105l81 171h159z" />
    <glyph glyph-name="glyph411" horiz-adv-x="346" 
d="M11 -15v561h120v-561h-120zM265 761l-131 -171h-110l-137 171h141l47 -73l49 73h141z" />
    <glyph glyph-name="glyph412" horiz-adv-x="339" 
d="M233 -15h-120v561h120v-561zM253 590h-105l-135 171h158z" />
    <glyph glyph-name="glyph413" horiz-adv-x="599" 
d="M528 -15h-110v78h20q-61 -90 -174 -90q-60 0 -111 28t-68.5 77t-17.5 124v344h120v-309q0 -69 6 -96t30.5 -43.5t58.5 -16.5q46 0 86 31t40 135v299h120v-561zM466 624h-342v105h342v-105z" />
    <glyph glyph-name="glyph414" horiz-adv-x="599" 
d="M415 -15v45q-39 -57 -153 -57q-50 0 -94.5 19.5t-66 50t-30.5 72.5q-6 28 -6 87v344h120v-309q0 -69 6 -92q6 -30 29.5 -47t59.5 -17t67.5 18t45 50.5t13.5 97.5v299h120v-561h-111zM217 582l82 170h158l-134 -170h-106z" />
    <glyph glyph-name="glyph415" horiz-adv-x="599" 
d="M415 -15v45q-39 -57 -153 -57q-50 0 -94.5 19.5t-66 50t-30.5 72.5q-6 28 -6 87v344h120v-309q0 -69 6 -92q6 -30 29.5 -47t59.5 -17t67.5 18t45 50.5t13.5 97.5v299h120v-561h-111zM487 761l-131 -171h-109l-137 171h141l47 -73l49 73h140z" />
    <glyph glyph-name="glyph416" horiz-adv-x="599" 
d="M415 -15v45q-39 -57 -153 -57q-50 0 -94.5 19.5t-66 50t-30.5 72.5q-6 28 -6 87v344h120v-309q0 -69 6 -92q6 -30 29.5 -47t59.5 -17t67.5 18t45 50.5t13.5 97.5v299h120v-561h-111zM403 582h-104l-140 170h161z" />
    <glyph glyph-name="glyph417" horiz-adv-x="599" 
d="M415 -15v45q-39 -57 -153 -57q-50 0 -94.5 19.5t-66 50t-30.5 72.5q-6 28 -6 87v344h120v-309q0 -69 6 -92q6 -30 29.5 -47t59.5 -17t67.5 18t45 50.5t13.5 97.5v299h120v-561h-111zM140 585v133h124v-133h-124zM327 585v133h124v-133h-124zM466 764h-342v105h342v-105z
" />
    <glyph glyph-name="glyph418" horiz-adv-x="599" 
d="M415 -15v45q-39 -57 -153 -57q-50 0 -94.5 19.5t-66 50t-30.5 72.5q-6 28 -6 87v344h120v-309q0 -69 6 -92q6 -30 29.5 -47t59.5 -17t67.5 18t45 50.5t13.5 97.5v299h120v-561h-111zM140 585v133h124v-133h-124zM327 585v133h124v-133h-124zM217 747l82 170h158
l-134 -170h-106z" />
    <glyph glyph-name="glyph419" horiz-adv-x="599" 
d="M415 -15v45q-39 -57 -153 -57q-50 0 -94.5 19.5t-66 50t-30.5 72.5q-6 28 -6 87v344h120v-309q0 -69 6 -92q6 -30 29.5 -47t59.5 -17t67.5 18t45 50.5t13.5 97.5v299h120v-561h-111zM140 585v133h124v-133h-124zM327 585v133h124v-133h-124zM487 921l-131 -171h-109
l-137 171h141l47 -73l49 73h140z" />
    <glyph glyph-name="glyph420" horiz-adv-x="599" 
d="M468 -15v45q-39 -57 -153 -57q-50 0 -94.5 19.5t-66 50t-30.5 72.5q-6 28 -6 87v344h120v-309q0 -69 6 -92q6 -30 29.5 -47t59.5 -17t67.5 18t45 50.5t13.5 97.5v299h120v-561h-111zM193 585v133h124v-133h-124zM380 585v133h124v-133h-124zM432 746h-105l-135 171h158z
" />
    <glyph glyph-name="glyph421" horiz-adv-x="599" 
d="M415 -15v45q-39 -57 -153 -57q-50 0 -94.5 19.5t-66 50t-30.5 72.5q-6 28 -6 87v344h120v-309q0 -69 6 -92q6 -30 29.5 -47t59.5 -17t67.5 18t45 50.5t13.5 97.5v299h120v-561h-111zM140 585v133h124v-133h-124zM327 585v133h124v-133h-124z" />
    <glyph glyph-name="glyph422" horiz-adv-x="599" 
d="M51 -26l116 -17q6 -45 26 -60q30 -23 83 -23q57 0 87 22t40 62q7 26 7 71q-37 -44 -132 -44q-117 0 -181 84t-64 200q0 79 29 146.5t85 105t131 37.5q101 0 140 -48v36h113v-474q0 -127 -27 -182t-85.5 -87.5t-142.5 -32.5q-100 0 -163.5 46.5t-61.5 157.5zM156 275
q0 -98 37.5 -141.5t92.5 -43.5t93 43t38 139q0 92 -39 137t-93 45q-53 0 -91 -44.5t-38 -134.5z" />
    <glyph glyph-name="glyph423" horiz-adv-x="1168" 
d="M586 0h-111l-308 642v-642h-92v745h140l278 -590v590h93v-745zM1100 515q0 -113 -58.5 -179t-151.5 -66q-96 0 -153 66t-57 179q0 117 58.5 181t151.5 64q94 0 152 -64t58 -181zM1035 88h-289v81h289v-81zM1010 515q0 88 -32 129t-88 41q-55 0 -87.5 -41t-32.5 -129
q0 -84 32 -127t88 -43q57 0 88.5 43t31.5 127z" />
    <glyph glyph-name="glyph508" horiz-adv-x="0" 
 />
    <glyph glyph-name="glyph509" horiz-adv-x="0" 
 />
    <glyph glyph-name="glyph510" horiz-adv-x="0" 
 />
    <glyph glyph-name="glyph511" horiz-adv-x="0" 
 />
    <glyph glyph-name="glyph512" horiz-adv-x="0" 
 />
    <glyph glyph-name="glyph513" horiz-adv-x="0" 
 />
    <glyph glyph-name="glyph514" horiz-adv-x="0" 
 />
    <glyph glyph-name="glyph515" horiz-adv-x="0" 
 />
    <glyph glyph-name="glyph516" horiz-adv-x="0" 
 />
    <glyph glyph-name="glyph517" horiz-adv-x="0" 
 />
    <glyph glyph-name="glyph518" horiz-adv-x="0" 
 />
    <glyph glyph-name="glyph519" horiz-adv-x="0" 
 />
    <glyph glyph-name="glyph520" horiz-adv-x="0" 
 />
    <glyph glyph-name="glyph521" horiz-adv-x="0" 
 />
    <glyph glyph-name="glyph522" horiz-adv-x="0" 
 />
  </font>
</defs>
</svg>
